;TYPE=PLATED
;Layer: PTH_Through_Via
;EasyEDA Pro v2.2.47.7, 2026-05-29 08:57:25
;Gerber Generator version 0.3
M48
METRIC,LZ,0000.00000
;Hole size 1 = 0.30500 METRIC
T01C0.30500
%
G05
G90
T01
X-6.2464Y1.77672
X-6.63445Y1.08715
X-3.75884Y-0.71084
X-4.29765Y-1.24965
X-6.477Y6.51588
X-6.477Y5.75388
X-4.67199Y6.51588
X-4.67199Y5.75388
X-12.44725Y4.06293
X-12.89466Y3.4327
X-14.54497Y3.36897
X-15.08378Y3.90778
X-3.175Y-17.399
X-3.175Y-14.986
X-11.684Y-19.304
X-34.036Y-13.589
X-28.829Y-1.651
X-30.607Y-1.651
X2.286Y12.192
X6.35Y12.446
X6.31203Y-0.635
X2.11188Y-0.127
X7.366Y-4.445
X5.461Y-4.191
X5.08Y-18.415
X3.175Y-16.764
X-23.29104Y0.381
X-16.891Y-4.191
X-17.399Y-13.335
X-16.764Y12.446
X-19.36598Y12.446
X-4.445Y12.319
X-3.302Y7.493
X-4.12902Y1.524
X-8.509Y10.287
X-10.922Y10.16
X-14.605Y-23.495
X-1.905Y-23.95588
X-14.097Y-26.416
X-2.794Y-26.035
M30