;TYPE=PLATED
;Layer: PTH_Through
;EasyEDA Pro v2.2.47.7, 2026-05-29 08:57:25
;Gerber Generator version 0.3
M48
METRIC,LZ,0000.00000
;Hole size 1 = 0.30500 METRIC
T01C0.30500
;Hole size 2 = 0.60000 METRIC
T02C0.60000
;Hole size 3 = 0.70002 METRIC
T03C0.70002
%
G05
G90
T01
X-6.2464Y1.77672
X-6.63445Y1.08715
X-3.75884Y-0.71084
X-4.29765Y-1.24965
X-6.477Y6.51588
X-6.477Y5.75388
X-4.67199Y6.51588
X-4.67199Y5.75388
X-12.44725Y4.06293
X-12.89466Y3.4327
X-14.54497Y3.36897
X-15.08378Y3.90778
X-3.175Y-17.399
X-3.175Y-14.986
X-11.684Y-19.304
X-34.036Y-13.589
X-28.829Y-1.651
X-30.607Y-1.651
X2.286Y12.192
X6.35Y12.446
X6.31203Y-0.635
X2.11188Y-0.127
X7.366Y-4.445
X5.461Y-4.191
X5.08Y-18.415
X3.175Y-16.764
X-23.29104Y0.381
X-16.891Y-4.191
X-17.399Y-13.335
X-16.764Y12.446
X-19.36598Y12.446
X-4.445Y12.319
X-3.302Y7.493
X-4.12902Y1.524
X-8.509Y10.287
X-10.922Y10.16
X-14.605Y-23.495
X-1.905Y-23.95588
X-14.097Y-26.416
X-2.794Y-26.035
T02
X-12.32593Y-23.50596G85X-12.32593Y-24.40596
X-3.67591Y-23.50597G85X-3.67591Y-24.406
X-12.32598Y-27.85603G85X-12.32598Y-28.45603
X-3.67601Y-27.85603G85X-3.67601Y-28.45603
X1.66196Y1.77107G85X2.56196Y1.77107
X1.66197Y10.42109G85X2.562Y10.42109
X6.01203Y1.77101G85X6.61203Y1.77101
X6.01203Y10.42099G85X6.61203Y10.42099
X4.32896Y-14.99293G85X5.22896Y-14.99293
X4.32897Y-6.34291G85X5.229Y-6.34291
X8.67903Y-14.99298G85X9.27903Y-14.99298
X8.67903Y-6.34301G85X9.27903Y-6.34301
T03
X-31.18098Y-0.10008G85X-32.98095Y-0.10008
X-31.18098Y12.80008G85X-32.98095Y12.80008
X-29.14898Y-16.22908G85X-30.94895Y-16.22908
X-29.14898Y-3.32892G85X-30.94895Y-3.32892
M30