G04 Layer: TopSolderMaskLayer*
G04 EasyEDA Pro v2.2.47.7, 2026-05-29 08:57:24*
G04 Gerber Generator version 0.3*
G04 Scale: 100 percent, Rotated: No, Reflected: No*
G04 Dimensions in millimeters*
G04 Leading zeros omitted, absolute positions, 4 integers and 5 decimals*
G04 Generated by one-click*
G04 Object Configs: Pad,Via,Track,Text,Image,Dimension,BoardOutline,BoardCutout,CopperFilled,SolidRegion,FPCStiffener,Line,PlaneZone,ComponentProperty,ComponentSilkscreen,TearDrop*
G04 Layer Configs: 1,2,3,4,5,6,7,8,9,10,11,13,14,56*
G04 Copper Areas: 0*
%FSLAX45Y45*%
%MOMM*%
%AMRoundRect*1,1,$1,$2,$3*1,1,$1,$4,$5*1,1,$1,0-$2,0-$3*1,1,$1,0-$4,0-$5*20,1,$1,$2,$3,$4,$5,0*20,1,$1,$4,$5,0-$2,0-$3,0*20,1,$1,0-$2,0-$3,0-$4,0-$5,0*20,1,$1,0-$4,0-$5,$2,$3,0*4,1,4,$2,$3,$4,$5,0-$2,0-$3,0-$4,0-$5,$2,$3,0*%
%ADD10RoundRect,0.09131X-0.45514X-0.40514X-0.45514X0.40514*%
%ADD11RoundRect,0.09131X-0.40514X0.45514X0.40514X0.45514*%
%ADD12RoundRect,0.09138X-0.43711X-0.40835X-0.43711X0.40835*%
%ADD13RoundRect,0.0778X-0.61111X0.13612X0.61111X0.13612*%
%ADD14RoundRect,0.08669X-0.28168X0.55667X0.28168X0.55667*%
%ADD15RoundRect,0.08002X-0.16X0.56X0.16X0.56*%
%ADD16O,1.20002X2.10002*%
%ADD17O,1.3039X1.90002*%
%ADD18O,1.30002X1.90002*%
%ADD19RoundRect,0.08669X-0.55667X-0.28168X-0.55667X0.28168*%
%ADD20RoundRect,0.08002X-0.56X-0.16X-0.56X0.16*%
%ADD21O,2.10002X1.20002*%
%ADD22O,1.90002X1.30002*%
%ADD23RoundRect,0.0938X-1.4439X-0.56389X-1.4439X0.56389*%
%ADD24O,3.20159X1.3016*%
G75*


G04 Pad Start*
G54D10*
G01X-482600Y-1949298D03*
G01X-482600Y-2089302D03*
G54D11*
G01X-412902Y342900D03*
G01X-272898Y342900D03*
G01X-247802Y-1346200D03*
G01X-107798Y-1346200D03*
G01X-1936598Y1003300D03*
G01X-2076602Y1003300D03*
G01X-1707998Y-622300D03*
G01X-1848002Y-622300D03*
G01X-1610914Y1058311D03*
G01X-1470909Y1058311D03*
G01X-1610914Y880511D03*
G01X-1470909Y880511D03*
G01X-1610914Y715411D03*
G01X-1470909Y715411D03*
G01X-1610914Y537611D03*
G01X-1470909Y537611D03*
G01X-467609Y867811D03*
G01X-607614Y867811D03*
G01X-467609Y1045611D03*
G01X-607614Y1045611D03*
G54D12*
G01X-647700Y-2094636D03*
G01X-647700Y-1943964D03*
G01X-952500Y-2094636D03*
G01X-952500Y-1943964D03*
G01X-50800Y813664D03*
G01X-50800Y964336D03*
G01X-50800Y494436D03*
G01X-50800Y343764D03*
G01X203200Y-1181964D03*
G01X203200Y-1332636D03*
G01X203200Y-634136D03*
G01X203200Y-483464D03*
G54D13*
G01X-852902Y491815D03*
G01X-852902Y544825D03*
G01X-852902Y597809D03*
G01X-852902Y650819D03*
G01X-852902Y703804D03*
G01X-852902Y756813D03*
G01X-852902Y809823D03*
G01X-852902Y862808D03*
G01X-1212921Y862808D03*
G01X-1212921Y809823D03*
G01X-1212921Y756813D03*
G01X-1212921Y703804D03*
G01X-1212921Y650819D03*
G01X-1212921Y597809D03*
G01X-1212921Y544825D03*
G01X-1212921Y491815D03*
G54D14*
G01X-1120102Y-2340597D03*
G01X-1040092Y-2340597D03*
G54D15*
G01X-975093Y-2340597D03*
G01X-925081Y-2340597D03*
G01X-875093Y-2340597D03*
G01X-825106Y-2340597D03*
G01X-775094Y-2340597D03*
G01X-725106Y-2340597D03*
G01X-675094Y-2340597D03*
G01X-625081Y-2340597D03*
G54D14*
G01X-560083Y-2340597D03*
G01X-480098Y-2340597D03*
G54D16*
G01X-1232598Y-2395588D03*
G01X-367601Y-2395588D03*
G54D18*
G01X-1232598Y-2815603D03*
G01X-367601Y-2815603D03*
G54D19*
G01X156197Y289598D03*
G01X156197Y369608D03*
G54D20*
G01X156197Y434607D03*
G01X156197Y484619D03*
G01X156197Y534607D03*
G01X156197Y584594D03*
G01X156197Y634606D03*
G01X156197Y684594D03*
G01X156197Y734606D03*
G01X156197Y784619D03*
G54D19*
G01X156197Y849617D03*
G01X156197Y929602D03*
G54D21*
G01X211188Y177102D03*
G01X211188Y1042099D03*
G54D22*
G01X631203Y177102D03*
G01X631203Y1042099D03*
G54D19*
G01X422897Y-1386802D03*
G01X422897Y-1306792D03*
G54D20*
G01X422897Y-1241793D03*
G01X422897Y-1191781D03*
G01X422897Y-1141793D03*
G01X422897Y-1091806D03*
G01X422897Y-1041794D03*
G01X422897Y-991806D03*
G01X422897Y-941794D03*
G01X422897Y-891781D03*
G54D19*
G01X422897Y-826783D03*
G01X422897Y-746798D03*
G54D21*
G01X477888Y-1499298D03*
G01X477888Y-634301D03*
G54D22*
G01X897903Y-1499298D03*
G01X897903Y-634301D03*
G54D23*
G01X-2329104Y285013D03*
G01X-2329104Y535000D03*
G01X-2329104Y735000D03*
G01X-2329104Y984987D03*
G54D24*
G01X-3208096Y-10008D03*
G01X-3208096Y1280008D03*
G54D23*
G01X-2125904Y-1327887D03*
G01X-2125904Y-1077900D03*
G01X-2125904Y-877900D03*
G01X-2125904Y-627913D03*
G54D24*
G01X-3004896Y-1622908D03*
G01X-3004896Y-332892D03*
G04 Pad End*

M02*

