G04 Layer: DrillDrawingLayer*
G04 EasyEDA Pro v2.2.47.7, 2026-05-29 08:57:24*
G04 Gerber Generator version 0.3*
G04 Scale: 100 percent, Rotated: No, Reflected: No*
G04 Dimensions in millimeters*
G04 Leading zeros omitted, absolute positions, 4 integers and 5 decimals*
G04 Generated by one-click*
G04 Object Configs: Pad,Via,Track,Text,Image,Dimension,BoardOutline,BoardCutout,CopperFilled,SolidRegion,FPCStiffener,Line,PlaneZone,ComponentProperty,ComponentSilkscreen,TearDrop*
G04 Layer Configs: 1,2,3,4,5,6,7,8,9,10,11,13,14,56*
G04 Copper Areas: 0*
%FSLAX45Y45*%
%MOMM*%
%AMIconRect*4,1,4,0.28,-0.28,-0.28,-0.28,-0.28,0.28,0.28,0.28,0.28,-0.28,0*4,0,4,0.233333,-0.233333,0.233333,0.233333,-0.233333,0.233333,-0.233333,-0.233333,0.233333,-0.233333,0*%
%AMIconTriangle*4,1,3,-0.339593,0.240473,0.339593,0.240473,0,-0.37884,-0.339593,0.240473,0*4,0,3,-0.265673,0.19404,0,-0.27342,0.266233,0.19404,-0.265673,0.19404,0*%
%AMIconStar6*4,1,12,0.12068,0.20888,0.298527,0.172713,0.241313,0,0.298527,-0.17206,0.12068,-0.208227,0,-0.344073,-0.120073,-0.208227,-0.298573,-0.17206,-0.240707,0,-0.298573,0.17206,-0.120073,0.20888,0,0.344073,0.12068,0.20888,0*4,0,12,-0.000467,0.273467,-0.090067,0.171733,-0.237533,0.136733,-0.193667,-0.007467,-0.237533,-0.1372,-0.090067,-0.171733,-0.000467,-0.273933,0.090067,-0.171733,0.237533,-0.1372,0.194133,0.007,0.237533,0.1372,0.090067,0.171267,-0.000467,0.273467,0*%
%AMIconStar4*4,1,8,-0.311733,0.311733,0,0.202533,0.311733,0.311733,0.202533,0,0.311733,-0.311733,0,-0.202533,-0.304407,-0.311733,-0.202533,0,-0.311733,0.311733,0*4,0,8,0.233333,-0.233333,0.1512,0,0.233333,0.233333,0,0.1512,-0.233333,0.233333,-0.1512,0,-0.233333,-0.233333,0,-0.1512,0.233333,-0.233333,0*%
%AMIconPlus*4,1,12,0.1736,-0.28,-0.1736,-0.28,-0.1736,-0.1736,-0.28,-0.1736,-0.28,0.1736,-0.1736,0.1736,-0.1736,0.28,0.1736,0.28,0.1736,0.1736,0.28,0.1736,0.28,-0.1736,0.1736,-0.1736,0.1736,-0.28,0*4,0,12,0.126933,-0.233333,0.126933,-0.126933,0.233333,-0.126933,0.233333,0.126933,0.126933,0.126933,0.126933,0.233333,-0.126933,0.233333,-0.126933,0.126933,-0.233333,0.126933,-0.233333,-0.126933,-0.126933,-0.126933,-0.126933,-0.233333,0.126933,-0.233333,0*%
%ADD10IconRect*%
%ADD11C,0.616X0.522667*%
%ADD12IconTriangle*%
%ADD13IconStar6*%
%ADD14IconStar4*%
%ADD15IconPlus*%
G75*


G04 Drill Drawing Start*
G54D10*
G01X-3208096Y-10008D03*
G01X-3208096Y1280008D03*
G01X-3004896Y-1622908D03*
G01X-3004896Y-332892D03*
G54D11*
G01X-1232598Y-2395588D03*
G01X-367601Y-2395588D03*
G01X211188Y177102D03*
G01X211188Y1042099D03*
G01X477888Y-1499298D03*
G01X477888Y-634301D03*
G54D12*
G01X-1232598Y-2815603D03*
G01X-367601Y-2815603D03*
G01X631203Y177102D03*
G01X631203Y1042099D03*
G01X897903Y-1499298D03*
G01X897903Y-634301D03*
G54D13*
G01X-1089088Y-2447607D03*
G01X-511086Y-2447607D03*
G01X263208Y320612D03*
G01X263208Y898614D03*
G01X529908Y-1355788D03*
G01X529908Y-777786D03*
G54D14*
G01X-4457700Y2146300D03*
G01X-4394200Y-1612900D03*
G01X-1943100Y3314700D03*
G01X-381000Y3314700D03*
G01X2222500Y2501900D03*
G01X2552700Y-1257300D03*
G54D15*
G01X-3403600Y-1358900D03*
G01X-3060700Y-165100D03*
G01X-2882900Y-165100D03*
G01X-2329104Y38100D03*
G01X-1936598Y1244600D03*
G01X-1739900Y-1333500D03*
G01X-1689100Y-419100D03*
G01X-1676400Y1244600D03*
G01X-1508378Y390778D03*
G01X-1460500Y-2349500D03*
G01X-1454497Y336897D03*
G01X-1409700Y-2641600D03*
G01X-1289466Y343270D03*
G01X-1244725Y406293D03*
G01X-1168400Y-1930400D03*
G01X-1092200Y1016000D03*
G01X-850900Y1028700D03*
G01X-663445Y108715D03*
G01X-647700Y575388D03*
G01X-647700Y651588D03*
G01X-624640Y177672D03*
G01X-467199Y575388D03*
G01X-467199Y651588D03*
G01X-444500Y1231900D03*
G01X-429765Y-124965D03*
G01X-412902Y152400D03*
G01X-375884Y-71084D03*
G01X-330200Y749300D03*
G01X-317500Y-1739900D03*
G01X-317500Y-1498600D03*
G01X-279400Y-2603500D03*
G01X-190500Y-2395588D03*
G01X211188Y-12700D03*
G01X228600Y1219200D03*
G01X317500Y-1676400D03*
G01X508000Y-1841500D03*
G01X546100Y-419100D03*
G01X631203Y-63500D03*
G01X635000Y1244600D03*
G01X736600Y-444500D03*
G04 Drill Drawing End*

M02*

