G04 Layer: BottomLayer*
G04 EasyEDA Pro v2.2.47.7, 2026-05-29 08:57:24*
G04 Gerber Generator version 0.3*
G04 Scale: 100 percent, Rotated: No, Reflected: No*
G04 Dimensions in millimeters*
G04 Leading zeros omitted, absolute positions, 4 integers and 5 decimals*
G04 Generated by one-click*
G04 Object Configs: Pad,Via,Track,Text,Image,Dimension,BoardOutline,BoardCutout,CopperFilled,SolidRegion,FPCStiffener,Line,PlaneZone,ComponentProperty,ComponentSilkscreen,TearDrop*
G04 Layer Configs: 1,2,3,4,5,6,7,8,9,10,11,13,14,56*
G04 Copper Areas: 63*
%FSLAX45Y45*%
%MOMM*%
%ADD10C,0.2032*%
%ADD11C,0.254*%
%ADD12O,1.1X2.0*%
%ADD13O,1.2X1.8*%
%ADD14O,2.0X1.1*%
%ADD15O,1.8X1.2*%
%ADD16O,3.1069X1.2*%
%ADD17O,3.09999X1.2*%
%ADD18C,0.61*%
G75*


G04 Copper Start*
G36*
G01X-3303096Y85806D02*
G01X-3322671Y83785D01*
G01X-3341420Y77808D01*
G01X-3358553Y68126D01*
G01X-3373346Y55148D01*
G01X-3385176Y39421D01*
G01X-3393543Y21610D01*
G01X-3398095Y2464D01*
G01X-3398639Y-17207D01*
G01X-3395153Y-36575D01*
G01X-3387783Y-54822D01*
G01X-3376841Y-71179D01*
G01X-3472972Y-26318D01*
G01X-3493527Y97010D01*
G01X-3496594Y110843D01*
G01X-729725Y110843D01*
G01X-728543Y96070D01*
G01X-724109Y81929D01*
G01X-716645Y69125D01*
G01X-706524Y58299D01*
G01X-694252Y49991D01*
G01X-680441Y44616D01*
G01X-665782Y42442D01*
G01X-658223Y34883D01*
G01X-648175Y27173D01*
G01X-636474Y22326D01*
G01X-623918Y20673D01*
G01X-618868Y20673D01*
G01X-517807Y-80388D01*
G01X-517807Y-85438D01*
G01X-516154Y-97994D01*
G01X-511307Y-109695D01*
G01X-503597Y-119743D01*
G01X-496038Y-127302D01*
G01X-493503Y-143270D01*
G01X-487179Y-158149D01*
G01X-477442Y-171057D01*
G01X-464872Y-181224D01*
G01X-450214Y-188048D01*
G01X-434341Y-191121D01*
G01X-418196Y-190262D01*
G01X-402739Y-185522D01*
G01X-388888Y-177182D01*
G01X-377467Y-165738D01*
G01X-369155Y-151871D01*
G01X-364445Y-136404D01*
G01X-348978Y-131694D01*
G01X-335111Y-123382D01*
G01X-323667Y-111961D01*
G01X-315327Y-98110D01*
G01X-310587Y-82653D01*
G01X-309728Y-66508D01*
G01X-312801Y-50635D01*
G01X-319625Y-35977D01*
G01X-329792Y-23406D01*
G01X-342699Y-13670D01*
G01X-357579Y-7346D01*
G01X-373547Y-4811D01*
G01X-381106Y2748D01*
G01X-391154Y10458D01*
G01X-402855Y15305D01*
G01X-415411Y16958D01*
G01X-420461Y16958D01*
G01X-536598Y133095D01*
G01X-536598Y138145D01*
G01X-538251Y150701D01*
G01X-543098Y162402D01*
G01X-550808Y172449D01*
G01X-558367Y180009D01*
G01X-559367Y186594D01*
G01X75872Y186594D01*
G01X75872Y167609D01*
G01X79819Y149038D01*
G01X87541Y131695D01*
G01X98701Y116335D01*
G01X112809Y103632D01*
G01X129251Y94139D01*
G01X147307Y88272D01*
G01X166188Y86288D01*
G01X256188Y86288D01*
G01X274759Y88207D01*
G01X292545Y93883D01*
G01X308794Y103076D01*
G01X322820Y115398D01*
G01X334030Y130327D01*
G01X341950Y147234D01*
G01X346245Y165402D01*
G01X346552Y177102D01*
G01X505389Y177102D01*
G01X507230Y158409D01*
G01X512682Y140435D01*
G01X521536Y123870D01*
G01X533452Y109351D01*
G01X547971Y97435D01*
G01X564536Y88581D01*
G01X582510Y83129D01*
G01X601203Y81288D01*
G01X601203Y81288D01*
G01X661203Y81288D01*
G01X679895Y83129D01*
G01X697869Y88581D01*
G01X714434Y97435D01*
G01X728953Y109351D01*
G01X740869Y123870D01*
G01X749723Y140435D01*
G01X755175Y158409D01*
G01X757017Y177102D01*
G01X755175Y195794D01*
G01X749723Y213768D01*
G01X740869Y230333D01*
G01X728953Y244852D01*
G01X714434Y256768D01*
G01X697869Y265622D01*
G01X679895Y271074D01*
G01X661203Y272915D01*
G01X601203Y272915D01*
G01X582510Y271074D01*
G01X564536Y265622D01*
G01X547971Y256768D01*
G01X533452Y244852D01*
G01X521536Y230333D01*
G01X512682Y213768D01*
G01X507230Y195794D01*
G01X505389Y177102D01*
G01X346552Y177102D01*
G01X346735Y184066D01*
G01X343397Y202434D01*
G01X336374Y219733D01*
G01X325962Y235229D01*
G01X312601Y248269D01*
G01X296855Y258301D01*
G01X310166Y267605D01*
G01X321007Y279697D01*
G01X328809Y293941D01*
G01X333159Y309588D01*
G01X333831Y325815D01*
G01X330789Y341768D01*
G01X324192Y356608D01*
G01X314387Y369555D01*
G01X301891Y379927D01*
G01X287360Y387181D01*
G01X271559Y390933D01*
G01X255319Y390986D01*
G01X239493Y387338D01*
G01X224915Y380181D01*
G01X212351Y369890D01*
G01X202462Y357008D01*
G01X195767Y342212D01*
G01X192619Y326279D01*
G01X193184Y310049D01*
G01X197432Y294374D01*
G01X205140Y280079D01*
G01X215901Y267915D01*
G01X166188Y267915D01*
G01X166188Y267915D01*
G01X147307Y265931D01*
G01X129251Y260064D01*
G01X112809Y250571D01*
G01X98701Y237868D01*
G01X87541Y222508D01*
G01X79819Y205165D01*
G01X75872Y186594D01*
G01X-559367Y186594D01*
G01X-560661Y195115D01*
G01X-566352Y209296D01*
G01X-575137Y221798D01*
G01X-586551Y231957D01*
G01X-599987Y239234D01*
G01X-614732Y243242D01*
G01X-630003Y243769D01*
G01X-630003Y243769D01*
G01X-644989Y240787D01*
G01X-658895Y234454D01*
G01X-670982Y225106D01*
G01X-680608Y213240D01*
G01X-687263Y199485D01*
G01X-690594Y184573D01*
G01X-690422Y169294D01*
G01X-703202Y161790D01*
G01X-713996Y151635D01*
G01X-722266Y139337D01*
G01X-727597Y125509D01*
G01X-729725Y110843D01*
G01X-3496594Y110843D01*
G01X-3498942Y121430D01*
G01X-3536045Y254833D01*
G01X-3545681Y282631D01*
G01X-3558703Y309013D01*
G01X-3574910Y333568D01*
G01X-3597893Y364046D01*
G01X-3600953Y367579D01*
G01X-3626125Y395354D01*
G01X-1574534Y395354D01*
G01X-1573676Y379209D01*
G01X-1568935Y363752D01*
G01X-1560595Y349901D01*
G01X-1549151Y338480D01*
G01X-1535284Y330168D01*
G01X-1519817Y325458D01*
G01X-1515108Y309992D01*
G01X-1506795Y296124D01*
G01X-1495374Y284680D01*
G01X-1481524Y276340D01*
G01X-1466066Y271600D01*
G01X-1449921Y270741D01*
G01X-1434048Y273815D01*
G01X-1419390Y280638D01*
G01X-1406820Y290805D01*
G01X-1397083Y303713D01*
G01X-1390759Y318593D01*
G01X-1388224Y334560D01*
G01X-1380665Y342120D01*
G01X-1374767Y349270D01*
G01X-1370336Y357412D01*
G01X-1363298Y348493D01*
G01X-1355739Y340934D01*
G01X-1353595Y326385D01*
G01X-1348296Y312666D01*
G01X-1340105Y300453D01*
G01X-1329423Y290345D01*
G01X-1316776Y282840D01*
G01X-1302785Y278307D01*
G01X-1288140Y276969D01*
G01X-1273560Y278892D01*
G01X-1259763Y283981D01*
G01X-1247426Y291985D01*
G01X-1237157Y302512D01*
G01X-1229460Y315043D01*
G01X-1224714Y328962D01*
G01X-1223153Y343585D01*
G01X-1209355Y350199D01*
G01X-1197440Y359799D01*
G01X-1188043Y371874D01*
G01X-1181663Y385782D01*
G01X-1178641Y400781D01*
G01X-1179137Y416074D01*
G01X-1183125Y430847D01*
G01X-1190392Y444312D01*
G01X-1200552Y455753D01*
G01X-1213064Y464560D01*
G01X-1227262Y470266D01*
G01X-1242389Y472565D01*
G01X-1249948Y480125D01*
G01X-1259996Y487834D01*
G01X-1271696Y492681D01*
G01X-1284253Y494334D01*
G01X-1289303Y494334D01*
G01X-1304957Y509988D01*
G01X-1315004Y517698D01*
G01X-1326705Y522545D01*
G01X-1339261Y524198D01*
G01X-1398329Y524198D01*
G01X-1410885Y522545D01*
G01X-1422586Y517698D01*
G01X-1432633Y509988D01*
G01X-1463801Y478820D01*
G01X-1463801Y478820D01*
G01X-1468851Y478820D01*
G01X-1481408Y477167D01*
G01X-1493108Y472320D01*
G01X-1503156Y464610D01*
G01X-1510715Y457051D01*
G01X-1526683Y454516D01*
G01X-1541563Y448192D01*
G01X-1554470Y438456D01*
G01X-1564638Y425885D01*
G01X-1571461Y411227D01*
G01X-1574534Y395354D01*
G01X-3626125Y395354D01*
G01X-3630352Y400019D01*
G01X-3656700Y434982D01*
G01X-3679781Y472182D01*
G01X-3679781Y472182D01*
G01X-3679781Y472182D01*
G01X-3732459Y567370D01*
G01X-713528Y567370D01*
G01X-709631Y551679D01*
G01X-702053Y537397D01*
G01X-691244Y525373D01*
G01X-677846Y516322D01*
G01X-662657Y510783D01*
G01X-646579Y509083D01*
G01X-630567Y511325D01*
G01X-615574Y517375D01*
G01X-602490Y526874D01*
G01X-512409Y526874D01*
G01X-499326Y517375D01*
G01X-484332Y511325D01*
G01X-468321Y509083D01*
G01X-452242Y510783D01*
G01X-437053Y516322D01*
G01X-423656Y525373D01*
G01X-412847Y537397D01*
G01X-405268Y551679D01*
G01X-401372Y567370D01*
G01X-401388Y583538D01*
G01X-405316Y599221D01*
G01X-412923Y613488D01*
G01X-405316Y627755D01*
G01X-401388Y643438D01*
G01X-401372Y659606D01*
G01X-405268Y675298D01*
G01X-412847Y689580D01*
G01X-423656Y701603D01*
G01X-423656Y701603D01*
G01X-437053Y710654D01*
G01X-452242Y716194D01*
G01X-468321Y717893D01*
G01X-484332Y715651D01*
G01X-499326Y709601D01*
G01X-512409Y700102D01*
G01X-602490Y700102D01*
G01X-615574Y709601D01*
G01X-630567Y715651D01*
G01X-646579Y717893D01*
G01X-662657Y716194D01*
G01X-677846Y710654D01*
G01X-691244Y701603D01*
G01X-702053Y689580D01*
G01X-709631Y675298D01*
G01X-713528Y659606D01*
G01X-713511Y643438D01*
G01X-709583Y627755D01*
G01X-701976Y613488D01*
G01X-709583Y599221D01*
G01X-713511Y583538D01*
G01X-713528Y567370D01*
G01X-3732459Y567370D01*
G01X-3776450Y646862D01*
G01X-3871493Y822431D01*
G01X-3871493Y822431D01*
G01X-3938476Y944998D01*
G01X-4007564Y1066391D01*
G01X-4078735Y1186574D01*
G01X-4141244Y1286797D01*
G01X-4206608Y1385180D01*
G01X-4274775Y1481644D01*
G01X-4340296Y1568637D01*
G01X-4408563Y1653493D01*
G01X-4479506Y1736125D01*
G01X-4554693Y1818424D01*
G01X-4632291Y1898453D01*
G01X-4712232Y1976142D01*
G01X-4786096Y2044079D01*
G01X-4861653Y2110130D01*
G01X-4905200Y2146300D01*
G01X-4628514Y2146300D01*
G01X-4626606Y2120841D01*
G01X-4620925Y2095952D01*
G01X-4611598Y2072187D01*
G01X-4598833Y2050077D01*
G01X-4582916Y2030117D01*
G01X-4564201Y2012752D01*
G01X-4543107Y1998371D01*
G01X-4520105Y1987294D01*
G01X-4495710Y1979769D01*
G01X-4470465Y1975964D01*
G01X-4444935Y1975964D01*
G01X-4419690Y1979769D01*
G01X-4395295Y1987294D01*
G01X-4372293Y1998371D01*
G01X-4351199Y2012752D01*
G01X-4332484Y2030117D01*
G01X-4316567Y2050077D01*
G01X-4303802Y2072187D01*
G01X-4294475Y2095952D01*
G01X-4288794Y2120841D01*
G01X-4286886Y2146300D01*
G01X-4288794Y2171759D01*
G01X-4294475Y2196648D01*
G01X-4303802Y2220413D01*
G01X-4316567Y2242523D01*
G01X-4332484Y2262483D01*
G01X-4351199Y2279848D01*
G01X-4372293Y2294229D01*
G01X-4395295Y2305306D01*
G01X-4419690Y2312831D01*
G01X-4444935Y2316636D01*
G01X-4470465Y2316636D01*
G01X-4495710Y2312831D01*
G01X-4520105Y2305306D01*
G01X-4543107Y2294229D01*
G01X-4564201Y2279848D01*
G01X-4582916Y2262483D01*
G01X-4598833Y2242523D01*
G01X-4611598Y2220413D01*
G01X-4620925Y2196648D01*
G01X-4626606Y2171759D01*
G01X-4628514Y2146300D01*
G01X-4628514Y2146300D01*
G01X-4905200Y2146300D01*
G01X-4938853Y2174251D01*
G01X-4982712Y2207988D01*
G01X-5028189Y2239507D01*
G01X-5075174Y2268733D01*
G01X-5123551Y2295592D01*
G01X-5163418Y2314702D01*
G01X-5204525Y2330974D01*
G01X-5246671Y2344327D01*
G01X-5289648Y2354696D01*
G01X-5330704Y2361182D01*
G01X-5372177Y2363948D01*
G01X-5413731Y2362973D01*
G01X-5455029Y2358264D01*
G01X-5485205Y2355161D01*
G01X-5515539Y2355453D01*
G01X-5545649Y2359139D01*
G01X-5575159Y2366171D01*
G01X-5603695Y2376461D01*
G01X-5628135Y2388868D01*
G01X-5650678Y2404456D01*
G01X-5670915Y2422941D01*
G01X-5688476Y2443985D01*
G01X-5703039Y2467203D01*
G01X-5714766Y2492951D01*
G01X-5723043Y2520006D01*
G01X-5727729Y2547908D01*
G01X-5728746Y2576182D01*
G01X-5726075Y2604349D01*
G01X-5719382Y2635469D01*
G01X-5709489Y2665724D01*
G01X-5696503Y2694787D01*
G01X-5680565Y2722341D01*
G01X-5661848Y2748089D01*
G01X-5641807Y2771368D01*
G01X-5620399Y2793399D01*
G01X-5612187Y2799511D01*
G01X-5602682Y2803311D01*
G01X-5593311Y2804395D01*
G01X-5583992Y2802931D01*
G01X-5556705Y2793725D01*
G01X-5530109Y2782684D01*
G01X-5512183Y2772942D01*
G01X-5495801Y2760782D01*
G01X-5474356Y2740994D01*
G01X-5454409Y2719696D01*
G01X-5434831Y2695527D01*
G01X-5417010Y2670035D01*
G01X-5402914Y2645979D01*
G01X-5391025Y2620759D01*
G01X-5374889Y2585557D01*
G01X-5356398Y2551534D01*
G01X-5335637Y2518846D01*
G01X-5320217Y2498372D01*
G01X-5302996Y2479390D01*
G01X-5284116Y2462055D01*
G01X-5263736Y2446514D01*
G01X-5232757Y2427365D01*
G01X-5199952Y2411551D01*
G01X-5165676Y2399242D01*
G01X-5120326Y2386555D01*
G01X-5074509Y2375671D01*
G01X-5028299Y2366605D01*
G01X-4984307Y2360232D01*
G01X-4940011Y2356517D01*
G01X-4895571Y2355474D01*
G01X-4874976Y2357143D01*
G01X-4854854Y2361839D01*
G01X-4835648Y2369460D01*
G01X-4817780Y2379836D01*
G01X-4801643Y2392741D01*
G01X-4787712Y2407873D01*
G01X-4776299Y2424983D01*
G01X-4767679Y2443657D01*
G01X-4762062Y2463443D01*
G01X-4759584Y2483861D01*
G01X-4759187Y2526622D01*
G01X-4761659Y2569314D01*
G01X-4766990Y2611744D01*
G01X-4777183Y2666989D01*
G01X-4790002Y2721685D01*
G01X-4805417Y2775707D01*
G01X-4822610Y2825674D01*
G01X-4842725Y2874537D01*
G01X-4865691Y2922128D01*
G01X-4888059Y2961851D01*
G01X-4913051Y2999978D01*
G01X-4940554Y3036336D01*
G01X-4959780Y3057432D01*
G01X-4981309Y3076173D01*
G01X-5004855Y3092308D01*
G01X-5030103Y3105621D01*
G01X-5047071Y3114382D01*
G01X-5063099Y3124762D01*
G01X-5083590Y3140362D01*
G01X-5103210Y3157044D01*
G01X-5122537Y3175346D01*
G01X-5140862Y3194652D01*
G01X-5155289Y3211969D01*
G01X-5168353Y3230337D01*
G01X-5183393Y3254967D01*
G01X-5196835Y3280503D01*
G01X-5202100Y3294470D01*
G01X-5204715Y3309165D01*
G01X-5204496Y3322532D01*
G01X-5201619Y3335588D01*
G01X-5192938Y3358719D01*
G01X-5182348Y3381041D01*
G01X-5162505Y3415100D01*
G01X-5139297Y3448291D01*
G01X-5116595Y3475735D01*
G01X-5110461Y3481757D01*
G01X-5103624Y3486968D01*
G01X-5084709Y3497405D01*
G01X-5064309Y3504513D01*
G01X-5043004Y3508089D01*
G01X-5003831Y3510238D01*
G01X-4964599Y3510269D01*
G01X-4925423Y3508183D01*
G01X-4886628Y3504013D01*
G01X-4848113Y3497768D01*
G01X-4809989Y3489464D01*
G01X-4790868Y3482871D01*
G01X-4773249Y3472938D01*
G01X-4757710Y3459990D01*
G01X-4742967Y3442450D01*
G01X-4731460Y3422637D01*
G01X-4723531Y3401140D01*
G01X-4715858Y3367662D01*
G01X-4710997Y3333661D01*
G01X-4708980Y3299374D01*
G01X-4709823Y3263712D01*
G01X-4713567Y3228236D01*
G01X-4720188Y3193184D01*
G01X-4728251Y3166623D01*
G01X-4739807Y3141385D01*
G01X-4754646Y3117928D01*
G01X-4766886Y3099014D01*
G01X-4776895Y3078832D01*
G01X-4784544Y3057642D01*
G01X-4789176Y3035951D01*
G01X-4790336Y3013800D01*
G01X-4787995Y2991744D01*
G01X-4782097Y2966032D01*
G01X-4774124Y2940886D01*
G01X-4764129Y2916473D01*
G01X-4734405Y2853161D01*
G01X-4703467Y2790434D01*
G01X-4703467Y2790434D01*
G01X-4661869Y2712190D01*
G01X-4617053Y2635743D01*
G01X-4569095Y2561228D01*
G01X-4547957Y2533128D01*
G01X-4524000Y2507389D01*
G01X-4497487Y2484292D01*
G01X-4468708Y2464090D01*
G01X-4437976Y2447002D01*
G01X-4418677Y2439333D01*
G01X-4398431Y2434709D01*
G01X-4377716Y2433242D01*
G01X-4357020Y2434964D01*
G01X-4336833Y2439837D01*
G01X-4317630Y2447743D01*
G01X-4299864Y2458498D01*
G01X-4275453Y2477975D01*
G01X-4253205Y2499891D01*
G01X-4233361Y2524005D01*
G01X-4216139Y2550057D01*
G01X-4201725Y2577761D01*
G01X-4188818Y2610465D01*
G01X-4179351Y2644325D01*
G01X-4175528Y2666199D01*
G01X-4173818Y2688339D01*
G01X-4174236Y2710540D01*
G01X-4178752Y2747629D01*
G01X-4187266Y2784010D01*
G01X-4202356Y2832463D01*
G01X-4219149Y2880353D01*
G01X-4236161Y2931053D01*
G01X-4249978Y2982715D01*
G01X-4260548Y3035139D01*
G01X-4262931Y3058983D01*
G01X-4262054Y3082929D01*
G01X-4257933Y3106534D01*
G01X-4250644Y3129361D01*
G01X-4242915Y3144477D01*
G01X-4232457Y3157852D01*
G01X-4219650Y3168998D01*
G01X-4204960Y3177510D01*
G01X-4181587Y3186738D01*
G01X-4157359Y3193405D01*
G01X-4132556Y3197437D01*
G01X-4107464Y3198786D01*
G01X-4077995Y3196792D01*
G01X-4049062Y3190846D01*
G01X-4021194Y3181057D01*
G01X-3994900Y3167603D01*
G01X-3970657Y3150729D01*
G01X-3947497Y3129732D01*
G01X-3927056Y3106080D01*
G01X-3909636Y3080122D01*
G01X-3895495Y3052242D01*
G01X-3884841Y3022852D01*
G01X-3877435Y2991086D01*
G01X-3873747Y2958676D01*
G01X-3873827Y2926058D01*
G01X-3877674Y2893667D01*
G01X-3885236Y2861937D01*
G01X-3896234Y2832031D01*
G01X-3910766Y2803675D01*
G01X-3928619Y2777282D01*
G01X-3949532Y2753241D01*
G01X-3973197Y2731904D01*
G01X-3996430Y2712158D01*
G01X-4018383Y2690998D01*
G01X-4038969Y2668506D01*
G01X-4055336Y2647016D01*
G01X-4069061Y2623750D01*
G01X-4079953Y2599030D01*
G01X-4089520Y2569753D01*
G01X-4096702Y2539800D01*
G01X-4101453Y2509368D01*
G01X-4108977Y2435755D01*
G01X-4114621Y2361973D01*
G01X-4118482Y2291505D01*
G01X-4121095Y2220980D01*
G01X-4120921Y2194014D01*
G01X-4118881Y2167126D01*
G01X-4114986Y2140443D01*
G01X-4109720Y2120248D01*
G01X-4101476Y2101076D01*
G01X-4090443Y2083361D01*
G01X-4076397Y2067598D01*
G01X-4059619Y2054782D01*
G01X-4040716Y2045376D01*
G01X-4023062Y2040276D01*
G01X-4004800Y2038240D01*
G01X-3986456Y2039329D01*
G01X-3968746Y2043098D01*
G01X-3951677Y2049139D01*
G01X-3935538Y2057350D01*
G01X-3918119Y2068766D01*
G01X-3901779Y2081679D01*
G01X-3886645Y2095987D01*
G01X-3860736Y2124199D01*
G01X-3836344Y2153733D01*
G01X-3812634Y2181764D01*
G01X-3786863Y2207912D01*
G01X-3759180Y2232027D01*
G01X-3745463Y2241585D01*
G01X-3730548Y2249136D01*
G01X-3714725Y2254532D01*
G01X-3698303Y2257669D01*
G01X-3680864Y2257736D01*
G01X-3663867Y2253832D01*
G01X-3648206Y2246161D01*
G01X-3626862Y2230427D01*
G01X-3607735Y2212062D01*
G01X-3591146Y2191376D01*
G01X-3574778Y2165151D01*
G01X-3561279Y2137340D01*
G01X-3550801Y2108256D01*
G01X-3543812Y2079201D01*
G01X-3540157Y2049542D01*
G01X-3539882Y2019660D01*
G01X-3542890Y1991884D01*
G01X-3549220Y1964672D01*
G01X-3558780Y1938420D01*
G01X-3570557Y1915827D01*
G01X-3585410Y1895127D01*
G01X-3603042Y1876735D01*
G01X-3625709Y1857719D01*
G01X-3649738Y1840455D01*
G01X-3658338Y1836409D01*
G01X-3667739Y1835007D01*
G01X-3684599Y1836581D01*
G01X-3700855Y1841324D01*
G01X-3749351Y1861278D01*
G01X-3797392Y1882304D01*
G01X-3831478Y1896112D01*
G01X-3866531Y1907241D01*
G01X-3902340Y1915624D01*
G01X-3938691Y1921210D01*
G01X-3975365Y1923966D01*
G01X-3997741Y1922924D01*
G01X-4019639Y1918209D01*
G01X-4040461Y1909950D01*
G01X-4059638Y1898372D01*
G01X-4076643Y1883792D01*
G01X-4091014Y1866608D01*
G01X-4102356Y1847292D01*
G01X-4113021Y1820948D01*
G01X-4120265Y1793466D01*
G01X-4123972Y1765288D01*
G01X-4124081Y1736867D01*
G01X-4120591Y1708662D01*
G01X-4113558Y1681125D01*
G01X-4094025Y1625774D01*
G01X-4071672Y1571501D01*
G01X-4046557Y1518449D01*
G01X-4018748Y1466759D01*
G01X-3981485Y1404146D01*
G01X-3942052Y1342877D01*
G01X-3900497Y1283026D01*
G01X-3900497Y1283026D01*
G01X-3814687Y1166595D01*
G01X-3726400Y1052031D01*
G01X-3726400Y1052031D01*
G01X-3694118Y994116D01*
G01X-3659908Y937317D01*
G01X-3623809Y881700D01*
G01X-3615975Y873343D01*
G01X-3605904Y867887D01*
G01X-3594625Y865890D01*
G01X-3583292Y867556D01*
G01X-3573065Y872715D01*
G01X-3564989Y880838D01*
G01X-3559892Y891096D01*
G01X-3548528Y933054D01*
G01X-3540218Y975723D01*
G01X-3535008Y1018879D01*
G01X-3533437Y1051591D01*
G01X75872Y1051591D01*
G01X75872Y1032606D01*
G01X79819Y1014035D01*
G01X87541Y996692D01*
G01X98701Y981332D01*
G01X112809Y968629D01*
G01X129251Y959136D01*
G01X147307Y953269D01*
G01X166188Y951285D01*
G01X215873Y951285D01*
G01X205120Y939118D01*
G01X197420Y924822D01*
G01X193180Y909148D01*
G01X192622Y892920D01*
G01X195774Y876992D01*
G01X202472Y862200D01*
G01X212363Y849323D01*
G01X224927Y839037D01*
G01X239504Y831884D01*
G01X255327Y828239D01*
G01X271564Y828294D01*
G01X287362Y832046D01*
G01X301890Y839297D01*
G01X314385Y849668D01*
G01X324188Y862612D01*
G01X330786Y877448D01*
G01X333830Y893398D01*
G01X333162Y909622D01*
G01X328816Y925267D01*
G01X321020Y939510D01*
G01X310185Y951604D01*
G01X296880Y960911D01*
G01X312620Y970947D01*
G01X325976Y983989D01*
G01X336384Y999486D01*
G01X343402Y1016784D01*
G01X346736Y1035151D01*
G01X346553Y1042099D01*
G01X505389Y1042099D01*
G01X507230Y1023406D01*
G01X512682Y1005432D01*
G01X521536Y988867D01*
G01X533452Y974348D01*
G01X547971Y962432D01*
G01X564536Y953578D01*
G01X582510Y948126D01*
G01X601203Y946285D01*
G01X601203Y946285D01*
G01X661203Y946285D01*
G01X679895Y948126D01*
G01X697869Y953578D01*
G01X714434Y962432D01*
G01X728953Y974348D01*
G01X740869Y988867D01*
G01X749723Y1005432D01*
G01X755175Y1023406D01*
G01X757017Y1042099D01*
G01X755175Y1060791D01*
G01X749723Y1078765D01*
G01X740869Y1095330D01*
G01X728953Y1109849D01*
G01X714434Y1121765D01*
G01X697869Y1130619D01*
G01X679895Y1136071D01*
G01X661203Y1137912D01*
G01X601203Y1137912D01*
G01X582510Y1136071D01*
G01X564536Y1130619D01*
G01X547971Y1121765D01*
G01X533452Y1109849D01*
G01X521536Y1095330D01*
G01X512682Y1078765D01*
G01X507230Y1060791D01*
G01X505389Y1042099D01*
G01X346553Y1042099D01*
G01X346243Y1053812D01*
G01X341946Y1071978D01*
G01X334025Y1088882D01*
G01X322814Y1103808D01*
G01X308789Y1116128D01*
G01X292541Y1125319D01*
G01X274757Y1130994D01*
G01X256188Y1132912D01*
G01X256188Y1132912D01*
G01X166188Y1132912D01*
G01X147307Y1130928D01*
G01X129251Y1125061D01*
G01X112809Y1115568D01*
G01X98701Y1102865D01*
G01X87541Y1087505D01*
G01X79819Y1070162D01*
G01X75872Y1051591D01*
G01X-3533437Y1051591D01*
G01X-3532922Y1062299D01*
G01X-3516674Y1134329D01*
G01X-3503174Y1206925D01*
G01X-3492442Y1279982D01*
G01X-3492439Y1280008D01*
G01X-3398910Y1280008D01*
G01X-3397069Y1261315D01*
G01X-3391616Y1243341D01*
G01X-3382762Y1226776D01*
G01X-3370847Y1212257D01*
G01X-3356327Y1200341D01*
G01X-3339762Y1191487D01*
G01X-3321788Y1186035D01*
G01X-3303096Y1184194D01*
G01X-3113096Y1184194D01*
G01X-3094404Y1186035D01*
G01X-3076430Y1191487D01*
G01X-3059865Y1200341D01*
G01X-3045346Y1212257D01*
G01X-3033430Y1226776D01*
G01X-3024576Y1243341D01*
G01X-3019124Y1261315D01*
G01X-3017283Y1280008D01*
G01X-3019124Y1298700D01*
G01X-3024576Y1316674D01*
G01X-3033430Y1333239D01*
G01X-3045346Y1347758D01*
G01X-3059865Y1359674D01*
G01X-3076430Y1368528D01*
G01X-3094404Y1373980D01*
G01X-3113096Y1375821D01*
G01X-3113096Y1375821D01*
G01X-3303096Y1375821D01*
G01X-3321788Y1373980D01*
G01X-3339762Y1368528D01*
G01X-3356327Y1359674D01*
G01X-3370847Y1347758D01*
G01X-3382762Y1333239D01*
G01X-3391616Y1316674D01*
G01X-3397069Y1298700D01*
G01X-3398910Y1280008D01*
G01X-3492439Y1280008D01*
G01X-3484494Y1353393D01*
G01X-3484494Y1353393D01*
G01X-3303375Y1383674D01*
G01X-3122601Y1415954D01*
G01X-2942195Y1450229D01*
G01X-2942195Y1450229D01*
G01X-2942195Y1450229D01*
G01X-2802565Y1457143D01*
G01X-2663064Y1466291D01*
G01X-2523726Y1477670D01*
G01X-2523726Y1477670D01*
G01X-2523726Y1477670D01*
G01X-2513454Y1480158D01*
G01X-2504355Y1485535D01*
G01X-2454443Y1527568D01*
G01X-2406079Y1571372D01*
G01X-2359325Y1616890D01*
G01X-2314242Y1664064D01*
G01X-2314242Y1664064D01*
G01X-2279811Y1703346D01*
G01X-2247390Y1744302D01*
G01X-2214842Y1789469D01*
G01X-2184140Y1835912D01*
G01X-2157346Y1880272D01*
G01X-2132402Y1925698D01*
G01X-2115128Y1963018D01*
G01X-2101514Y2001824D01*
G01X-2092306Y2037626D01*
G01X-2085817Y2074019D01*
G01X-2082083Y2110797D01*
G01X-2081525Y2145873D01*
G01X-2084308Y2180842D01*
G01X-2090406Y2215388D01*
G01X-2101923Y2261276D01*
G01X-2115583Y2306572D01*
G01X-2131356Y2351177D01*
G01X-2184030Y2487803D01*
G01X-2237953Y2623941D01*
G01X-2237953Y2623941D01*
G01X-2300546Y2784708D01*
G01X-2359774Y2946744D01*
G01X-2415612Y3109980D01*
G01X-2415612Y3109980D01*
G01X-2415612Y3109980D01*
G01X-2426717Y3148180D01*
G01X-2435027Y3187084D01*
G01X-2440498Y3226488D01*
G01X-2443100Y3266184D01*
G01X-2442821Y3305965D01*
G01X-2442125Y3314700D01*
G01X-2113914Y3314700D01*
G01X-2112006Y3289241D01*
G01X-2106325Y3264352D01*
G01X-2096998Y3240587D01*
G01X-2084233Y3218477D01*
G01X-2068316Y3198517D01*
G01X-2049601Y3181152D01*
G01X-2028507Y3166771D01*
G01X-2005505Y3155694D01*
G01X-1981110Y3148169D01*
G01X-1955865Y3144364D01*
G01X-1930335Y3144364D01*
G01X-1905090Y3148169D01*
G01X-1880695Y3155694D01*
G01X-1857693Y3166771D01*
G01X-1836599Y3181152D01*
G01X-1817884Y3198517D01*
G01X-1801967Y3218477D01*
G01X-1789202Y3240587D01*
G01X-1779875Y3264352D01*
G01X-1774194Y3289241D01*
G01X-1772286Y3314700D01*
G01X-551814Y3314700D01*
G01X-549906Y3289241D01*
G01X-544225Y3264352D01*
G01X-534898Y3240587D01*
G01X-522133Y3218477D01*
G01X-506216Y3198517D01*
G01X-487501Y3181152D01*
G01X-466407Y3166771D01*
G01X-443405Y3155694D01*
G01X-419010Y3148169D01*
G01X-393765Y3144364D01*
G01X-368235Y3144364D01*
G01X-342990Y3148169D01*
G01X-318595Y3155694D01*
G01X-295593Y3166771D01*
G01X-274499Y3181152D01*
G01X-255784Y3198517D01*
G01X-239867Y3218477D01*
G01X-227102Y3240587D01*
G01X-217775Y3264352D01*
G01X-212094Y3289241D01*
G01X-210186Y3314700D01*
G01X-212094Y3340159D01*
G01X-217775Y3365048D01*
G01X-227102Y3388813D01*
G01X-239867Y3410923D01*
G01X-255784Y3430883D01*
G01X-274499Y3448248D01*
G01X-295593Y3462629D01*
G01X-318595Y3473706D01*
G01X-342990Y3481231D01*
G01X-368235Y3485036D01*
G01X-393765Y3485036D01*
G01X-419010Y3481231D01*
G01X-443405Y3473706D01*
G01X-466407Y3462629D01*
G01X-487501Y3448248D01*
G01X-506216Y3430883D01*
G01X-522133Y3410923D01*
G01X-534898Y3388813D01*
G01X-544225Y3365048D01*
G01X-549906Y3340159D01*
G01X-551814Y3314700D01*
G01X-551814Y3314700D01*
G01X-1772286Y3314700D01*
G01X-1774194Y3340159D01*
G01X-1779875Y3365048D01*
G01X-1789202Y3388813D01*
G01X-1801967Y3410923D01*
G01X-1817884Y3430883D01*
G01X-1836599Y3448248D01*
G01X-1857693Y3462629D01*
G01X-1880695Y3473706D01*
G01X-1905090Y3481231D01*
G01X-1930335Y3485036D01*
G01X-1955865Y3485036D01*
G01X-1981110Y3481231D01*
G01X-2005505Y3473706D01*
G01X-2028507Y3462629D01*
G01X-2049601Y3448248D01*
G01X-2068316Y3430883D01*
G01X-2084233Y3410923D01*
G01X-2096998Y3388813D01*
G01X-2106325Y3365048D01*
G01X-2112006Y3340159D01*
G01X-2113914Y3314700D01*
G01X-2113914Y3314700D01*
G01X-2442125Y3314700D01*
G01X-2439661Y3345621D01*
G01X-2434440Y3375474D01*
G01X-2425835Y3404532D01*
G01X-2413959Y3432414D01*
G01X-2398968Y3458752D01*
G01X-2381060Y3483201D01*
G01X-2360469Y3505438D01*
G01X-2316446Y3545991D01*
G01X-2270676Y3584563D01*
G01X-2223251Y3621080D01*
G01X-2174262Y3655469D01*
G01X-2123803Y3687666D01*
G01X-2068032Y3723591D01*
G01X-2014232Y3762407D01*
G01X-1958812Y3806546D01*
G01X-1905313Y3852994D01*
G01X-1853691Y3901793D01*
G01X-1804179Y3952732D01*
G01X-1759870Y4002824D01*
G01X-1751607Y4013200D01*
G01X-1458214Y4013200D01*
G01X-1456522Y3991704D01*
G01X-1451488Y3970737D01*
G01X-1443237Y3950815D01*
G01X-1431970Y3932430D01*
G01X-1417966Y3916034D01*
G01X-1401570Y3902030D01*
G01X-1383185Y3890763D01*
G01X-1363263Y3882512D01*
G01X-1342296Y3877478D01*
G01X-1320800Y3875786D01*
G01X-977900Y3875786D01*
G01X-956404Y3877478D01*
G01X-935437Y3882512D01*
G01X-915515Y3890763D01*
G01X-897130Y3902030D01*
G01X-880734Y3916034D01*
G01X-866730Y3932430D01*
G01X-855463Y3950815D01*
G01X-847212Y3970737D01*
G01X-842178Y3991704D01*
G01X-840486Y4013200D01*
G01X-842178Y4034696D01*
G01X-847212Y4055663D01*
G01X-855463Y4075585D01*
G01X-866730Y4093970D01*
G01X-880734Y4110366D01*
G01X-897130Y4124370D01*
G01X-915515Y4135637D01*
G01X-935437Y4143888D01*
G01X-956404Y4148922D01*
G01X-977900Y4150614D01*
G01X-1320800Y4150614D01*
G01X-1342296Y4148922D01*
G01X-1363263Y4143888D01*
G01X-1383185Y4135637D01*
G01X-1401570Y4124370D01*
G01X-1417966Y4110366D01*
G01X-1431970Y4093970D01*
G01X-1443237Y4075585D01*
G01X-1451488Y4055663D01*
G01X-1456522Y4034696D01*
G01X-1458214Y4013200D01*
G01X-1458214Y4013200D01*
G01X-1751607Y4013200D01*
G01X-1718208Y4055138D01*
G01X-1676674Y4107736D01*
G01X-1632896Y4158483D01*
G01X-1593121Y4199806D01*
G01X-1550724Y4238433D01*
G01X-1508783Y4271706D01*
G01X-1464589Y4301924D01*
G01X-1416894Y4329977D01*
G01X-1367472Y4354862D01*
G01X-1317347Y4376495D01*
G01X-1266149Y4395450D01*
G01X-1214021Y4411673D01*
G01X-1187363Y4417793D01*
G01X-1160230Y4421239D01*
G01X-1132888Y4421979D01*
G01X-1105608Y4420004D01*
G01X-1078932Y4415365D01*
G01X-1052857Y4408070D01*
G01X-1027647Y4398193D01*
G01X-1003556Y4385834D01*
G01X-958007Y4357789D01*
G01X-914075Y4327275D01*
G01X-871893Y4294384D01*
G01X-795878Y4233225D01*
G01X-795878Y4233225D01*
G01X-668385Y4133814D01*
G01X-668385Y4133814D01*
G01X-668385Y4133814D01*
G01X-521153Y4020402D01*
G01X-521153Y4020402D01*
G01X-372495Y3907295D01*
G01X-372495Y3907295D01*
G01X-300434Y3851566D01*
G01X-229596Y3794288D01*
G01X-162590Y3737525D01*
G01X-96970Y3679165D01*
G01X-42365Y3628255D01*
G01X11062Y3576109D01*
G01X27956Y3557841D01*
G01X43345Y3538288D01*
G01X57133Y3517575D01*
G01X72223Y3490479D01*
G01X85133Y3462278D01*
G01X95783Y3433150D01*
G01X104107Y3403273D01*
G01X114795Y3351391D01*
G01X122444Y3298975D01*
G01X127028Y3246202D01*
G01X128596Y3191739D01*
G01X127035Y3137277D01*
G01X122350Y3082993D01*
G01X115061Y3037047D01*
G01X103897Y2991886D01*
G01X88937Y2947837D01*
G01X77307Y2916182D01*
G01X66811Y2884132D01*
G01X34973Y2777692D01*
G01X34973Y2777692D01*
G01X222Y2654226D01*
G01X222Y2654226D01*
G01X-32889Y2528781D01*
G01X-52900Y2447362D01*
G01X-71433Y2365594D01*
G01X-81317Y2311453D01*
G01X-87581Y2256774D01*
G01X-88885Y2228435D01*
G01X-88212Y2200073D01*
G01X-85566Y2171827D01*
G01X-80922Y2145154D01*
G01X-73949Y2118992D01*
G01X-64700Y2093546D01*
G01X-48179Y2057967D01*
G01X-28729Y2023901D01*
G01X-6488Y1991588D01*
G01X18387Y1961257D01*
G01X45721Y1933121D01*
G01X118315Y1866899D01*
G01X193282Y1803377D01*
G01X270522Y1742639D01*
G01X376520Y1664804D01*
G01X484758Y1590116D01*
G01X595143Y1518638D01*
G01X595143Y1518638D01*
G01X595143Y1518638D01*
G01X740816Y1428664D01*
G01X887676Y1340639D01*
G01X1035696Y1254580D01*
G01X1035696Y1254580D01*
G01X1174428Y1176810D01*
G01X1314542Y1101560D01*
G01X1314542Y1101560D01*
G01X1336775Y1092016D01*
G01X1360226Y1086061D01*
G01X1384319Y1083839D01*
G01X1408463Y1085405D01*
G01X1432067Y1090722D01*
G01X1454588Y1099460D01*
G01X1475664Y1111265D01*
G01X1494880Y1125904D01*
G01X1511857Y1143088D01*
G01X1526261Y1162480D01*
G01X1526261Y1162480D01*
G01X1619843Y1311177D01*
G01X1711352Y1461159D01*
G01X1711352Y1461159D01*
G01X1711352Y1461159D01*
G01X1756918Y1539274D01*
G01X1800464Y1618533D01*
G01X1841962Y1698883D01*
G01X1841962Y1698883D01*
G01X1874417Y1767532D01*
G01X1903784Y1837558D01*
G01X1930004Y1908822D01*
G01X1930004Y1908822D01*
G01X1947355Y1963985D01*
G01X1961867Y2019963D01*
G01X1973501Y2076608D01*
G01X1975594Y2096558D01*
G01X1974784Y2116601D01*
G01X1971087Y2136317D01*
G01X1964580Y2155292D01*
G01X1955401Y2173128D01*
G01X1943742Y2189451D01*
G01X1929345Y2204796D01*
G01X1913192Y2218280D01*
G01X1895522Y2229703D01*
G01X1876597Y2238899D01*
G01X1856582Y2245904D01*
G01X1835921Y2250679D01*
G01X1814862Y2253166D01*
G01X1793657Y2253337D01*
G01X1761450Y2250092D01*
G01X1729776Y2243414D01*
G01X1699000Y2233380D01*
G01X1663192Y2218496D01*
G01X1628175Y2201836D01*
G01X1594036Y2183444D01*
G01X1568368Y2170213D01*
G01X1541651Y2159252D01*
G01X1514087Y2150642D01*
G01X1495382Y2147384D01*
G01X1476396Y2147413D01*
G01X1457702Y2150728D01*
G01X1439275Y2157393D01*
G01X1422232Y2167064D01*
G01X1407060Y2179465D01*
G01X1386122Y2201436D01*
G01X1366994Y2224999D01*
G01X1349795Y2250006D01*
G01X1341435Y2266743D01*
G01X1336547Y2284802D01*
G01X1335325Y2303471D01*
G01X1337775Y2331920D01*
G01X1343152Y2359964D01*
G01X1351400Y2387301D01*
G01X1363473Y2416441D01*
G01X1378280Y2444291D01*
G01X1395686Y2470596D01*
G01X1413787Y2492456D01*
G01X1434340Y2512030D01*
G01X1457057Y2529044D01*
G01X1478539Y2541744D01*
G01X1501178Y2552244D01*
G01X1509573Y2554246D01*
G01X1518184Y2553670D01*
G01X1533060Y2548728D01*
G01X1546603Y2540834D01*
G01X1581203Y2514622D01*
G01X1614889Y2487245D01*
G01X1653331Y2456306D01*
G01X1693088Y2427076D01*
G01X1734084Y2399610D01*
G01X1752188Y2389963D01*
G01X1771582Y2383281D01*
G01X1791786Y2379728D01*
G01X1812296Y2379394D01*
G01X1832605Y2382286D01*
G01X1848961Y2387579D01*
G01X1864061Y2395796D01*
G01X1877389Y2406654D01*
G01X1888488Y2419783D01*
G01X1896978Y2434732D01*
G01X1902567Y2450989D01*
G01X1910410Y2489929D01*
G01X1911844Y2501900D01*
G01X2051686Y2501900D01*
G01X2053594Y2476441D01*
G01X2059275Y2451552D01*
G01X2068602Y2427787D01*
G01X2081367Y2405677D01*
G01X2097284Y2385717D01*
G01X2115999Y2368352D01*
G01X2137093Y2353971D01*
G01X2160095Y2342894D01*
G01X2184490Y2335369D01*
G01X2209735Y2331564D01*
G01X2235265Y2331564D01*
G01X2260510Y2335369D01*
G01X2284905Y2342894D01*
G01X2307907Y2353971D01*
G01X2329001Y2368352D01*
G01X2347716Y2385717D01*
G01X2363633Y2405677D01*
G01X2376398Y2427787D01*
G01X2385725Y2451552D01*
G01X2391406Y2476441D01*
G01X2393314Y2501900D01*
G01X2391406Y2527359D01*
G01X2385725Y2552248D01*
G01X2376398Y2576013D01*
G01X2363633Y2598123D01*
G01X2347716Y2618083D01*
G01X2329001Y2635448D01*
G01X2307907Y2649829D01*
G01X2284905Y2660906D01*
G01X2260510Y2668431D01*
G01X2235265Y2672236D01*
G01X2209735Y2672236D01*
G01X2184490Y2668431D01*
G01X2160095Y2660906D01*
G01X2137093Y2649829D01*
G01X2115999Y2635448D01*
G01X2097284Y2618083D01*
G01X2081367Y2598123D01*
G01X2068602Y2576013D01*
G01X2059275Y2552248D01*
G01X2053594Y2527359D01*
G01X2051686Y2501900D01*
G01X2051686Y2501900D01*
G01X1911844Y2501900D01*
G01X1915135Y2529370D01*
G01X1916714Y2569061D01*
G01X1915332Y2620250D01*
G01X1911188Y2671289D01*
G01X1904296Y2722030D01*
G01X1895092Y2766319D01*
G01X1882124Y2809656D01*
G01X1865490Y2851722D01*
G01X1845041Y2892868D01*
G01X1821232Y2932164D01*
G01X1794227Y2969338D01*
G01X1760049Y3010403D01*
G01X1723931Y3049774D01*
G01X1685958Y3087358D01*
G01X1647721Y3124755D01*
G01X1610867Y3163516D01*
G01X1599558Y3177246D01*
G01X1589765Y3192094D01*
G01X1581597Y3207895D01*
G01X1576996Y3220403D01*
G01X1574227Y3233439D01*
G01X1573345Y3246737D01*
G01X1575104Y3279682D01*
G01X1580015Y3312307D01*
G01X1585733Y3336715D01*
G01X1593035Y3360697D01*
G01X1602826Y3387268D01*
G01X1613920Y3413323D01*
G01X1625597Y3437335D01*
G01X1638472Y3460726D01*
G01X1648689Y3476313D01*
G01X1660462Y3490760D01*
G01X1676579Y3506058D01*
G01X1694822Y3518746D01*
G01X1714773Y3528530D01*
G01X1741289Y3537594D01*
G01X1768587Y3543923D01*
G01X1796386Y3547453D01*
G01X1823395Y3548085D01*
G01X1850323Y3545899D01*
G01X1876877Y3540921D01*
G01X1894766Y3534817D01*
G01X1911248Y3525566D01*
G01X1925776Y3513476D01*
G01X1936090Y3501093D01*
G01X1943995Y3487048D01*
G01X1949230Y3471806D01*
G01X1954976Y3443969D01*
G01X1958686Y3415789D01*
G01X1960340Y3387413D01*
G01X1959976Y3353979D01*
G01X1957420Y3320640D01*
G01X1952685Y3287541D01*
G01X1945709Y3254205D01*
G01X1936654Y3221373D01*
G01X1925556Y3189175D01*
G01X1917210Y3162896D01*
G01X1911845Y3135851D01*
G01X1909525Y3108377D01*
G01X1910281Y3080815D01*
G01X1915480Y3041037D01*
G01X1924366Y3001918D01*
G01X1936862Y2963797D01*
G01X1952486Y2927988D01*
G01X1971465Y2893838D01*
G01X1993626Y2861662D01*
G01X2011007Y2841854D01*
G01X2030953Y2824632D01*
G01X2053083Y2810325D01*
G01X2076975Y2799207D01*
G01X2097186Y2793614D01*
G01X2118095Y2792000D01*
G01X2138925Y2794425D01*
G01X2158904Y2800798D01*
G01X2177290Y2810883D01*
G01X2208358Y2834409D01*
G01X2236923Y2860918D01*
G01X2262702Y2890143D01*
G01X2293702Y2931943D01*
G01X2321729Y2975792D01*
G01X2346647Y3021479D01*
G01X2373968Y3078525D01*
G01X2399225Y3136513D01*
G01X2422385Y3195371D01*
G01X2447226Y3263658D01*
G01X2470963Y3332336D01*
G01X2478091Y3356805D01*
G01X2483177Y3381778D01*
G01X2486186Y3407086D01*
G01X2486036Y3428940D01*
G01X2482237Y3450461D01*
G01X2474895Y3471045D01*
G01X2464598Y3490919D01*
G01X2452313Y3509628D01*
G01X2438168Y3526975D01*
G01X2417239Y3552420D01*
G01X2398804Y3579726D01*
G01X2383027Y3608649D01*
G01X2370048Y3638931D01*
G01X2359984Y3670303D01*
G01X2354676Y3697108D01*
G01X2353034Y3724385D01*
G01X2355088Y3751633D01*
G01X2360801Y3778355D01*
G01X2370068Y3804062D01*
G01X2382675Y3828178D01*
G01X2398435Y3850363D01*
G01X2417057Y3870205D01*
G01X2438198Y3887340D01*
G01X2461467Y3901449D01*
G01X2491240Y3915082D01*
G01X2522177Y3925816D01*
G01X2553995Y3933553D01*
G01X2586406Y3938224D01*
G01X2619114Y3939786D01*
G01X2655404Y3938322D01*
G01X2691458Y3933940D01*
G01X2727042Y3926668D01*
G01X2753162Y3918236D01*
G01X2777841Y3906227D01*
G01X2800593Y3890875D01*
G01X2817728Y3875032D01*
G01X2832034Y3856594D01*
G01X2843124Y3836059D01*
G01X2851936Y3811466D01*
G01X2857290Y3785896D01*
G01X2859086Y3759834D01*
G01X2857563Y3741078D01*
G01X2853034Y3722815D01*
G01X2845617Y3705521D01*
G01X2829585Y3677283D01*
G01X2811880Y3650063D01*
G01X2792565Y3623960D01*
G01X2772429Y3599893D01*
G01X2750908Y3577056D01*
G01X2728078Y3555528D01*
G01X2718549Y3548932D01*
G01X2707717Y3544814D01*
G01X2696212Y3543414D01*
G01X2680616Y3541809D01*
G01X2665673Y3537060D01*
G01X2652011Y3529366D01*
G01X2640202Y3519051D01*
G01X2630743Y3506547D01*
G01X2624029Y3492378D01*
G01X2594956Y3406654D01*
G01X2568114Y3320206D01*
G01X2568114Y3320206D01*
G01X2551219Y3260015D01*
G01X2536074Y3199361D01*
G01X2522691Y3138293D01*
G01X2514589Y3090443D01*
G01X2509714Y3042157D01*
G01X2508086Y2993653D01*
G01X2508910Y2946593D01*
G01X2511380Y2899591D01*
G01X2513717Y2884095D01*
G01X2518481Y2869166D01*
G01X2525553Y2855182D01*
G01X2534753Y2842496D01*
G01X2546325Y2831294D01*
G01X2559799Y2822468D01*
G01X2574691Y2816334D01*
G01X2590471Y2813110D01*
G01X2630807Y2809868D01*
G01X2671259Y2808786D01*
G01X2710301Y2810166D01*
G01X2749149Y2814298D01*
G01X2787608Y2821161D01*
G01X2825487Y2830722D01*
G01X2862345Y2842889D01*
G01X2898225Y2857694D01*
G01X2932938Y2875061D01*
G01X2966300Y2894897D01*
G01X2996197Y2915877D01*
G01X3024357Y2939136D01*
G01X3050607Y2964530D01*
G01X3074786Y2991904D01*
G01X3094829Y3019429D01*
G01X3111736Y3048983D01*
G01X3125303Y3080212D01*
G01X3135368Y3112739D01*
G01X3145888Y3148224D01*
G01X3159421Y3182673D01*
G01X3175865Y3215831D01*
G01X3195099Y3247453D01*
G01X3207771Y3263895D01*
G01X3222528Y3278495D01*
G01X3239105Y3290989D01*
G01X3257204Y3301154D01*
G01X3276501Y3308806D01*
G01X3292096Y3312368D01*
G01X3308071Y3313210D01*
G01X3323955Y3311308D01*
G01X3339279Y3306718D01*
G01X3353592Y3299575D01*
G01X3375996Y3283685D01*
G01X3396035Y3264900D01*
G01X3413339Y3243569D01*
G01X3427586Y3220086D01*
G01X3438820Y3197034D01*
G01X3448945Y3173473D01*
G01X3458603Y3147939D01*
G01X3467210Y3122030D01*
G01X3474026Y3098265D01*
G01X3479841Y3074236D01*
G01X3482272Y3059389D01*
G01X3483086Y3044367D01*
G01X3481789Y3027952D01*
G01X3477931Y3011944D01*
G01X3471608Y2996739D01*
G01X3462975Y2982717D01*
G01X3442176Y2957281D01*
G01X3418718Y2934274D01*
G01X3392884Y2913971D01*
G01X3363628Y2895689D01*
G01X3332611Y2880588D01*
G01X3300177Y2868834D01*
G01X3280400Y2864133D01*
G01X3260195Y2861895D01*
G01X3239868Y2862155D01*
G01X3219727Y2864908D01*
G01X3188568Y2869540D01*
G01X3157102Y2871051D01*
G01X3125642Y2869424D01*
G01X3094499Y2864677D01*
G01X3063984Y2856856D01*
G01X3034397Y2846039D01*
G01X3006033Y2832333D01*
G01X2979172Y2815874D01*
G01X2916354Y2771241D01*
G01X2855201Y2724351D01*
G01X2795795Y2675268D01*
G01X2738214Y2624056D01*
G01X2682534Y2570783D01*
G01X2616764Y2503317D01*
G01X2553273Y2433703D01*
G01X2492132Y2362016D01*
G01X2433407Y2288337D01*
G01X2377163Y2212746D01*
G01X2320270Y2131177D01*
G01X2265688Y2048044D01*
G01X2213460Y1963412D01*
G01X2163627Y1877348D01*
G01X2116229Y1789920D01*
G01X2116229Y1789920D01*
G01X2078180Y1715590D01*
G01X2041572Y1640540D01*
G01X2041572Y1640540D01*
G01X2041572Y1640540D01*
G01X1952388Y1448485D01*
G01X1952388Y1448485D01*
G01X1907433Y1347983D01*
G01X1863420Y1247064D01*
G01X1863420Y1247064D01*
G01X1863420Y1247064D01*
G01X1825479Y1157273D01*
G01X1788756Y1066977D01*
G01X1756278Y987588D01*
G01X1722400Y908787D01*
G01X1690603Y838914D01*
G01X1657113Y769835D01*
G01X1628152Y713177D01*
G01X1598187Y657043D01*
G01X1590118Y645892D01*
G01X1579502Y637131D01*
G01X1571129Y633114D01*
G01X1562059Y631119D01*
G01X1552774Y631252D01*
G01X1499779Y639435D01*
G01X1447225Y650092D01*
G01X1447225Y650092D01*
G01X1369463Y669304D01*
G01X1292473Y691412D01*
G01X1176389Y727853D01*
G01X1060738Y765651D01*
G01X1060738Y765651D01*
G01X870241Y828187D01*
G01X870241Y828187D01*
G01X703105Y880965D01*
G01X703105Y880965D01*
G01X559951Y924656D01*
G01X559951Y924656D01*
G01X540678Y928967D01*
G01X520981Y930414D01*
G01X508685Y928719D01*
G01X497305Y923762D01*
G01X487691Y915911D01*
G01X480558Y905753D01*
G01X476439Y894044D01*
G01X475640Y881657D01*
G01X478222Y869516D01*
G01X513569Y777235D01*
G01X538260Y718824D01*
G01X564666Y661167D01*
G01X564666Y661167D01*
G01X598050Y592505D01*
G01X632570Y524407D01*
G01X688985Y413156D01*
G01X743577Y300999D01*
G01X760467Y262518D01*
G01X774920Y223057D01*
G01X786881Y182770D01*
G01X795331Y145093D01*
G01X800990Y106898D01*
G01X803828Y68391D01*
G01X806119Y-31401D01*
G01X805641Y-131217D01*
G01X805641Y-131217D01*
G01X803106Y-204017D01*
G01X798222Y-276696D01*
G01X798222Y-276696D01*
G01X791022Y-348627D01*
G01X781453Y-420281D01*
G01X781447Y-430894D01*
G01X784552Y-441042D01*
G01X790495Y-449835D01*
G01X798753Y-456501D01*
G01X811246Y-465789D01*
G01X821435Y-477558D01*
G01X828881Y-485445D01*
G01X838346Y-490742D01*
G01X1056795Y-572501D01*
G01X1065648Y-574581D01*
G01X1074739Y-574365D01*
G01X1182219Y-559138D01*
G01X1289991Y-546134D01*
G01X1398009Y-535360D01*
G01X1404726Y-534106D01*
G01X1411083Y-531598D01*
G01X1411083Y-531598D01*
G01X1574078Y-449880D01*
G01X1738128Y-370302D01*
G01X1804583Y-340030D01*
G01X1872066Y-312121D01*
G01X1940492Y-286613D01*
G01X1986415Y-270961D01*
G01X2032663Y-256295D01*
G01X2040388Y-254968D01*
G01X2048200Y-255613D01*
G01X2057366Y-280485D01*
G01X2064733Y-305948D01*
G01X2071115Y-336522D01*
G01X2075025Y-367508D01*
G01X2076438Y-398709D01*
G01X2075346Y-429923D01*
G01X2069462Y-491059D01*
G01X2061040Y-551898D01*
G01X2050092Y-612334D01*
G01X2032622Y-691938D01*
G01X2012612Y-770941D01*
G01X1990083Y-849263D01*
G01X1941378Y-1002857D01*
G01X1889318Y-1155346D01*
G01X1889318Y-1155346D01*
G01X1830898Y-1319288D01*
G01X1830898Y-1319288D01*
G01X1776576Y-1469173D01*
G01X1776576Y-1469173D01*
G01X1730372Y-1594570D01*
G01X1730372Y-1594570D01*
G01X1711929Y-1640357D01*
G01X1703255Y-1661989D01*
G01X1695856Y-1684090D01*
G01X1693777Y-1696114D01*
G01X1694678Y-1708284D01*
G01X1698507Y-1719870D01*
G01X1705034Y-1730181D01*
G01X1713868Y-1738599D01*
G01X1724717Y-1744985D01*
G01X1736672Y-1748930D01*
G01X1749191Y-1750256D01*
G01X1761707Y-1748901D01*
G01X1816580Y-1735110D01*
G01X1853659Y-1722569D01*
G01X1889362Y-1706522D01*
G01X1923357Y-1687119D01*
G01X1955330Y-1664539D01*
G01X1984985Y-1638991D01*
G01X2012048Y-1610711D01*
G01X2067579Y-1544242D01*
G01X2120501Y-1475678D01*
G01X2170736Y-1405121D01*
G01X2218208Y-1332677D01*
G01X2263492Y-1257300D01*
G01X2381886Y-1257300D01*
G01X2383794Y-1282759D01*
G01X2389475Y-1307648D01*
G01X2398802Y-1331413D01*
G01X2411567Y-1353523D01*
G01X2427484Y-1373483D01*
G01X2446199Y-1390848D01*
G01X2467293Y-1405229D01*
G01X2490295Y-1416306D01*
G01X2514690Y-1423831D01*
G01X2539935Y-1427636D01*
G01X2565465Y-1427636D01*
G01X2590710Y-1423831D01*
G01X2615105Y-1416306D01*
G01X2638107Y-1405229D01*
G01X2659201Y-1390848D01*
G01X2677916Y-1373483D01*
G01X2693833Y-1353523D01*
G01X2706598Y-1331413D01*
G01X2715925Y-1307648D01*
G01X2721606Y-1282759D01*
G01X2723514Y-1257300D01*
G01X2721606Y-1231841D01*
G01X2715925Y-1206952D01*
G01X2706598Y-1183187D01*
G01X2693833Y-1161077D01*
G01X2677916Y-1141117D01*
G01X2659201Y-1123752D01*
G01X2638107Y-1109371D01*
G01X2615105Y-1098294D01*
G01X2590710Y-1090769D01*
G01X2565465Y-1086964D01*
G01X2539935Y-1086964D01*
G01X2514690Y-1090769D01*
G01X2490295Y-1098294D01*
G01X2467293Y-1109371D01*
G01X2446199Y-1123752D01*
G01X2427484Y-1141117D01*
G01X2411567Y-1161077D01*
G01X2398802Y-1183187D01*
G01X2389475Y-1206952D01*
G01X2383794Y-1231841D01*
G01X2381886Y-1257300D01*
G01X2381886Y-1257300D01*
G01X2263492Y-1257300D01*
G01X2263961Y-1256519D01*
G01X2306663Y-1178609D01*
G01X2346247Y-1099070D01*
G01X2382651Y-1018026D01*
G01X2382651Y-1018026D01*
G01X2398549Y-976744D01*
G01X2411538Y-934457D01*
G01X2421555Y-891369D01*
G01X2428552Y-847689D01*
G01X2432496Y-803628D01*
G01X2433366Y-759399D01*
G01X2432026Y-723409D01*
G01X2429098Y-687513D01*
G01X2424532Y-650674D01*
G01X2418510Y-614044D01*
G01X2411734Y-581135D01*
G01X2403630Y-548528D01*
G01X2395250Y-523308D01*
G01X2384063Y-499202D01*
G01X2370108Y-469995D01*
G01X2358878Y-439636D01*
G01X2350466Y-408379D01*
G01X2344942Y-376484D01*
G01X2343516Y-350763D01*
G01X2345715Y-325097D01*
G01X2351495Y-299994D01*
G01X2360742Y-275950D01*
G01X2372049Y-256066D01*
G01X2386358Y-238220D01*
G01X2403309Y-222861D01*
G01X2422475Y-210377D01*
G01X2446543Y-199173D01*
G01X2471816Y-191044D01*
G01X2497903Y-186115D01*
G01X2524400Y-184464D01*
G01X2547197Y-185780D01*
G01X2569691Y-189709D01*
G01X2591584Y-196201D01*
G01X2612585Y-205168D01*
G01X2632414Y-216492D01*
G01X2649229Y-229081D01*
G01X2664236Y-243778D01*
G01X2677173Y-260326D01*
G01X2687815Y-278436D01*
G01X2695974Y-297791D01*
G01X2701773Y-318812D01*
G01X2704856Y-340399D01*
G01X2705173Y-362203D01*
G01X2702720Y-383870D01*
G01X2697536Y-405051D01*
G01X2686593Y-433252D01*
G01X2672010Y-459756D01*
G01X2654044Y-484093D01*
G01X2633012Y-505835D01*
G01X2609333Y-529664D01*
G01X2588307Y-555863D01*
G01X2577109Y-573553D01*
G01X2568071Y-592439D01*
G01X2561319Y-612257D01*
G01X2556464Y-633933D01*
G01X2553754Y-655980D01*
G01X2553215Y-678186D01*
G01X2555369Y-719640D01*
G01X2559768Y-760916D01*
G01X2569212Y-821301D01*
G01X2580704Y-876300D01*
G01X2592550Y-921101D01*
G01X2596856Y-932339D01*
G01X2602978Y-942701D01*
G01X2610745Y-951894D01*
G01X2622186Y-961108D01*
G01X2635328Y-967673D01*
G01X2649567Y-971286D01*
G01X2664248Y-971782D01*
G01X2678699Y-969138D01*
G01X2692253Y-963476D01*
G01X2752342Y-929071D01*
G01X2811235Y-892655D01*
G01X2874720Y-849615D01*
G01X2935968Y-803444D01*
G01X2971151Y-774091D01*
G01X3004870Y-743066D01*
G01X3037044Y-710441D01*
G01X3063100Y-680083D01*
G01X3086328Y-647511D01*
G01X3099143Y-625875D01*
G01X3110195Y-603288D01*
G01X3119414Y-579893D01*
G01X3127277Y-554458D01*
G01X3133306Y-528527D01*
G01X3137468Y-502232D01*
G01X3141842Y-455483D01*
G01X3143589Y-408562D01*
G01X3145027Y-362125D01*
G01X3148482Y-315795D01*
G01X3152821Y-291168D01*
G01X3160944Y-267519D01*
G01X3170325Y-250770D01*
G01X3182891Y-236258D01*
G01X3205350Y-217209D01*
G01X3229671Y-200604D01*
G01X3258433Y-185463D01*
G01X3288853Y-174013D01*
G01X3320461Y-166432D01*
G01X3342333Y-163865D01*
G01X3364354Y-163771D01*
G01X3386247Y-166152D01*
G01X3407734Y-170976D01*
G01X3428636Y-178210D01*
G01X3448598Y-187737D01*
G01X3467369Y-199436D01*
G01X3484713Y-213162D01*
G01X3507888Y-236403D01*
G01X3528044Y-262305D01*
G01X3544878Y-290479D01*
G01X3560928Y-324029D01*
G01X3574865Y-358510D01*
G01X3586637Y-393789D01*
G01X3596196Y-429731D01*
G01X3599536Y-452076D01*
G01X3599248Y-474666D01*
G01X3595341Y-496919D01*
G01X3587916Y-518256D01*
G01X3578798Y-534460D01*
G01X3566725Y-548601D01*
G01X3552151Y-560147D01*
G01X3535623Y-568664D01*
G01X3507939Y-578190D01*
G01X3479478Y-585056D01*
G01X3450495Y-589200D01*
G01X3421250Y-590586D01*
G01X3397411Y-591540D01*
G01X3373725Y-594395D01*
G01X3350342Y-599133D01*
G01X3327478Y-605721D01*
G01X3305224Y-614142D01*
G01X3283727Y-624341D01*
G01X3261227Y-637180D01*
G01X3239680Y-651560D01*
G01X3219189Y-667410D01*
G01X3185661Y-696989D01*
G01X3153938Y-728497D01*
G01X3119791Y-766038D01*
G01X3087259Y-804987D01*
G01X3056402Y-845277D01*
G01X3027297Y-886806D01*
G01X2999976Y-929530D01*
G01X2974489Y-973373D01*
G01X2945249Y-1029878D01*
G01X2919205Y-1087924D01*
G01X2914732Y-1102612D01*
G01X2913214Y-1117891D01*
G01X2914708Y-1133172D01*
G01X2919158Y-1147867D01*
G01X2926392Y-1161410D01*
G01X2936131Y-1173280D01*
G01X2948416Y-1183061D01*
G01X2962579Y-1189842D01*
G01X2977902Y-1193279D01*
G01X2977902Y-1193279D01*
G01X3059648Y-1200922D01*
G01X3059648Y-1200922D01*
G01X3109214Y-1204253D01*
G01X3158843Y-1206422D01*
G01X3271001Y-1208214D01*
G01X3355393Y-1207503D01*
G01X3439761Y-1205369D01*
G01X3469971Y-1203189D01*
G01X3499926Y-1198700D01*
G01X3529448Y-1191929D01*
G01X3553049Y-1183658D01*
G01X3575188Y-1172029D01*
G01X3595392Y-1157290D01*
G01X3614567Y-1139375D01*
G01X3631943Y-1119709D01*
G01X3647358Y-1098472D01*
G01X3660169Y-1080918D01*
G01X3674682Y-1064743D01*
G01X3695364Y-1045075D01*
G01X3717145Y-1026631D01*
G01X3740527Y-1009030D01*
G01X3764874Y-992790D01*
G01X3786218Y-980628D01*
G01X3808502Y-970288D01*
G01X3839425Y-958417D01*
G01X3870927Y-948181D01*
G01X3885320Y-945440D01*
G01X3899971Y-945610D01*
G01X3911669Y-948307D01*
G01X3922442Y-953606D01*
G01X3943801Y-968635D01*
G01X3963864Y-985355D01*
G01X3978666Y-1000737D01*
G01X3991210Y-1018011D01*
G01X4001258Y-1036847D01*
G01X4008616Y-1056886D01*
G01X4018913Y-1098706D01*
G01X4025710Y-1141236D01*
G01X4028961Y-1184182D01*
G01X4028674Y-1229280D01*
G01X4024747Y-1274207D01*
G01X4017204Y-1318671D01*
G01X4010359Y-1344525D01*
G01X4000952Y-1369561D01*
G01X3989077Y-1393526D01*
G01X3974854Y-1416176D01*
G01X3962901Y-1431185D01*
G01X3949195Y-1444614D01*
G01X3933944Y-1456258D01*
G01X3917379Y-1465942D01*
G01X3892139Y-1476431D01*
G01X3865633Y-1483100D01*
G01X3838435Y-1485807D01*
G01X3810511Y-1484505D01*
G01X3783064Y-1479201D01*
G01X3756664Y-1470006D01*
G01X3738466Y-1460894D01*
G01X3721420Y-1449774D01*
G01X3705749Y-1436788D01*
G01X3691653Y-1422107D01*
G01X3674730Y-1404544D01*
G01X3655865Y-1389085D01*
G01X3635317Y-1375945D01*
G01X3613371Y-1365304D01*
G01X3590329Y-1357309D01*
G01X3542019Y-1345577D01*
G01X3492974Y-1337447D01*
G01X3443462Y-1332965D01*
G01X3375875Y-1331083D01*
G01X3308280Y-1332646D01*
G01X3240852Y-1337648D01*
G01X3149424Y-1347685D01*
G01X3058211Y-1359517D01*
G01X2967248Y-1373140D01*
G01X2909335Y-1383991D01*
G01X2852086Y-1397921D01*
G01X2795662Y-1414891D01*
G01X2740226Y-1434852D01*
G01X2685936Y-1457747D01*
G01X2632948Y-1483511D01*
G01X2561065Y-1522697D01*
G01X2490791Y-1564699D01*
G01X2422235Y-1609450D01*
G01X2355505Y-1656882D01*
G01X2290706Y-1706920D01*
G01X2212767Y-1771598D01*
G01X2136845Y-1838633D01*
G01X2063011Y-1907961D01*
G01X1991335Y-1979517D01*
G01X1921884Y-2053235D01*
G01X1814892Y-2172570D01*
G01X1710154Y-2293887D01*
G01X1607708Y-2417146D01*
G01X1507589Y-2542303D01*
G01X1507589Y-2542303D01*
G01X1413375Y-2659524D01*
G01X1316451Y-2774515D01*
G01X1316451Y-2774515D01*
G01X1288979Y-2804568D01*
G01X1259838Y-2833004D01*
G01X1229122Y-2859732D01*
G01X1196931Y-2884664D01*
G01X1179135Y-2895963D01*
G01X1160028Y-2904869D01*
G01X1139930Y-2911232D01*
G01X1119180Y-2914945D01*
G01X1104252Y-2915120D01*
G01X1089591Y-2912307D01*
G01X1075788Y-2906619D01*
G01X1063401Y-2898288D01*
G01X1050884Y-2886079D01*
G01X1040479Y-2872028D01*
G01X1032453Y-2856495D01*
G01X1027011Y-2839879D01*
G01X1024294Y-2822607D01*
G01X1020021Y-2746160D01*
G01X1018807Y-2669603D01*
G01X1020653Y-2593059D01*
G01X1026714Y-2499402D01*
G01X1036615Y-2406073D01*
G01X1050339Y-2313229D01*
G01X1068692Y-2214821D01*
G01X1090399Y-2117098D01*
G01X1115433Y-2020174D01*
G01X1152834Y-1878386D01*
G01X1152834Y-1878386D01*
G01X1152834Y-1878386D01*
G01X1184547Y-1743894D01*
G01X1184547Y-1743894D01*
G01X1208180Y-1630068D01*
G01X1212632Y-1599688D01*
G01X1214229Y-1569026D01*
G01X1213286Y-1550197D01*
G01X1210270Y-1531587D01*
G01X1205217Y-1513423D01*
G01X1199115Y-1501147D01*
G01X1189969Y-1490935D01*
G01X1178437Y-1483522D01*
G01X1165349Y-1479442D01*
G01X1151647Y-1478989D01*
G01X1138318Y-1482195D01*
G01X1120100Y-1490467D01*
G01X1102912Y-1500709D01*
G01X1086966Y-1512795D01*
G01X970395Y-1613592D01*
G01X925322Y-1650863D01*
G01X878035Y-1685282D01*
G01X808887Y-1731208D01*
G01X738652Y-1775456D01*
G01X661129Y-1821744D01*
G01X582528Y-1866180D01*
G01X582528Y-1866180D01*
G01X508062Y-1905729D01*
G01X432484Y-1943110D01*
G01X432484Y-1943110D01*
G01X329930Y-1993868D01*
G01X228914Y-2047623D01*
G01X176830Y-2077750D01*
G01X126035Y-2110002D01*
G01X76615Y-2144324D01*
G01X72493Y-2147841D01*
G01X32817Y-2189196D01*
G01X-5052Y-2232212D01*
G01X-41045Y-2276810D01*
G01X-46209Y-2286059D01*
G01X-73048Y-2353653D01*
G01X-102199Y-2420283D01*
G01X-133626Y-2485870D01*
G01X-136726Y-2494912D01*
G01X-156734Y-2590158D01*
G01X-178775Y-2684954D01*
G01X-202837Y-2779257D01*
G01X-202837Y-2779257D01*
G01X-271788Y-2838746D01*
G01X-271788Y-2785603D01*
G01X-273629Y-2766910D01*
G01X-279081Y-2748936D01*
G01X-287935Y-2732371D01*
G01X-299851Y-2717852D01*
G01X-314370Y-2705936D01*
G01X-330935Y-2697082D01*
G01X-348909Y-2691630D01*
G01X-367601Y-2689789D01*
G01X-386294Y-2691630D01*
G01X-404268Y-2697082D01*
G01X-420833Y-2705936D01*
G01X-435352Y-2717852D01*
G01X-447268Y-2732371D01*
G01X-456122Y-2748936D01*
G01X-461574Y-2766910D01*
G01X-463415Y-2785603D01*
G01X-463415Y-2845603D01*
G01X-461812Y-2863059D01*
G01X-457055Y-2879931D01*
G01X-449303Y-2895653D01*
G01X-438817Y-2909701D01*
G01X-425948Y-2921603D01*
G01X-411125Y-2930961D01*
G01X-394845Y-2937462D01*
G01X-726312Y-3091730D01*
G01X-734994Y-3097432D01*
G01X-751375Y-3109613D01*
G01X-769624Y-3118765D01*
G01X-789184Y-3124608D01*
G01X-809461Y-3126967D01*
G01X-829841Y-3125768D01*
G01X-849702Y-3121049D01*
G01X-868442Y-3112952D01*
G01X-885492Y-3101724D01*
G01X-900332Y-3087706D01*
G01X-906203Y-3082414D01*
G01X-913092Y-3078539D01*
G01X-980509Y-3048269D01*
G01X-1046650Y-3015305D01*
G01X-1111409Y-2979702D01*
G01X-1174680Y-2941517D01*
G01X-1180893Y-2938392D01*
G01X-1187593Y-2936528D01*
G01X-1197361Y-2934701D01*
G01X-1180440Y-2925975D01*
G01X-1165578Y-2914076D01*
G01X-1153363Y-2899473D01*
G01X-1144276Y-2882743D01*
G01X-1138676Y-2864547D01*
G01X-1136785Y-2845603D01*
G01X-1136785Y-2785603D01*
G01X-1138626Y-2766910D01*
G01X-1144078Y-2748936D01*
G01X-1152932Y-2732371D01*
G01X-1164848Y-2717852D01*
G01X-1179367Y-2705936D01*
G01X-1195932Y-2697082D01*
G01X-1213906Y-2691630D01*
G01X-1232598Y-2689789D01*
G01X-1251291Y-2691630D01*
G01X-1269265Y-2697082D01*
G01X-1285830Y-2705936D01*
G01X-1300349Y-2717852D01*
G01X-1312265Y-2732371D01*
G01X-1321119Y-2748936D01*
G01X-1326571Y-2766910D01*
G01X-1328412Y-2785603D01*
G01X-1328412Y-2845603D01*
G01X-1326894Y-2862592D01*
G01X-1322388Y-2879042D01*
G01X-1315036Y-2894433D01*
G01X-1349882Y-2875091D01*
G01X-1382945Y-2852834D01*
G01X-1413980Y-2827829D01*
G01X-1442759Y-2800257D01*
G01X-1469071Y-2770322D01*
G01X-1492723Y-2738243D01*
G01X-1549874Y-2618990D01*
G01X-1609034Y-2500721D01*
G01X-1670187Y-2383470D01*
G01X-1671332Y-2381481D01*
G01X-1691398Y-2350588D01*
G01X-1323412Y-2350588D01*
G01X-1323412Y-2440588D01*
G01X-1321493Y-2459159D01*
G01X-1315817Y-2476945D01*
G01X-1306624Y-2493194D01*
G01X-1294302Y-2507220D01*
G01X-1279373Y-2518430D01*
G01X-1262466Y-2526350D01*
G01X-1244298Y-2530645D01*
G01X-1225634Y-2531135D01*
G01X-1207266Y-2527797D01*
G01X-1189967Y-2520774D01*
G01X-1174471Y-2510362D01*
G01X-1161431Y-2497001D01*
G01X-1151399Y-2481255D01*
G01X-1142095Y-2494566D01*
G01X-1130003Y-2505407D01*
G01X-1115759Y-2513209D01*
G01X-1100112Y-2517559D01*
G01X-1083885Y-2518231D01*
G01X-1067932Y-2515189D01*
G01X-1053092Y-2508592D01*
G01X-1040145Y-2498787D01*
G01X-1029773Y-2486291D01*
G01X-1022519Y-2471760D01*
G01X-1018767Y-2455959D01*
G01X-1018714Y-2439727D01*
G01X-581461Y-2439727D01*
G01X-581406Y-2455964D01*
G01X-581406Y-2455964D01*
G01X-577654Y-2471762D01*
G01X-570403Y-2486290D01*
G01X-560032Y-2498785D01*
G01X-547088Y-2508588D01*
G01X-532252Y-2515186D01*
G01X-516302Y-2518230D01*
G01X-500078Y-2517562D01*
G01X-484433Y-2513216D01*
G01X-470190Y-2505420D01*
G01X-458096Y-2494585D01*
G01X-448789Y-2481280D01*
G01X-438753Y-2497020D01*
G01X-425711Y-2510376D01*
G01X-410214Y-2520784D01*
G01X-392916Y-2527802D01*
G01X-374549Y-2531136D01*
G01X-355888Y-2530643D01*
G01X-337722Y-2526346D01*
G01X-320818Y-2518425D01*
G01X-305892Y-2507214D01*
G01X-293572Y-2493189D01*
G01X-284381Y-2476941D01*
G01X-278706Y-2459157D01*
G01X-276788Y-2440588D01*
G01X-276788Y-2350588D01*
G01X-278772Y-2331707D01*
G01X-284639Y-2313651D01*
G01X-294132Y-2297209D01*
G01X-306835Y-2283101D01*
G01X-322195Y-2271941D01*
G01X-339538Y-2264219D01*
G01X-358109Y-2260272D01*
G01X-377094Y-2260272D01*
G01X-395665Y-2264219D01*
G01X-413008Y-2271941D01*
G01X-428368Y-2283101D01*
G01X-441071Y-2297209D01*
G01X-450564Y-2313651D01*
G01X-456431Y-2331707D01*
G01X-458415Y-2350588D01*
G01X-458415Y-2400273D01*
G01X-470582Y-2389520D01*
G01X-484878Y-2381820D01*
G01X-500552Y-2377580D01*
G01X-516780Y-2377022D01*
G01X-532708Y-2380174D01*
G01X-547500Y-2386872D01*
G01X-560377Y-2396763D01*
G01X-570663Y-2409327D01*
G01X-577816Y-2423904D01*
G01X-581461Y-2439727D01*
G01X-1018714Y-2439727D01*
G01X-1018714Y-2439719D01*
G01X-1022362Y-2423893D01*
G01X-1029519Y-2409315D01*
G01X-1039810Y-2396751D01*
G01X-1052692Y-2386862D01*
G01X-1067488Y-2380167D01*
G01X-1083421Y-2377019D01*
G01X-1099651Y-2377584D01*
G01X-1115326Y-2381832D01*
G01X-1129621Y-2389540D01*
G01X-1141785Y-2400301D01*
G01X-1141785Y-2350588D01*
G01X-1141785Y-2350588D01*
G01X-1143769Y-2331707D01*
G01X-1149636Y-2313651D01*
G01X-1159129Y-2297209D01*
G01X-1171832Y-2283101D01*
G01X-1187192Y-2271941D01*
G01X-1204535Y-2264219D01*
G01X-1223106Y-2260272D01*
G01X-1242091Y-2260272D01*
G01X-1260662Y-2264219D01*
G01X-1278005Y-2271941D01*
G01X-1293365Y-2283101D01*
G01X-1306068Y-2297209D01*
G01X-1315561Y-2313651D01*
G01X-1321428Y-2331707D01*
G01X-1323412Y-2350588D01*
G01X-1691398Y-2350588D01*
G01X-1702320Y-2333772D01*
G01X-1735227Y-2287367D01*
G01X-1769998Y-2242340D01*
G01X-1774878Y-2237362D01*
G01X-1780630Y-2233424D01*
G01X-1830684Y-2207100D01*
G01X-1881690Y-2182675D01*
G01X-1933578Y-2160181D01*
G01X-2020077Y-2126710D01*
G01X-2107910Y-2096914D01*
G01X-2175993Y-2074102D01*
G01X-2243245Y-2048946D01*
G01X-2321164Y-2017251D01*
G01X-2398364Y-1983839D01*
G01X-2398364Y-1983839D01*
G01X-2473438Y-1949350D01*
G01X-2547727Y-1913201D01*
G01X-2606693Y-1882182D01*
G01X-2664352Y-1848798D01*
G01X-2762444Y-1790412D01*
G01X-2847044Y-1742509D01*
G01X-2893304Y-1717274D01*
G01X-2875080Y-1712172D01*
G01X-2858215Y-1703588D01*
G01X-2843365Y-1691856D01*
G01X-2831111Y-1677435D01*
G01X-2821931Y-1660886D01*
G01X-2816182Y-1642856D01*
G01X-2814089Y-1624047D01*
G01X-2815734Y-1605194D01*
G01X-2821052Y-1587032D01*
G01X-2829837Y-1570270D01*
G01X-2841744Y-1555561D01*
G01X-2856310Y-1543479D01*
G01X-2872967Y-1534497D01*
G01X-2891064Y-1528963D01*
G01X-2909896Y-1527094D01*
G01X-3099896Y-1527094D01*
G01X-3118588Y-1528935D01*
G01X-3136562Y-1534387D01*
G01X-3153127Y-1543241D01*
G01X-3167647Y-1555157D01*
G01X-3179562Y-1569676D01*
G01X-3188416Y-1586241D01*
G01X-3193869Y-1604215D01*
G01X-3195710Y-1622908D01*
G01X-3193869Y-1641600D01*
G01X-3188416Y-1659574D01*
G01X-3179562Y-1676139D01*
G01X-3167647Y-1690658D01*
G01X-3153127Y-1702574D01*
G01X-3136562Y-1711428D01*
G01X-3118588Y-1716880D01*
G01X-3099896Y-1718721D01*
G01X-2977855Y-1718721D01*
G01X-2982975Y-1728990D01*
G01X-2985665Y-1740145D01*
G01X-2985788Y-1751618D01*
G01X-2983339Y-1762828D01*
G01X-2983339Y-1762828D01*
G01X-2927909Y-1924096D01*
G01X-2927909Y-1924096D01*
G01X-2890646Y-2029819D01*
G01X-2852372Y-2135181D01*
G01X-2852372Y-2135181D01*
G01X-2852372Y-2135181D01*
G01X-2737222Y-2444523D01*
G01X-2737222Y-2444523D01*
G01X-2712503Y-2515360D01*
G01X-2691174Y-2587291D01*
G01X-2673282Y-2660153D01*
G01X-2659215Y-2732474D01*
G01X-2648772Y-2805406D01*
G01X-2641980Y-2878769D01*
G01X-2639414Y-2939872D01*
G01X-2639957Y-3001026D01*
G01X-2643606Y-3062073D01*
G01X-2647069Y-3080658D01*
G01X-2654125Y-3098196D01*
G01X-2664496Y-3114001D01*
G01X-2677777Y-3127454D01*
G01X-2688449Y-3134207D01*
G01X-2700489Y-3138022D01*
G01X-2713102Y-3138648D01*
G01X-2725460Y-3136045D01*
G01X-2766259Y-3119718D01*
G01X-2805445Y-3099831D01*
G01X-2842711Y-3076542D01*
G01X-2905397Y-3031232D01*
G01X-2965950Y-2983108D01*
G01X-3024243Y-2932271D01*
G01X-3024243Y-2932271D01*
G01X-3172611Y-2794716D01*
G01X-3318874Y-2654926D01*
G01X-3318874Y-2654926D01*
G01X-3414483Y-2563590D01*
G01X-3511507Y-2473759D01*
G01X-3609923Y-2385456D01*
G01X-3694998Y-2312242D01*
G01X-3781929Y-2241243D01*
G01X-3870659Y-2172505D01*
G01X-3948573Y-2115567D01*
G01X-4028177Y-2061017D01*
G01X-4109398Y-2008906D01*
G01X-4182566Y-1965784D01*
G01X-4257617Y-1926031D01*
G01X-4334396Y-1889728D01*
G01X-4366271Y-1876727D01*
G01X-4398905Y-1865770D01*
G01X-4432167Y-1856899D01*
G01X-4490017Y-1845174D01*
G01X-4548449Y-1836820D01*
G01X-4622740Y-1829998D01*
G01X-4697255Y-1826368D01*
G01X-4797341Y-1824516D01*
G01X-4897444Y-1824409D01*
G01X-4897444Y-1824409D01*
G01X-5020071Y-1826015D01*
G01X-5142672Y-1828957D01*
G01X-5142672Y-1828957D01*
G01X-5182539Y-1831267D01*
G01X-5222210Y-1835841D01*
G01X-5261556Y-1842664D01*
G01X-5291596Y-1850534D01*
G01X-5320566Y-1861717D01*
G01X-5348103Y-1876073D01*
G01X-5376474Y-1894399D01*
G01X-5403418Y-1914765D01*
G01X-5428788Y-1937062D01*
G01X-5464060Y-1968126D01*
G01X-5501463Y-1996588D01*
G01X-5540808Y-2022300D01*
G01X-5559992Y-2032100D01*
G01X-5580367Y-2039095D01*
G01X-5601524Y-2043146D01*
G01X-5623042Y-2044171D01*
G01X-5640231Y-2042261D01*
G01X-5656824Y-2037384D01*
G01X-5672313Y-2029691D01*
G01X-5686225Y-2019416D01*
G01X-5704881Y-2001330D01*
G01X-5721786Y-1981598D01*
G01X-5736797Y-1960390D01*
G01X-5749786Y-1937886D01*
G01X-5766899Y-1901081D01*
G01X-5780862Y-1862968D01*
G01X-5791575Y-1823819D01*
G01X-5798921Y-1784053D01*
G01X-5802874Y-1743809D01*
G01X-5803404Y-1703374D01*
G01X-5800692Y-1667929D01*
G01X-5794656Y-1632896D01*
G01X-5785351Y-1598586D01*
G01X-5778345Y-1580912D01*
G01X-5769094Y-1564303D01*
G01X-5757756Y-1549042D01*
G01X-5744523Y-1535390D01*
G01X-5726734Y-1520776D01*
G01X-5707630Y-1507927D01*
G01X-5696171Y-1502546D01*
G01X-5683841Y-1499679D01*
G01X-5668524Y-1499190D01*
G01X-5653373Y-1501493D01*
G01X-5624416Y-1509575D01*
G01X-5595995Y-1519380D01*
G01X-5572929Y-1528921D01*
G01X-5550478Y-1539828D01*
G01X-5523570Y-1554550D01*
G01X-5497221Y-1570249D01*
G01X-5471555Y-1586848D01*
G01X-5446517Y-1604379D01*
G01X-5427118Y-1619437D01*
G01X-5408685Y-1635664D01*
G01X-5379386Y-1660328D01*
G01X-5347641Y-1681752D01*
G01X-5326750Y-1692664D01*
G01X-5304716Y-1701029D01*
G01X-5281847Y-1706729D01*
G01X-5255413Y-1710570D01*
G01X-5228754Y-1712246D01*
G01X-5202048Y-1711746D01*
G01X-5141491Y-1707267D01*
G01X-5081089Y-1701047D01*
G01X-4994827Y-1689787D01*
G01X-4908880Y-1676322D01*
G01X-4823307Y-1660660D01*
G01X-4823307Y-1660660D01*
G01X-4802134Y-1654728D01*
G01X-4782165Y-1645524D01*
G01X-4763901Y-1633279D01*
G01X-4747803Y-1618301D01*
G01X-4743587Y-1612900D01*
G01X-4565014Y-1612900D01*
G01X-4563106Y-1638359D01*
G01X-4557425Y-1663248D01*
G01X-4548098Y-1687013D01*
G01X-4535333Y-1709123D01*
G01X-4519416Y-1729083D01*
G01X-4500701Y-1746448D01*
G01X-4479607Y-1760829D01*
G01X-4456605Y-1771906D01*
G01X-4432210Y-1779431D01*
G01X-4406965Y-1783236D01*
G01X-4381435Y-1783236D01*
G01X-4356190Y-1779431D01*
G01X-4331795Y-1771906D01*
G01X-4308793Y-1760829D01*
G01X-4287699Y-1746448D01*
G01X-4268984Y-1729083D01*
G01X-4253067Y-1709123D01*
G01X-4240302Y-1687013D01*
G01X-4230975Y-1663248D01*
G01X-4225294Y-1638359D01*
G01X-4223386Y-1612900D01*
G01X-4225294Y-1587441D01*
G01X-4230975Y-1562552D01*
G01X-4240302Y-1538787D01*
G01X-4253067Y-1516677D01*
G01X-4268984Y-1496717D01*
G01X-4287699Y-1479352D01*
G01X-4308793Y-1464971D01*
G01X-4331795Y-1453894D01*
G01X-4356190Y-1446369D01*
G01X-4381435Y-1442564D01*
G01X-4406965Y-1442564D01*
G01X-4432210Y-1446369D01*
G01X-4456605Y-1453894D01*
G01X-4479607Y-1464971D01*
G01X-4500701Y-1479352D01*
G01X-4519416Y-1496717D01*
G01X-4535333Y-1516677D01*
G01X-4548098Y-1538787D01*
G01X-4557425Y-1562552D01*
G01X-4563106Y-1587441D01*
G01X-4565014Y-1612900D01*
G01X-4565014Y-1612900D01*
G01X-4743587Y-1612900D01*
G01X-4734274Y-1600967D01*
G01X-4723654Y-1581713D01*
G01X-4717276Y-1563984D01*
G01X-4713779Y-1545469D01*
G01X-4713250Y-1526635D01*
G01X-4715703Y-1507954D01*
G01X-4721077Y-1489894D01*
G01X-4729236Y-1472911D01*
G01X-4739975Y-1457429D01*
G01X-4790788Y-1397395D01*
G01X-4843565Y-1339080D01*
G01X-4898249Y-1282549D01*
G01X-4947609Y-1234754D01*
G01X-4998482Y-1188573D01*
G01X-5023047Y-1168578D01*
G01X-5049050Y-1150493D01*
G01X-5076345Y-1134423D01*
G01X-5101645Y-1122402D01*
G01X-5128033Y-1113008D01*
G01X-5155238Y-1106339D01*
G01X-5185711Y-1101482D01*
G01X-5216431Y-1098561D01*
G01X-5247274Y-1097586D01*
G01X-5283051Y-1096454D01*
G01X-5318685Y-1093064D01*
G01X-5354033Y-1087427D01*
G01X-5374735Y-1081655D01*
G01X-5394214Y-1072572D01*
G01X-5411944Y-1060423D01*
G01X-5424703Y-1047805D01*
G01X-5434794Y-1032966D01*
G01X-5441837Y-1016462D01*
G01X-5448729Y-990066D01*
G01X-5452893Y-963105D01*
G01X-5454286Y-935859D01*
G01X-5452764Y-906355D01*
G01X-5448213Y-877163D01*
G01X-5440681Y-848595D01*
G01X-5430250Y-820954D01*
G01X-5417029Y-794533D01*
G01X-5401806Y-770903D01*
G01X-5384003Y-749151D01*
G01X-5363850Y-729555D01*
G01X-5341606Y-712370D01*
G01X-5317559Y-697816D01*
G01X-5292191Y-686174D01*
G01X-5265659Y-677506D01*
G01X-5238312Y-671925D01*
G01X-5210505Y-669503D01*
G01X-5182604Y-670273D01*
G01X-5153722Y-674268D01*
G01X-5125418Y-681275D01*
G01X-5098008Y-691216D01*
G01X-5071793Y-703981D01*
G01X-5047064Y-719429D01*
G01X-5026342Y-735453D01*
G01X-5007222Y-753359D01*
G01X-4997909Y-765198D01*
G01X-4991253Y-778710D01*
G01X-4986882Y-795226D01*
G01X-4985694Y-812268D01*
G01X-4987552Y-843772D01*
G01X-4991545Y-875077D01*
G01X-4994569Y-902434D01*
G01X-4994801Y-929957D01*
G01X-4992241Y-957362D01*
G01X-4986915Y-984366D01*
G01X-4978877Y-1010854D01*
G01X-4968284Y-1036428D01*
G01X-4955237Y-1060842D01*
G01X-4939862Y-1083860D01*
G01X-4911358Y-1119020D01*
G01X-4879921Y-1151586D01*
G01X-4845787Y-1181311D01*
G01X-4770111Y-1239111D01*
G01X-4692080Y-1293690D01*
G01X-4654009Y-1317648D01*
G01X-4614669Y-1339459D01*
G01X-4574181Y-1359056D01*
G01X-4554955Y-1365816D01*
G01X-4534864Y-1369226D01*
G01X-4514485Y-1369190D01*
G01X-4494405Y-1365708D01*
G01X-4475204Y-1358880D01*
G01X-4457542Y-1348748D01*
G01X-4442090Y-1335487D01*
G01X-4429395Y-1319567D01*
G01X-4419907Y-1301551D01*
G01X-4413961Y-1282076D01*
G01X-4406930Y-1240725D01*
G01X-4402699Y-1198994D01*
G01X-4401286Y-1157073D01*
G01X-4402169Y-1116440D01*
G01X-4404818Y-1075884D01*
G01X-4409348Y-1043474D01*
G01X-4417212Y-1011709D01*
G01X-4423253Y-994918D01*
G01X-4430965Y-978826D01*
G01X-4440269Y-963599D01*
G01X-4452157Y-949487D01*
G01X-4466632Y-938043D01*
G01X-4483106Y-929731D01*
G01X-4491008Y-925876D01*
G01X-4498117Y-920705D01*
G01X-4511184Y-908479D01*
G01X-4523342Y-895350D01*
G01X-4536055Y-879538D01*
G01X-4547663Y-862898D01*
G01X-4557651Y-846166D01*
G01X-4566379Y-828743D01*
G01X-4575129Y-804745D01*
G01X-4580049Y-779679D01*
G01X-4581021Y-754154D01*
G01X-4578020Y-728787D01*
G01X-4571120Y-704193D01*
G01X-4560220Y-680124D01*
G01X-4545901Y-657919D01*
G01X-4528473Y-638061D01*
G01X-4508314Y-620980D01*
G01X-4485864Y-607049D01*
G01X-4461053Y-596273D01*
G01X-4434955Y-589161D01*
G01X-4408108Y-585861D01*
G01X-4381065Y-586439D01*
G01X-4354383Y-590885D01*
G01X-4329377Y-598960D01*
G01X-4305867Y-610700D01*
G01X-4284387Y-625836D01*
G01X-4265423Y-644028D01*
G01X-4249407Y-664860D01*
G01X-4234650Y-689427D01*
G01X-4221857Y-715071D01*
G01X-4215699Y-732436D01*
G01X-4212489Y-750579D01*
G01X-4212181Y-770514D01*
G01X-4214930Y-790261D01*
G01X-4222946Y-822282D01*
G01X-4232870Y-853763D01*
G01X-4245859Y-895144D01*
G01X-4256235Y-937256D01*
G01X-4263958Y-979934D01*
G01X-4268998Y-1023012D01*
G01X-4271335Y-1066321D01*
G01X-4270823Y-1108521D01*
G01X-4267383Y-1150583D01*
G01X-4261030Y-1192305D01*
G01X-4251797Y-1233485D01*
G01X-4239727Y-1273925D01*
G01X-4222684Y-1320428D01*
G01X-4203205Y-1365964D01*
G01X-4181342Y-1410404D01*
G01X-4157158Y-1453626D01*
G01X-4130719Y-1495506D01*
G01X-4068110Y-1585592D01*
G01X-4002338Y-1673395D01*
G01X-3933487Y-1758805D01*
G01X-3933487Y-1758805D01*
G01X-3897064Y-1800104D01*
G01X-3858505Y-1839416D01*
G01X-3817920Y-1876632D01*
G01X-3772862Y-1914141D01*
G01X-3726241Y-1949686D01*
G01X-3678141Y-1983205D01*
G01X-3635517Y-2010487D01*
G01X-3591947Y-2036231D01*
G01X-3547485Y-2060403D01*
G01X-3531634Y-2066637D01*
G01X-3514828Y-2069414D01*
G01X-3497814Y-2068611D01*
G01X-3481345Y-2064263D01*
G01X-3466151Y-2056564D01*
G01X-3452906Y-2045854D01*
G01X-3445705Y-2036697D01*
G01X-3440867Y-2026099D01*
G01X-3438664Y-2014659D01*
G01X-3439222Y-2003023D01*
G01X-3442509Y-1991846D01*
G01X-3442509Y-1991846D01*
G01X-3495831Y-1868911D01*
G01X-3527817Y-1797389D01*
G01X-3560812Y-1726328D01*
G01X-3640910Y-1560713D01*
G01X-3640910Y-1560713D01*
G01X-3675253Y-1489806D01*
G01X342572Y-1489806D01*
G01X342572Y-1508791D01*
G01X346519Y-1527362D01*
G01X354241Y-1544705D01*
G01X365401Y-1560065D01*
G01X379509Y-1572768D01*
G01X395951Y-1582261D01*
G01X414007Y-1588128D01*
G01X432888Y-1590112D01*
G01X522888Y-1590112D01*
G01X541459Y-1588193D01*
G01X559245Y-1582517D01*
G01X575494Y-1573324D01*
G01X589520Y-1561002D01*
G01X600730Y-1546073D01*
G01X608650Y-1529166D01*
G01X612945Y-1510998D01*
G01X613252Y-1499298D01*
G01X772089Y-1499298D01*
G01X773930Y-1517991D01*
G01X779382Y-1535965D01*
G01X788236Y-1552530D01*
G01X800152Y-1567049D01*
G01X814671Y-1578965D01*
G01X831236Y-1587819D01*
G01X849210Y-1593271D01*
G01X867903Y-1595112D01*
G01X867903Y-1595112D01*
G01X927903Y-1595112D01*
G01X946595Y-1593271D01*
G01X964569Y-1587819D01*
G01X981134Y-1578965D01*
G01X995653Y-1567049D01*
G01X1007569Y-1552530D01*
G01X1016423Y-1535965D01*
G01X1021875Y-1517991D01*
G01X1023717Y-1499298D01*
G01X1021875Y-1480606D01*
G01X1016423Y-1462632D01*
G01X1007569Y-1446067D01*
G01X995653Y-1431548D01*
G01X981134Y-1419632D01*
G01X964569Y-1410778D01*
G01X946595Y-1405326D01*
G01X927903Y-1403485D01*
G01X867903Y-1403485D01*
G01X849210Y-1405326D01*
G01X831236Y-1410778D01*
G01X814671Y-1419632D01*
G01X800152Y-1431548D01*
G01X788236Y-1446067D01*
G01X779382Y-1462632D01*
G01X773930Y-1480606D01*
G01X772089Y-1499298D01*
G01X613252Y-1499298D01*
G01X613435Y-1492334D01*
G01X610097Y-1473966D01*
G01X603074Y-1456667D01*
G01X592662Y-1441171D01*
G01X579301Y-1428131D01*
G01X563555Y-1418099D01*
G01X576866Y-1408795D01*
G01X587707Y-1396703D01*
G01X595509Y-1382459D01*
G01X599859Y-1366812D01*
G01X600531Y-1350585D01*
G01X597489Y-1334632D01*
G01X590892Y-1319792D01*
G01X581087Y-1306845D01*
G01X568591Y-1296473D01*
G01X554060Y-1289219D01*
G01X538259Y-1285467D01*
G01X522019Y-1285414D01*
G01X506193Y-1289062D01*
G01X491615Y-1296219D01*
G01X479051Y-1306510D01*
G01X469162Y-1319392D01*
G01X462467Y-1334188D01*
G01X459319Y-1350121D01*
G01X459884Y-1366351D01*
G01X464132Y-1382026D01*
G01X471840Y-1396321D01*
G01X482601Y-1408485D01*
G01X432888Y-1408485D01*
G01X432888Y-1408485D01*
G01X414007Y-1410469D01*
G01X395951Y-1416336D01*
G01X379509Y-1425829D01*
G01X365401Y-1438532D01*
G01X354241Y-1453892D01*
G01X346519Y-1471235D01*
G01X342572Y-1489806D01*
G01X-3675253Y-1489806D01*
G01X-3693706Y-1451708D01*
G01X-3744721Y-1341859D01*
G01X-3793943Y-1231194D01*
G01X-3831710Y-1140719D01*
G01X-3866758Y-1049156D01*
G01X-3899055Y-956587D01*
G01X-3899055Y-956587D01*
G01X-3921392Y-885450D01*
G01X-3941367Y-813614D01*
G01X-3958960Y-741158D01*
G01X-3963027Y-715222D01*
G01X-3963638Y-688976D01*
G01X-3960783Y-662879D01*
G01X-3954512Y-637386D01*
G01X-3948629Y-622325D01*
G01X-3940842Y-608154D01*
G01X-3937731Y-604600D01*
G01X-3933700Y-602137D01*
G01X-3925163Y-599723D01*
G01X-3916295Y-599430D01*
G01X-3891626Y-602471D01*
G01X-3867224Y-607204D01*
G01X-3790647Y-626109D01*
G01X-3714713Y-647451D01*
G01X-3639500Y-671210D01*
G01X-3478186Y-726560D01*
G01X-3317846Y-784670D01*
G01X-3151915Y-848081D01*
G01X-2987118Y-914384D01*
G01X-2897276Y-952527D01*
G01X-2808233Y-992499D01*
G01X-2720027Y-1034285D01*
G01X-2720027Y-1034285D01*
G01X-2720027Y-1034285D01*
G01X-2585060Y-1098545D01*
G01X-2585060Y-1098545D01*
G01X-2468910Y-1150779D01*
G01X-2468910Y-1150779D01*
G01X-2368654Y-1193796D01*
G01X-2368654Y-1193796D01*
G01X-2355449Y-1197211D01*
G01X-2341823Y-1196617D01*
G01X-2328967Y-1192064D01*
G01X-2318003Y-1183951D01*
G01X-2310861Y-1174632D01*
G01X-2306387Y-1163777D01*
G01X-2304888Y-1152132D01*
G01X-2306469Y-1140497D01*
G01X-2311019Y-1129673D01*
G01X-2362230Y-1043092D01*
G01X-2424457Y-942485D01*
G01X-2500492Y-825998D01*
G01X-2553136Y-744233D01*
G01X-2603224Y-660878D01*
G01X-2623406Y-624809D01*
G01X342572Y-624809D01*
G01X342572Y-643794D01*
G01X346519Y-662365D01*
G01X354241Y-679708D01*
G01X365401Y-695068D01*
G01X379509Y-707771D01*
G01X395951Y-717264D01*
G01X414007Y-723131D01*
G01X432888Y-725115D01*
G01X482573Y-725115D01*
G01X471820Y-737282D01*
G01X464120Y-751578D01*
G01X459880Y-767252D01*
G01X459322Y-783480D01*
G01X462474Y-799408D01*
G01X469172Y-814200D01*
G01X479063Y-827077D01*
G01X491627Y-837363D01*
G01X506204Y-844516D01*
G01X522027Y-848161D01*
G01X538264Y-848106D01*
G01X554062Y-844354D01*
G01X568590Y-837103D01*
G01X581085Y-826732D01*
G01X590888Y-813788D01*
G01X597486Y-798952D01*
G01X600530Y-783002D01*
G01X599862Y-766778D01*
G01X595516Y-751133D01*
G01X587720Y-736890D01*
G01X576885Y-724796D01*
G01X563580Y-715489D01*
G01X579320Y-705453D01*
G01X592676Y-692411D01*
G01X603084Y-676914D01*
G01X610102Y-659616D01*
G01X613436Y-641249D01*
G01X613253Y-634301D01*
G01X772089Y-634301D01*
G01X773930Y-652994D01*
G01X779382Y-670968D01*
G01X788236Y-687533D01*
G01X800152Y-702052D01*
G01X814671Y-713968D01*
G01X831236Y-722822D01*
G01X849210Y-728274D01*
G01X867903Y-730115D01*
G01X867903Y-730115D01*
G01X927903Y-730115D01*
G01X946595Y-728274D01*
G01X964569Y-722822D01*
G01X981134Y-713968D01*
G01X995653Y-702052D01*
G01X1007569Y-687533D01*
G01X1016423Y-670968D01*
G01X1021875Y-652994D01*
G01X1023717Y-634301D01*
G01X1021875Y-615609D01*
G01X1016423Y-597635D01*
G01X1007569Y-581070D01*
G01X995653Y-566551D01*
G01X981134Y-554635D01*
G01X964569Y-545781D01*
G01X946595Y-540329D01*
G01X927903Y-538488D01*
G01X867903Y-538488D01*
G01X849210Y-540329D01*
G01X831236Y-545781D01*
G01X814671Y-554635D01*
G01X800152Y-566551D01*
G01X788236Y-581070D01*
G01X779382Y-597635D01*
G01X773930Y-615609D01*
G01X772089Y-634301D01*
G01X613253Y-634301D01*
G01X612943Y-622588D01*
G01X608646Y-604422D01*
G01X600725Y-587518D01*
G01X589514Y-572592D01*
G01X575489Y-560272D01*
G01X559241Y-551081D01*
G01X541457Y-545406D01*
G01X522888Y-543488D01*
G01X522888Y-543488D01*
G01X432888Y-543488D01*
G01X414007Y-545472D01*
G01X395951Y-551339D01*
G01X379509Y-560832D01*
G01X365401Y-573535D01*
G01X354241Y-588895D01*
G01X346519Y-606238D01*
G01X342572Y-624809D01*
G01X-2623406Y-624809D01*
G01X-2650708Y-576012D01*
G01X-2695543Y-489718D01*
G01X-2700798Y-481952D01*
G01X-2707890Y-475816D01*
G01X-2716331Y-471732D01*
G01X-2725543Y-469979D01*
G01X-3278886Y-438533D01*
G01X-3278886Y-332892D01*
G01X-3195710Y-332892D01*
G01X-3193869Y-351585D01*
G01X-3188416Y-369559D01*
G01X-3179562Y-386124D01*
G01X-3167647Y-400643D01*
G01X-3153127Y-412559D01*
G01X-3136562Y-421413D01*
G01X-3118588Y-426865D01*
G01X-3099896Y-428706D01*
G01X-2909896Y-428706D01*
G01X-2891204Y-426865D01*
G01X-2873230Y-421413D01*
G01X-2856665Y-412559D01*
G01X-2842146Y-400643D01*
G01X-2830230Y-386124D01*
G01X-2821376Y-369559D01*
G01X-2815924Y-351585D01*
G01X-2814083Y-332892D01*
G01X-2815924Y-314200D01*
G01X-2821376Y-296226D01*
G01X-2830230Y-279661D01*
G01X-2842146Y-265142D01*
G01X-2856665Y-253226D01*
G01X-2873230Y-244372D01*
G01X-2891204Y-238920D01*
G01X-2909896Y-237079D01*
G01X-2909896Y-237079D01*
G01X-3099896Y-237079D01*
G01X-3118588Y-238920D01*
G01X-3136562Y-244372D01*
G01X-3153127Y-253226D01*
G01X-3167647Y-265142D01*
G01X-3179562Y-279661D01*
G01X-3188416Y-296226D01*
G01X-3193869Y-314200D01*
G01X-3195710Y-332892D01*
G01X-3278886Y-332892D01*
G01X-3278886Y-139700D01*
G01X-3280316Y-129681D01*
G01X-3284492Y-120462D01*
G01X-3291080Y-112779D01*
G01X-3299555Y-107246D01*
G01X-3302607Y-105821D01*
G01X-3113096Y-105821D01*
G01X-3094404Y-103980D01*
G01X-3076430Y-98528D01*
G01X-3059865Y-89674D01*
G01X-3045346Y-77758D01*
G01X-3033430Y-63239D01*
G01X-3024576Y-46674D01*
G01X-3019124Y-28700D01*
G01X-3017283Y-10008D01*
G01X-3019124Y8685D01*
G01X-3024576Y26659D01*
G01X-3033430Y43224D01*
G01X-3045346Y57743D01*
G01X-3059865Y69659D01*
G01X-3076430Y78513D01*
G01X-3094404Y83965D01*
G01X-3113096Y85806D01*
G01X-3303096Y85806D01*
G37*
G54D10*
G01X-3303096Y85806D02*
G03X-3376841Y-71179I0J-95814D01*
G01X-3472972Y-26318D01*
G01X-3493527Y97010D01*
G03X-3498942Y121430I-232606J-38768D01*
G01X-3536045Y254833D01*
G03X-3574910Y333568I-227191J-63187D01*
G01X-3597893Y364046D01*
G03X-3600953Y367579I-27581J-20798D01*
G02X-3679781Y472182I343627J340961D01*
G01X-3679781Y472182D01*
G02X-3871493Y822431I18766084J10499354D01*
G01X-3871493Y822431D01*
G03X-4078735Y1186574I-7137573J-3821112D01*
G03X-4274775Y1481644I-3516001J-2123317D01*
G03X-4479506Y1736125I-2755225J-2007004D01*
G03X-4712232Y1976142I-2807506J-2489383D01*
G03X-4938853Y2174251I-2726618J-2890353D01*
G03X-5123551Y2295592I-701763J-866947D01*
G03X-5289648Y2354696I-292511J-559087D01*
G03X-5455029Y2358264I-92487J-452281D01*
G02X-5603695Y2376461I-42735J267251D01*
G02X-5703039Y2467203I79401J186679D01*
G02X-5726075Y2604349I191202J102623D01*
G02X-5661848Y2748089I301796J-48631D01*
G02X-5620399Y2793399I396159J-320791D01*
G02X-5602682Y2803311I27528J-28412D01*
G02X-5583992Y2802931I8660J-33831D01*
G02X-5530109Y2782684I-121472J-405107D01*
G02X-5495801Y2760782I-60197J-132118D01*
G02X-5454409Y2719696I-260607J-303931D01*
G02X-5417010Y2670035I-331871J-288846D01*
G02X-5391025Y2620759I-261568J-169423D01*
G03X-5335637Y2518846I525294J219482D01*
G03X-5263736Y2446514I231884J158599D01*
G03X-5165676Y2399242I198667J286772D01*
G03X-5028299Y2366605I343620J1140915D01*
G03X-4895571Y2355474I127823J727328D01*
G03X-4801643Y2392741I-926J139336D01*
G03X-4759584Y2483861I-89939J96781D01*
G03X-4766990Y2611744I-636430J27298D01*
G03X-4805417Y2775707I-1161562J-185742D01*
G03X-4865691Y2922128I-853771J-265837D01*
G03X-4940554Y3036336I-600491J-311979D01*
G03X-5030103Y3105621I-192077J-155739D01*
G02X-5063099Y3124762I80729J177180D01*
G02X-5103210Y3157044I279071J387811D01*
G02X-5140862Y3194652I334106J372157D01*
G02X-5168353Y3230337I219463J197496D01*
G02X-5196835Y3280503I379215J248471D01*
G02X-5204715Y3309165I72887J35452D01*
G02X-5201619Y3335588I66558J5596D01*
G02X-5182348Y3381041I279878J-91853D01*
G02X-5162505Y3415100I409213J-215599D01*
G02X-5139297Y3448291I425871J-273065D01*
G02X-5116595Y3475735I346610J-263620D01*
G02X-5103624Y3486968I51180J-45992D01*
G02X-5043004Y3508089I71078J-106449D01*
G02X-4925423Y3508183I59366J-724161D01*
G02X-4809989Y3489464I-58220J-724300D01*
G02X-4757710Y3459990I-26689J-108442D01*
G02X-4723531Y3401140I-93865J-93865D01*
G02X-4708980Y3299374I-397955J-108825D01*
G02X-4720188Y3193184I-437706J-7490D01*
G02X-4754646Y3117928I-200987J46512D01*
G03X-4784544Y3057642I159624J-116719D01*
G03X-4787995Y2991744I134637J-40091D01*
G03X-4764129Y2916473I318171J59462D01*
G03X-4703467Y2790434I3302765J1512004D01*
G03X-4569095Y2561228I1901033J960485D01*
G03X-4437976Y2447002I278971J187862D01*
G03X-4299864Y2458498I59428J121422D01*
G03X-4201725Y2577761I-174181J243340D01*
G03X-4179351Y2644325I-309967J141231D01*
G03X-4174236Y2710540I-225932J50759D01*
G03X-4187266Y2784010I-343026J-22945D01*
G03X-4219149Y2880353I-1378618J-402791D01*
G02X-4260548Y3035139I803795J297908D01*
G02X-4250644Y3129361I173557J29390D01*
G02X-4204960Y3177510I82778J-32793D01*
G02X-4107464Y3198786I97496J-212749D01*
G02X-3970657Y3150729I-0J-218758D01*
G02X-3884841Y3022852I-160810J-200650D01*
G02X-3885236Y2861937I-270424J-79795D01*
G02X-3973197Y2731904I-252013J75707D01*
G03X-4038969Y2668506I303752J-380942D01*
G03X-4079953Y2599030I173804J-149356D01*
G03X-4101453Y2509368I358826J-133449D01*
G03X-4114621Y2361973I2880985J-331677D01*
G03X-4121095Y2220980I3977985J-253294D01*
G03X-4114986Y2140443I389285J-10972D01*
G03X-4090443Y2083361I136129J24714D01*
G03X-4040716Y2045376I89470J65585D01*
G03X-3986456Y2039329I38708J100872D01*
G03X-3935538Y2057350I-19990J137430D01*
G03X-3886645Y2095987I-120062J202186D01*
G03X-3836344Y2153733I-523831J507075D01*
G02X-3759180Y2232027I380230J-297574D01*
G02X-3698303Y2257669I75038J-93063D01*
G02X-3648206Y2246161I9014J-75558D01*
G02X-3591146Y2191376I-110357J-172048D01*
G02X-3550801Y2108256I-238789J-167255D01*
G02X-3539882Y2019660I-252402J-76077D01*
G02X-3558780Y1938420I-231360J11000D01*
G02X-3603042Y1876735I-164857J71571D01*
G02X-3649738Y1840455I-264660J292446D01*
G02X-3667739Y1835007I-18075J27261D01*
G02X-3700855Y1841324I-200J88904D01*
G02X-3797392Y1882304I874918J2195285D01*
G03X-3975365Y1923966I-195192J-432859D01*
G03X-4102356Y1847292I-4912J-135366D01*
G03X-4113558Y1681125I201910J-97073D01*
G03X-4018748Y1466759I1085380J351897D01*
G03X-3900497Y1283026I1805829J1032311D01*
G03X-3726400Y1052031I5471819J3942913D01*
G01X-3726400Y1052031D01*
G03X-3623809Y881700I1739812J931831D01*
G03X-3559892Y891096I29709J20000D01*
G03X-3532922Y1062299I-575440J178374D01*
G03X-3484494Y1353393I-1887034J463516D01*
G01X-3484494Y1353393D01*
G03X-2942195Y1450229I-2649714J16405780D01*
G01X-2942195Y1450229D01*
G03X-2523726Y1477670I-362059J8725811D01*
G01X-2523726Y1477670D01*
G03X-2504355Y1485535I-3201J35671D01*
G03X-2314242Y1664064I-1140884J1405401D01*
G03X-2247390Y1744302I-767227J707207D01*
G03X-2184140Y1835912I-1104077J829919D01*
G03X-2132402Y1925698I-1063195J672446D01*
G03X-2101514Y2001824I-379394J198271D01*
G03X-2082083Y2110797I-470842J140175D01*
G03X-2090406Y2215388I-367439J23385D01*
G03X-2131356Y2351177I-981826J-222018D01*
G03X-2237953Y2623941I-14955367J-5687390D01*
G02X-2415612Y3109980I7680458J3082875D01*
G02X-2439661Y3345621I521209J172242D01*
G02X-2360469Y3505438I262439J-30515D01*
G02X-2123803Y3687666I941229J-977611D01*
G03X-2014232Y3762407I-653149J1075202D01*
G03X-1905313Y3852994I-1013353J1329212D01*
G03X-1804179Y3952732I-1127681J1244600D01*
G03X-1718208Y4055138I-947048J882344D01*
G02X-1632896Y4158483I1232321J-930412D01*
G02X-1550724Y4238433I649712J-585560D01*
G02X-1464589Y4301924I489972J-574552D01*
G02X-1367472Y4354862I453897J-717133D01*
G02X-1214021Y4411673I434229J-937239D01*
G02X-1105608Y4420004I74905J-265188D01*
G02X-1003556Y4385834I-32741J-267262D01*
G02X-871893Y4294384I-485306J-839215D01*
G03X-795878Y4233225I2516757J3050295D01*
G01X-795878Y4233225D01*
G01X-668385Y4133814D01*
G01X-668385Y4133814D01*
G01X-521153Y4020402D01*
G01X-521153Y4020402D01*
G01X-372495Y3907295D01*
G01X-372495Y3907295D01*
G02X-229596Y3794288I-2536649J-3354462D01*
G02X-96970Y3679165I-2323189J-2810361D01*
G02X11062Y3576109I-2197826J-2412096D01*
G02X57133Y3517575I-221171J-221477D01*
G02X104107Y3403273I-336106J-204930D01*
G02X127028Y3246202I-884824J-209327D01*
G02X122350Y3082993I-947157J-54525D01*
G02X88937Y2947837I-543647J62691D01*
G03X66811Y2884132I882575J-342227D01*
G03X34973Y2777692I6634528J-2042508D01*
G01X34973Y2777692D01*
G03X222Y2654226I7428877J-2157539D01*
G01X222Y2654226D01*
G03X-32889Y2528781I7819552J-2131073D01*
G03X-71433Y2365594I4483848J-1145202D01*
G03X-87581Y2256774I808840J-175638D01*
G03X-85566Y2171827I405798J-32868D01*
G03X-64700Y2093546I304749J39308D01*
G03X45721Y1933121I431294J178648D01*
G03X270522Y1742639I1846092J1950810D01*
G03X595143Y1518638I2702974J3569906D01*
G01X595143Y1518638D01*
G03X1035696Y1254580I6822359J10882885D01*
G01X1035696Y1254580D01*
G03X1314542Y1101560I4372803J7637862D01*
G01X1314542Y1101560D01*
G03X1432067Y1090722I71877J136783D01*
G03X1526261Y1162480I-50855J164456D01*
G01X1526261Y1162480D01*
G03X1711352Y1461159I-10664947J6815738D01*
G01X1711352Y1461159D01*
G03X1841962Y1698883I-3020407J1814204D01*
G03X1930004Y1908822I-1525023J762980D01*
G03X1973501Y2076608I-1070818J367133D01*
G03X1943742Y2189451I-136338J24390D01*
G03X1876597Y2238899I-133170J-110521D01*
G03X1793657Y2253337I-73894J-179037D01*
G03X1699000Y2233380I14082J-301248D01*
G03X1594036Y2183444I279018J-721768D01*
G02X1514087Y2150642I-165529J289618D01*
G02X1457702Y2150728I-28031J105603D01*
G02X1407060Y2179465I30112J112057D01*
G02X1349795Y2250006I265995J274448D01*
G02X1335325Y2303471I79667J50253D01*
G02X1351400Y2387301I275681J-9409D01*
G02X1395686Y2470596I309653J-111214D01*
G02X1457057Y2529044I193812J-142059D01*
G02X1501178Y2552244I138101J-209076D01*
G02X1518184Y2553670I10800J-26694D01*
G02X1546603Y2540834I-16347J-74070D01*
G02X1614889Y2487245I-750890J-1027126D01*
G03X1734084Y2399610I727319J864369D01*
G03X1832605Y2382286I70073J109697D01*
G03X1902567Y2450989I-20302J90648D01*
G03X1916714Y2569061I-485656J118072D01*
G03X1904296Y2722030I-948378J2D01*
G03X1865490Y2851722I-520316J-85037D01*
G03X1794227Y2969338I-502644J-224153D01*
G03X1685958Y3087358I-868594J-688159D01*
G02X1610867Y3163516I1010424J1071363D01*
G02X1581597Y3207895I123765J113468D01*
G02X1573345Y3246737I84930J38342D01*
G02X1580015Y3312307I343709J-1838D01*
G02X1593035Y3360697I375685J-75137D01*
G02X1613920Y3413323I541328J-184381D01*
G02X1638472Y3460726I480686J-218901D01*
G02X1660462Y3490760I155484J-90776D01*
G02X1714773Y3528530I108709J-98381D01*
G02X1796386Y3547453I102456J-256431D01*
G02X1876877Y3540921I19550J-258275D01*
G02X1925776Y3513476I-24384J-100727D01*
G02X1949230Y3471806I-62761J-62761D01*
G02X1960340Y3387413I-379978J-92954D01*
G02X1952685Y3287541I-509720J-11158D01*
G02X1925556Y3189175I-534052J94366D01*
G03X1910281Y3080815I230968J-87814D01*
G03X1936862Y2963797I428130J35721D01*
G03X1993626Y2861662I381071J144949D01*
G03X2076975Y2799207I151652J115542D01*
G03X2177290Y2810883I39006J101647D01*
G03X2262702Y2890143I-219690J322390D01*
G03X2346647Y3021479I-586457J467337D01*
G03X2422385Y3195371I-1575805J789783D01*
G03X2470963Y3332336I-4226420J1576102D01*
G03X2486186Y3407086I-292678J98527D01*
G03X2474895Y3471045I-129955J10035D01*
G03X2438168Y3526975I-197901J-89930D01*
G02X2359984Y3670303I258660J234085D01*
G02X2370068Y3804062I195056J52555D01*
G02X2461467Y3901449I183350J-80492D01*
G02X2619114Y3939786I157647J-304971D01*
G02X2727042Y3926668I-0J-450541D01*
G02X2800593Y3890875I-46780J-189596D01*
G02X2843124Y3836059I-87419J-111736D01*
G02X2859086Y3759834I-174027J-76226D01*
G02X2845617Y3705521I-116238J-0D01*
G02X2792565Y3623960I-475853J251486D01*
G02X2728078Y3555528I-417765J329079D01*
G02X2696212Y3543414I-31866J35856D01*
G03X2624029Y3492378I-0J-76564D01*
G03X2568114Y3320206I3294212J-1165009D01*
G03X2522691Y3138293I2070718J-613672D01*
G03X2508086Y2993653I708911J-144641D01*
G03X2511380Y2899591I1344499J3D01*
G03X2534753Y2842496I98258J6891D01*
G03X2590471Y2813110I64818J55384D01*
G03X2671259Y2808786I80786J752601D01*
G03X2825487Y2830722I0J553145D01*
G03X2966300Y2894897I-149251J514064D01*
G03X3074786Y2991904I-252304J391322D01*
G03X3135368Y3112739I-240470J196166D01*
G02X3195099Y3247453I417241J-104404D01*
G02X3276501Y3308806I128703J-86082D01*
G02X3353592Y3299575I28472J-88744D01*
G02X3427586Y3220086I-105300J-172205D01*
G02X3448945Y3173473I-478711J-247552D01*
G02X3467210Y3122030I-619363J-248872D01*
G02X3479841Y3074236I-563644J-174522D01*
G02X3483086Y3044367I-135823J-29868D01*
G02X3462975Y2982717I-104552J0D01*
G02X3392884Y2913971I-242174J176811D01*
G02X3300177Y2868834I-187856J268065D01*
G02X3219727Y2864908I-48038J158128D01*
G03X2979172Y2815874I-62043J-310213D01*
G03X2682534Y2570783I1195008J-1748400D01*
G03X2377163Y2212746I1996234J-2011839D01*
G03X2116229Y1789920I2878281J-2068170D01*
G03X2041572Y1640540I3833924J-2009450D01*
G01X2041572Y1640540D01*
G03X1952388Y1448485I10125091J-4818477D01*
G03X1863420Y1247064I10712646J-4852161D01*
G01X1863420Y1247064D01*
G03X1788756Y1066977I6610612J-2846265D01*
G02X1722400Y908787I-4501929J1795427D01*
G02X1657113Y769835I-2883568J1270050D01*
G02X1598187Y657043I-3195032J1597365D01*
G02X1579502Y637131I-47629J25972D01*
G02X1552774Y631252I-21511J34101D01*
G02X1447225Y650092I148053J1134532D01*
G02X1292473Y691412I474589J2087903D01*
G02X1060738Y765651I3056170J9938544D01*
G01X1060738Y765651D01*
G03X870241Y828187I-6991043J-20974496D01*
G01X870241Y828187D01*
G03X703105Y880965I-3966324J-12269514D01*
G01X703105Y880965D01*
G01X559951Y924656D01*
G01X559951Y924656D01*
G03X520981Y930414I-38970J-128997D01*
G03X478222Y869516I0J-45461D01*
G03X513569Y777235I2403654J867790D01*
G03X564666Y661167I1988145J805954D01*
G03X632570Y524407I4152016J1976338D01*
G02X743577Y300999I-6788620J-3512413D01*
G02X786881Y182770I-607185J-289441D01*
G02X803828Y68391I-508034J-133717D01*
G02X805641Y-131217I-3596538J-132480D01*
G01X805641Y-131217D01*
G02X798222Y-276696I-2254865J42069D01*
G01X798222Y-276696D01*
G02X781453Y-420281I-2182901J182158D01*
G03X798753Y-456501I35416J-5326D01*
G02X821435Y-477558I-36203J-61740D01*
G03X838346Y-490742I29465J20358D01*
G01X1056795Y-572501D01*
G03X1074739Y-574365I12554J33542D01*
G02X1398009Y-535360I790763J-5194686D01*
G03X1411083Y-531598I-3186J35672D01*
G02X1738128Y-370302I6325035J-12412505D01*
G01X1738128Y-370302D01*
G02X1940492Y-286613I890599J-1866985D01*
G02X2032663Y-256295I754244J-2137747D01*
G02X2048200Y-255613I9089J-29763D01*
G02X2064733Y-305948I-343361J-140661D01*
G02X2075346Y-429923I-377561J-94762D01*
G02X2050092Y-612334I-1471156J110717D01*
G02X1990083Y-849263I-2494012J505614D01*
G02X1889318Y-1155346I-7027591J2143926D01*
G01X1889318Y-1155346D01*
G01X1830898Y-1319288D01*
G01X1830898Y-1319288D01*
G01X1776576Y-1469173D01*
G01X1776576Y-1469173D01*
G01X1730372Y-1594570D01*
G01X1730372Y-1594570D01*
G02X1711929Y-1640357I-837801J310862D01*
G03X1695856Y-1684090I366325J-159454D01*
G03X1713868Y-1738599I47754J-14451D01*
G03X1761707Y-1748901I35255J47483D01*
G03X1816580Y-1735110I-189324J869346D01*
G03X2012048Y-1610711I-111665J391229D01*
G03X2218208Y-1332677I-1692690J1470565D01*
G03X2382651Y-1018026I-1900199J1193379D01*
G03X2433366Y-759399I-585081J249015D01*
G03X2429098Y-687513I-815071J-12320D01*
G03X2418510Y-614044I-931462J-96739D01*
G03X2403630Y-548528I-814551J-150559D01*
G03X2384063Y-499202I-225671J-60978D01*
G02X2344942Y-376484I312366J167173D01*
G02X2360742Y-275950I181593J22968D01*
G02X2422475Y-210377I130592J-61098D01*
G02X2524400Y-184464I101925J-187497D01*
G02X2632414Y-216492I-0J-198155D01*
G02X2695974Y-297791I-86611J-133207D01*
G02X2697536Y-405051I-162008J-56000D01*
G02X2633012Y-505835I-217383J68124D01*
G03X2588307Y-555863I212836J-235181D01*
G03X2561319Y-612257I144173J-103650D01*
G03X2553215Y-678186I218469J-60317D01*
G03X2559768Y-760916I764561J18939D01*
G03X2569212Y-821301I1389526J186379D01*
G03X2580704Y-876300I952299J170273D01*
G03X2592550Y-921101I959497J229748D01*
G03X2610745Y-951894I68970J19981D01*
G03X2692253Y-963476I48463J48463D01*
G03X2811235Y-892655I-987853J1794997D01*
G03X2935968Y-803444I-825985J1286678D01*
G03X3037044Y-710441I-587216J739622D01*
G03X3086328Y-647511I-324785J305120D01*
G03X3119414Y-579893I-264974J171557D01*
G03X3137468Y-502232I-352094J122781D01*
G03X3143589Y-408562I-831694J101382D01*
G02X3148482Y-315795I1068329J-9832D01*
G02X3160944Y-267519I159267J-15367D01*
G02X3182891Y-236258I86891J-37669D01*
G02X3229671Y-200604I193532J-205410D01*
G02X3320461Y-166432I135762J-223010D01*
G02X3407734Y-170976I33716J-192813D01*
G02X3484713Y-213162I-54024J-189909D01*
G02X3544878Y-290479I-177603J-200272D01*
G02X3596196Y-429731I-532199J-275209D01*
G02X3587916Y-518256I-136738J-31860D01*
G02X3535623Y-568664I-87759J38713D01*
G02X3421250Y-590586I-114373J287391D01*
G03X3350342Y-599133I0J-298421D01*
G03X3283727Y-624341I69618J-284597D01*
G03X3219189Y-667410I172335J-328127D01*
G03X3153938Y-728497I483471J-581816D01*
G03X3056402Y-845277I871251J-826807D01*
G03X2974489Y-973373I965800J-707837D01*
G03X2919205Y-1087924I998369J-552439D01*
G03X2936131Y-1173280I72254J-30028D01*
G03X2977902Y-1193279I49256J49256D01*
G03X3059648Y-1200922I305777J2829280D01*
G03X3158843Y-1206422I166965J2114311D01*
G03X3271001Y-1208214I112161J3508257D01*
G03X3439761Y-1205369I7J5007038D01*
G03X3529448Y-1191929I-13315J394809D01*
G03X3595392Y-1157290I-44520J164844D01*
G03X3647358Y-1098472I-177409J209110D01*
G02X3674682Y-1064743I180357J-118174D01*
G02X3717145Y-1026631I351421J-348825D01*
G02X3764874Y-992790I320089J-400879D01*
G02X3808502Y-970288I156251J-249399D01*
G02X3870927Y-948181I242190J-584691D01*
G02X3899971Y-945610I20874J-70462D01*
G02X3922442Y-953606I-5803J-51880D01*
G02X3963864Y-985355I-173394J-269118D01*
G02X4008616Y-1056886I-103817J-114717D01*
G02X4028961Y-1184182I-498822J-144995D01*
G02X4017204Y-1318671I-557628J-19010D01*
G02X3974854Y-1416176I-260122J55029D01*
G02X3917379Y-1465942I-127779J89499D01*
G02X3838435Y-1485807I-83685J165776D01*
G02X3756664Y-1470006I-4952J193865D01*
G02X3691653Y-1422107I70851J164228D01*
G03X3590329Y-1357309I-157771J-135087D01*
G03X3443462Y-1332965I-182679J-646891D01*
G03X3240852Y-1337648I-70721J-1325589D01*
G03X2967248Y-1373140I464917J-4656298D01*
G03X2632948Y-1483511I173937J-1088292D01*
G03X2290706Y-1706920I953095J-1833898D01*
G03X1921884Y-2053235I2072591J-2576841D01*
G03X1507589Y-2542303I6315234J-5769718D01*
G02X1316451Y-2774515I-5069524J3978056D01*
G02X1196931Y-2884664I-540104J466135D01*
G02X1119180Y-2914945I-96004J131544D01*
G02X1063401Y-2898288I-8328J73833D01*
G02X1024294Y-2822607I69667J83943D01*
G02X1020653Y-2593059I1910071J145101D01*
G02X1050339Y-2313229I2283587J-100768D01*
G02X1115433Y-2020174I2886833J-487477D01*
G03X1152834Y-1878386I-5906521J1633827D01*
G01X1152834Y-1878386D01*
G03X1184547Y-1743894I-4665368J1171100D01*
G03X1208180Y-1630068I-4541920J1002369D01*
G03X1214229Y-1569026I-322634J62791D01*
G03X1205217Y-1513423I-170435J907D01*
G03X1138318Y-1482195I-48392J-16397D01*
G03X1086966Y-1512795I65225J-167849D01*
G03X970395Y-1613592I5650566J-6652624D01*
G02X878035Y-1685282I-626096J711281D01*
G02X738652Y-1775456I-1941009J2847414D01*
G02X582528Y-1866180I-1988558J3242367D01*
G02X432484Y-1943110I-1405818J2557111D01*
G01X432484Y-1943110D01*
G03X228914Y-2047623I1672718J-3508603D01*
G03X76615Y-2144324I703178J-1275751D01*
G03X72493Y-2147841I20287J-27960D01*
G03X-41045Y-2276810I945681J-946992D01*
G03X-46209Y-2286059I28363J-21900D01*
G02X-133626Y-2485870I-1975881J745420D01*
G03X-136726Y-2494912I32026J-16030D01*
G02X-202837Y-2779257I-4464592J888174D01*
G01X-271788Y-2838746D01*
G01X-271788Y-2785603D01*
G03X-463415Y-2785603I-95814J0D01*
G01X-463415Y-2845603D01*
G03X-394845Y-2937462I95814J0D01*
G01X-726312Y-3091730D01*
G03X-734994Y-3097432I15112J-32470D01*
G02X-900332Y-3087706I-77806J87532D01*
G03X-913092Y-3078539I-26768J-23794D01*
G02X-1174680Y-2941517I716815J1686674D01*
G03X-1187593Y-2936528I-19120J-30283D01*
G02X-1197361Y-2934701I80577J457911D01*
G03X-1136785Y-2845603I-35238J89099D01*
G01X-1136785Y-2785603D01*
G03X-1328412Y-2785603I-95814J0D01*
G01X-1328412Y-2845603D01*
G03X-1315036Y-2894433I95814J0D01*
G02X-1492723Y-2738243I208019J415817D01*
G03X-1670187Y-2383470I-7076567J-3318052D01*
G01X-1671332Y-2381481D01*
G03X-1769998Y-2242340I-1185714J-736246D01*
G03X-1780630Y-2233424I-27897J-22466D01*
G03X-1933578Y-2160181I-725984J-1319711D01*
G03X-2107910Y-2096914I-837222J-2035147D01*
G02X-2243245Y-2048946I624337J1976377D01*
G02X-2398364Y-1983839I1393401J3537140D01*
G02X-2547727Y-1913201I1513766J3394089D01*
G02X-2664352Y-1848798I735051J1468861D01*
G03X-2762444Y-1790412I-3597922J-5933167D01*
G03X-2847044Y-1742509I-1823033J-3120962D01*
G01X-2893304Y-1717274D01*
G03X-2909896Y-1527094I-16592J94366D01*
G01X-3099896Y-1527094D01*
G03X-3099896Y-1718721I0J-95814D01*
G01X-2977855Y-1718721D01*
G03X-2983339Y-1762828I42707J-27705D01*
G01X-2983339Y-1762828D01*
G01X-2927909Y-1924096D01*
G01X-2927909Y-1924096D01*
G03X-2852372Y-2135181I11059257J3838519D01*
G01X-2852372Y-2135181D01*
G01X-2737222Y-2444523D01*
G01X-2737222Y-2444523D01*
G02X-2673282Y-2660153I-1479561J-556022D01*
G02X-2641980Y-2878769I-1442152J-318042D01*
G02X-2643606Y-3062073I-1200520J-81009D01*
G02X-2677777Y-3127454I-95172J8121D01*
G02X-2725460Y-3136045I-31441J37884D01*
G02X-2842711Y-3076542I163057J466571D01*
G02X-3024243Y-2932271I960848J1395359D01*
G01X-3024243Y-2932271D01*
G02X-3318874Y-2654926I8989831J9845291D01*
G01X-3318874Y-2654926D01*
G03X-3609923Y-2385456I-5891754J-6071649D01*
G03X-3870659Y-2172505I-2886329J-3267902D01*
G03X-4109398Y-2008906I-1916613J-2540916D01*
G03X-4334396Y-1889728I-985220J-1588042D01*
G03X-4432167Y-1856899I-221175J-496690D01*
G03X-4548449Y-1836820I-231128J-991749D01*
G03X-4697255Y-1826368I-196150J-1728151D01*
G03X-4897444Y-1824409I-156264J-5738599D01*
G01X-4897444Y-1824409D01*
G03X-5142672Y-1828957I86154J-11259356D01*
G01X-5142672Y-1828957D01*
G03X-5261556Y-1842664I20656J-701560D01*
G03X-5348103Y-1876073I55070J-271466D01*
G03X-5428788Y-1937062I234228J-393736D01*
G02X-5540808Y-2022300I-451255J476812D01*
G02X-5623042Y-2044171I-78709J130406D01*
G02X-5686225Y-2019416I2288J98851D01*
G02X-5749786Y-1937886I186137J210654D01*
G02X-5791575Y-1823819I429052J221871D01*
G02X-5803404Y-1703374I465069J106480D01*
G02X-5785351Y-1598586I377245J-11045D01*
G02X-5744523Y-1535390I138415J-44636D01*
G02X-5707630Y-1507927I161559J-178522D01*
G02X-5683841Y-1499679I31196J-51544D01*
G02X-5653373Y-1501493I10325J-83356D01*
G02X-5595995Y-1519380I-120139J-486366D01*
G02X-5550478Y-1539828I-147364J-388900D01*
G02X-5497221Y-1570249I-387464J-740149D01*
G02X-5446517Y-1604379I-438711J-706490D01*
G02X-5408685Y-1635664I-234038J-321524D01*
G03X-5347641Y-1681752I246996J263684D01*
G03X-5281847Y-1706729I102396J170579D01*
G03X-5202048Y-1711746I60317J322255D01*
G03X-5081089Y-1701047I-125428J2107058D01*
G03X-4823307Y-1660660I-396564J3374101D01*
G03X-4723654Y-1581713I-26711J136085D01*
G03X-4739975Y-1457429I-108338J48987D01*
G03X-4898249Y-1282549I-1833434J-1500279D01*
G03X-4998482Y-1188573I-1508650J-1508654D01*
G03X-5076345Y-1134423I-276845J-315021D01*
G03X-5155238Y-1106339I-130895J-242849D01*
G03X-5247274Y-1097586I-92035J-479514D01*
G02X-5354033Y-1087427I0J566055D01*
G02X-5411944Y-1060423I24685J128534D01*
G02X-5441837Y-1016462I58524J71940D01*
G02X-5454286Y-935859I254715J80602D01*
G02X-5417029Y-794533I286669J0D01*
G02X-5317559Y-697816I215470J-122093D01*
G02X-5182604Y-670273I114284J-215571D01*
G02X-5047064Y-719429I-23483J-276193D01*
G02X-5007222Y-753359I-159244J-227354D01*
G02X-4991253Y-778710I-51823J-50348D01*
G02X-4985694Y-812268I-84895J-31304D01*
G02X-4991545Y-875077I-464178J11568D01*
G03X-4986915Y-984366I267505J-43410D01*
G03X-4939862Y-1083860I273820J68622D01*
G03X-4845787Y-1181311I420266J311569D01*
G03X-4692080Y-1293690I1417044J1776872D01*
G03X-4574181Y-1359056I450993J674436D01*
G03X-4475204Y-1358880I49294J109482D01*
G03X-4413961Y-1282076I-44784J98530D01*
G03X-4401286Y-1157073I-610056J125004D01*
G03X-4404818Y-1075884I-934837J2D01*
G03X-4417212Y-1011709I-314142J-27386D01*
G03X-4440269Y-963599I-168247J-51051D01*
G03X-4483106Y-929731I-75665J-51678D01*
G02X-4498117Y-920705I18025J46971D01*
G02X-4523342Y-895350I164083J188472D01*
G02X-4547663Y-862898I225783J194548D01*
G02X-4566379Y-828743I221750J143718D01*
G02X-4571120Y-704193I149353J68050D01*
G02X-4485864Y-607049I168279J-61701D01*
G02X-4354383Y-590885I87257J-166947D01*
G02X-4249407Y-664860I-40959J-169596D01*
G02X-4221857Y-715071I-306594J-200888D01*
G02X-4212489Y-750579I-101507J-45773D01*
G02X-4214930Y-790261I-129224J-11965D01*
G02X-4232870Y-853763I-536670J117329D01*
G03X-4271335Y-1066321I654725J-228238D01*
G03X-4239727Y-1273925I607358J-13738D01*
G03X-4130719Y-1495506I886444J298485D01*
G03X-3933487Y-1758805I2564680J1715639D01*
G03X-3817920Y-1876632I797629J666738D01*
G03X-3678141Y-1983205I898672J1033729D01*
G03X-3547485Y-2060403I785598J1180427D01*
G03X-3452906Y-2045854I37370J71759D01*
G03X-3442509Y-1991846I-34681J34681D01*
G01X-3442509Y-1991846D01*
G01X-3495831Y-1868911D01*
G03X-3560812Y-1726328I-5069098J-2224116D01*
G03X-3640910Y-1560713I-9555473J-4519225D01*
G02X-3793943Y-1231194I6674906J3300209D01*
G02X-3899055Y-956587I3009785J1309486D01*
G02X-3958960Y-741158I2142401J711779D01*
G02X-3954512Y-637386I193792J43676D01*
G02X-3940842Y-608154I118551J-37627D01*
G02X-3933700Y-602137I13186J-8405D01*
G02X-3916295Y-599430I14175J-33824D01*
G02X-3867224Y-607204I-31766J-359262D01*
G02X-3639500Y-671210I-553041J-2404727D01*
G02X-3317846Y-784670I-3144436J-9427016D01*
G02X-2987118Y-914384I-3541390J-9515885D01*
G02X-2720027Y-1034285I-1819547J-4410653D01*
G01X-2720027Y-1034285D01*
G03X-2585060Y-1098545I3949543J8121444D01*
G01X-2585060Y-1098545D01*
G03X-2468910Y-1150779I1996546J4284362D01*
G01X-2468910Y-1150779D01*
G01X-2368654Y-1193796D01*
G01X-2368654Y-1193796D01*
G03X-2318003Y-1183951I18028J42466D01*
G03X-2311019Y-1129673I-31662J31662D01*
G03X-2362230Y-1043092I-9318783J-5453427D01*
G03X-2424457Y-942485I-3353829J-2004859D01*
G03X-2500492Y-825998I-6349787J-4061635D01*
G02X-2695543Y-489718I2614599J1741235D01*
G03X-2725543Y-469979I-32032J-16018D01*
G01X-3278886Y-438533D01*
G01X-3278886Y-139700D01*
G03X-3299555Y-107246I-35814J0D01*
G01X-3302607Y-105821D01*
G01X-3113096Y-105821D01*
G03X-3113096Y85806I0J95814D01*
G01X-3303096Y85806D01*
G01X-4628514Y2146300D02*
G03X-4286886Y2146300I170814J0D01*
G03X-4628514Y2146300I-170814J0D01*
G01X-4565014Y-1612900D02*
G03X-4223386Y-1612900I170814J0D01*
G03X-4565014Y-1612900I-170814J0D01*
G01X-3113096Y1375821D02*
G01X-3303096Y1375821D01*
G03X-3303096Y1184194I0J-95814D01*
G01X-3113096Y1184194D01*
G03X-3113096Y1375821I0J95814D01*
G01X-2909896Y-237079D02*
G01X-3099896Y-237079D01*
G03X-3099896Y-428706I0J-95814D01*
G01X-2909896Y-428706D01*
G03X-2909896Y-237079I0J95814D01*
G01X-2113914Y3314700D02*
G03X-1772286Y3314700I170814J0D01*
G03X-2113914Y3314700I-170814J0D01*
G01X-1463801Y478820D02*
G01X-1468851Y478820D01*
G03X-1503156Y464610I0J-48514D01*
G01X-1510715Y457051D01*
G03X-1574534Y395354I2336J-66273D01*
G03X-1519817Y325458I66156J-4576D01*
G03X-1449921Y270741I65320J11439D01*
G03X-1388224Y334560I-4576J66156D01*
G01X-1380665Y342120D01*
G03X-1370336Y357412I-34304J34305D01*
G03X-1363298Y348493I41342J25385D01*
G01X-1355739Y340934D01*
G03X-1288140Y276969I66273J2336D01*
G03X-1223153Y343585I-1326J66301D01*
G03X-1179137Y416074I-21572J62707D01*
G03X-1242389Y472565I-65589J-9782D01*
G01X-1249948Y480125D01*
G03X-1284253Y494334I-34305J-34304D01*
G01X-1289303Y494334D01*
G01X-1304957Y509988D01*
G03X-1339261Y524198I-34305J-34305D01*
G01X-1398329Y524198D01*
G03X-1432633Y509988I0J-48514D01*
G01X-1463801Y478820D01*
G01X-1458214Y4013200D02*
G03X-1320800Y3875786I137414J0D01*
G01X-977900Y3875786D01*
G03X-840486Y4013200I0J137414D01*
G03X-977900Y4150614I-137414J0D01*
G01X-1320800Y4150614D01*
G03X-1458214Y4013200I0J-137414D01*
G01X-1141785Y-2350588D02*
G03X-1323412Y-2350588I-90814J0D01*
G01X-1323412Y-2440588D01*
G03X-1151399Y-2481255I90814J0D01*
G03X-1018767Y-2455959I62311J33648D01*
G03X-1141785Y-2400301I-70321J8352D01*
G01X-1141785Y-2350588D01*
G01X-630003Y243769D02*
G03X-690422Y169294I5363J-66097D01*
G03X-728543Y96070I26977J-60579D01*
G03X-665782Y42442I65097J12645D01*
G01X-658223Y34883D01*
G03X-623918Y20673I34305J34304D01*
G01X-618868Y20673D01*
G01X-517807Y-80388D01*
G01X-517807Y-85438D01*
G03X-503597Y-119743I48514J0D01*
G01X-496038Y-127302D01*
G03X-434341Y-191121I66273J2336D01*
G03X-364445Y-136404I4576J66156D01*
G03X-309728Y-66508I-11439J65320D01*
G03X-373547Y-4811I-66156J-4576D01*
G01X-381106Y2748D01*
G03X-415411Y16958I-34305J-34304D01*
G01X-420461Y16958D01*
G01X-536598Y133095D01*
G01X-536598Y138145D01*
G03X-550808Y172449I-48514J0D01*
G01X-558367Y180009D01*
G03X-630003Y243769I-66273J-2336D01*
G01X-423656Y701603D02*
G03X-512409Y700102I-43544J-50015D01*
G01X-602490Y700102D01*
G03X-691244Y701603I-45210J-48514D01*
G03X-701976Y613488I43544J-50015D01*
G03X-691244Y525373I54276J-38100D01*
G03X-602490Y526874I43544J50015D01*
G01X-512409Y526874D01*
G03X-423656Y525373I45210J48514D01*
G03X-412923Y613488I-43544J50015D01*
G03X-423656Y701603I-54276J38100D01*
G01X-581406Y-2455964D02*
G03X-448789Y-2481280I70320J8357D01*
G03X-276788Y-2440588I81187J40692D01*
G01X-276788Y-2350588D01*
G03X-458415Y-2350588I-90814J0D01*
G01X-458415Y-2400273D01*
G03X-581406Y-2455964I-52671J-47335D01*
G01X-551814Y3314700D02*
G03X-210186Y3314700I170814J0D01*
G03X-551814Y3314700I-170814J0D01*
G01X166188Y267915D02*
G03X166188Y86288I0J-90814D01*
G01X256188Y86288D01*
G03X296855Y258301I0J90814D01*
G03X271559Y390933I-33648J62311D01*
G03X215901Y267915I-8352J-70321D01*
G01X166188Y267915D01*
G01X256188Y1132912D02*
G01X166188Y1132912D01*
G03X166188Y951285I0J-90814D01*
G01X215873Y951285D01*
G03X271564Y828294I47335J-52671D01*
G03X296880Y960911I-8357J70320D01*
G03X256188Y1132912I-40692J81187D01*
G01X432888Y-1408485D02*
G03X432888Y-1590112I0J-90814D01*
G01X522888Y-1590112D01*
G03X563555Y-1418099I0J90814D01*
G03X538259Y-1285467I-33648J62311D01*
G03X482601Y-1408485I-8352J-70321D01*
G01X432888Y-1408485D01*
G01X522888Y-543488D02*
G01X432888Y-543488D01*
G03X432888Y-725115I0J-90814D01*
G01X482573Y-725115D01*
G03X538264Y-848106I47335J-52671D01*
G03X563580Y-715489I-8357J70320D01*
G03X522888Y-543488I-40692J81187D01*
G01X601203Y81288D02*
G01X661203Y81288D01*
G03X661203Y272915I0J95814D01*
G01X601203Y272915D01*
G03X601203Y81288I0J-95814D01*
G01X601203Y946285D02*
G01X661203Y946285D01*
G03X661203Y1137912I0J95814D01*
G01X601203Y1137912D01*
G03X601203Y946285I0J-95814D01*
G01X867903Y-1595112D02*
G01X927903Y-1595112D01*
G03X927903Y-1403485I0J95814D01*
G01X867903Y-1403485D01*
G03X867903Y-1595112I0J-95814D01*
G01X867903Y-730115D02*
G01X927903Y-730115D01*
G03X927903Y-538488I0J95814D01*
G01X867903Y-538488D01*
G03X867903Y-730115I0J-95814D01*
G01X2051686Y2501900D02*
G03X2393314Y2501900I170814J0D01*
G03X2051686Y2501900I-170814J0D01*
G01X2381886Y-1257300D02*
G03X2723514Y-1257300I170814J0D01*
G03X2381886Y-1257300I-170814J0D01*
G54D11*
G01X987649Y-634301D02*
G01X1013557Y-634301D01*
G01X808157Y-634301D02*
G01X782249Y-634301D01*
G01X897903Y-574556D02*
G01X897903Y-548648D01*
G01X897903Y-694047D02*
G01X897903Y-719955D01*
G01X987649Y-1499298D02*
G01X1013557Y-1499298D01*
G01X808157Y-1499298D02*
G01X782249Y-1499298D01*
G01X897903Y-1439553D02*
G01X897903Y-1413645D01*
G01X897903Y-1559044D02*
G01X897903Y-1584952D01*
G01X720949Y1042099D02*
G01X746857Y1042099D01*
G01X541457Y1042099D02*
G01X515549Y1042099D01*
G01X631203Y1101844D02*
G01X631203Y1127752D01*
G01X631203Y982353D02*
G01X631203Y956445D01*
G01X720949Y177102D02*
G01X746857Y177102D01*
G01X541457Y177102D02*
G01X515549Y177102D01*
G01X631203Y236847D02*
G01X631203Y262755D01*
G01X631203Y117356D02*
G01X631203Y91448D01*
G01X577634Y-634301D02*
G01X603542Y-634301D01*
G01X378143Y-634301D02*
G01X352235Y-634301D01*
G01X477888Y-579556D02*
G01X477888Y-553648D01*
G01X477888Y-689047D02*
G01X477888Y-714955D01*
G01X577634Y-1499298D02*
G01X603542Y-1499298D01*
G01X378143Y-1499298D02*
G01X352235Y-1499298D01*
G01X477888Y-1444553D02*
G01X477888Y-1418645D01*
G01X477888Y-1554044D02*
G01X477888Y-1579952D01*
G01X310934Y1042099D02*
G01X336842Y1042099D01*
G01X111443Y1042099D02*
G01X85535Y1042099D01*
G01X211188Y1096844D02*
G01X211188Y1122752D01*
G01X211188Y987353D02*
G01X211188Y961445D01*
G01X310934Y177102D02*
G01X336842Y177102D01*
G01X111443Y177102D02*
G01X85535Y177102D01*
G01X211188Y231847D02*
G01X211188Y257755D01*
G01X211188Y122356D02*
G01X211188Y96448D01*
G01X-367601Y-2725857D02*
G01X-367601Y-2699949D01*
G01X-307856Y-2815603D02*
G01X-281948Y-2815603D01*
G01X-427347Y-2815603D02*
G01X-453255Y-2815603D01*
G01X-367601Y-2495334D02*
G01X-367601Y-2521242D01*
G01X-367601Y-2295842D02*
G01X-367601Y-2269934D01*
G01X-312856Y-2395588D02*
G01X-286948Y-2395588D01*
G01X-422347Y-2395588D02*
G01X-448255Y-2395588D01*
G01X-1232598Y-2495334D02*
G01X-1232598Y-2521242D01*
G01X-1232598Y-2295842D02*
G01X-1232598Y-2269934D01*
G01X-1177853Y-2395588D02*
G01X-1151945Y-2395588D01*
G01X-1287344Y-2395588D02*
G01X-1313252Y-2395588D01*
G01X-1232598Y-2725857D02*
G01X-1232598Y-2699949D01*
G01X-1172853Y-2815603D02*
G01X-1146945Y-2815603D01*
G01X-1292344Y-2815603D02*
G01X-1318252Y-2815603D01*
G01X-3159642Y-1622908D02*
G01X-3185550Y-1622908D01*
G01X-2850151Y-1622908D02*
G01X-2824243Y-1622908D01*
G01X-3004896Y-1682653D02*
G01X-3004896Y-1708561D01*
G01X-3004896Y-1563162D02*
G01X-3004896Y-1537254D01*
G01X-3159642Y-332892D02*
G01X-3185550Y-332892D01*
G01X-2850151Y-332892D02*
G01X-2824243Y-332892D01*
G01X-3004896Y-392638D02*
G01X-3004896Y-418546D01*
G01X-3004896Y-273147D02*
G01X-3004896Y-247239D01*
G01X-3362842Y-10008D02*
G01X-3388750Y-10008D01*
G01X-3053351Y-10008D02*
G01X-3027443Y-10008D01*
G01X-3208096Y-69753D02*
G01X-3208096Y-95661D01*
G01X-3208096Y49738D02*
G01X-3208096Y75646D01*
G01X-3362842Y1280008D02*
G01X-3388750Y1280008D01*
G01X-3053351Y1280008D02*
G01X-3027443Y1280008D01*
G01X-3208096Y1220262D02*
G01X-3208096Y1194354D01*
G01X-3208096Y1339753D02*
G01X-3208096Y1365661D01*
G04 Copper End*

G04 Pad Start*
G54D12*
G01X-1232598Y-2395588D03*
G01X-367601Y-2395588D03*
G54D13*
G01X-1232598Y-2815603D03*
G01X-367601Y-2815603D03*
G54D14*
G01X211188Y177102D03*
G01X211188Y1042099D03*
G54D15*
G01X631203Y177102D03*
G01X631203Y1042099D03*
G54D14*
G01X477888Y-1499298D03*
G01X477888Y-634301D03*
G54D15*
G01X897903Y-1499298D03*
G01X897903Y-634301D03*
G54D17*
G01X-3208096Y-10008D03*
G01X-3208096Y1280008D03*
G01X-3004896Y-1622908D03*
G01X-3004896Y-332892D03*
G04 Pad End*

G04 Via Start*
G54D18*
G01X-624640Y177672D03*
G01X-663445Y108715D03*
G01X-375884Y-71084D03*
G01X-429765Y-124965D03*
G01X-647700Y651588D03*
G01X-647700Y575388D03*
G01X-467199Y651588D03*
G01X-467199Y575388D03*
G01X-1244725Y406293D03*
G01X-1289466Y343270D03*
G01X-1454497Y336897D03*
G01X-1508378Y390778D03*
G01X-317500Y-1739900D03*
G01X-317500Y-1498600D03*
G01X-1168400Y-1930400D03*
G01X-3403600Y-1358900D03*
G01X-2882900Y-165100D03*
G01X-3060700Y-165100D03*
G01X228600Y1219200D03*
G01X635000Y1244600D03*
G01X631203Y-63500D03*
G01X211188Y-12700D03*
G01X736600Y-444500D03*
G01X546100Y-419100D03*
G01X508000Y-1841500D03*
G01X317500Y-1676400D03*
G01X-2329104Y38100D03*
G01X-1689100Y-419100D03*
G01X-1739900Y-1333500D03*
G01X-1676400Y1244600D03*
G01X-1936598Y1244600D03*
G01X-444500Y1231900D03*
G01X-330200Y749300D03*
G01X-412902Y152400D03*
G01X-850900Y1028700D03*
G01X-1092200Y1016000D03*
G01X-1460500Y-2349500D03*
G01X-190500Y-2395588D03*
G01X-1409700Y-2641600D03*
G01X-279400Y-2603500D03*
G04 Via End*

G04 Track Start*
G54D11*
G01X-624640Y177672D02*
G01X-585112Y138145D01*
G01X-663445Y108715D02*
G01X-623918Y69187D01*
G01X-415411Y-31556D02*
G01X-375884Y-71084D01*
G01X-469293Y-85438D02*
G01X-429765Y-124965D01*
G01X-585112Y138145D02*
G01X-585112Y113000D01*
G01X-440556Y-31556D02*
G01X-415411Y-31556D01*
G01X-623918Y69187D02*
G01X-598773Y69187D01*
G01X-469293Y-60293D02*
G01X-469293Y-85438D01*
G01X-585112Y113000D02*
G01X-440556Y-31556D01*
G01X-598773Y69187D02*
G01X-469293Y-60293D01*
G01X-647700Y651588D02*
G01X-467199Y651588D01*
G01X-647700Y575388D02*
G01X-467199Y575388D01*
G01X-1289466Y343270D02*
G01X-1328994Y382797D01*
G01X-1356095Y435044D02*
G01X-1381495Y435044D01*
G01X-1244725Y406293D02*
G01X-1284253Y445820D01*
G01X-1339261Y475684D02*
G01X-1398329Y475684D01*
G01X-1414969Y376424D02*
G01X-1454497Y336897D01*
G01X-1468851Y430306D02*
G01X-1508378Y390778D01*
G01X-1328994Y382797D02*
G01X-1328994Y407942D01*
G01X-1414969Y401569D02*
G01X-1414969Y376424D01*
G01X-1284253Y445820D02*
G01X-1309398Y445820D01*
G01X-1443706Y430306D02*
G01X-1468851Y430306D01*
G01X-1328994Y407942D02*
G01X-1356095Y435044D01*
G01X-1381495Y435044D02*
G01X-1414969Y401569D01*
G01X-1309398Y445820D02*
G01X-1339261Y475684D01*
G01X-1398329Y475684D02*
G01X-1443706Y430306D01*
G04 Track End*

M02*

