G04 Layer: BoardOutlineLayer*
G04 EasyEDA Pro v2.2.47.7, 2026-05-29 08:57:24*
G04 Gerber Generator version 0.3*
G04 Scale: 100 percent, Rotated: No, Reflected: No*
G04 Dimensions in millimeters*
G04 Leading zeros omitted, absolute positions, 4 integers and 5 decimals*
G04 Generated by one-click*
G04 Object Configs: Pad,Via,Track,Text,Image,Dimension,BoardOutline,BoardCutout,CopperFilled,SolidRegion,FPCStiffener,Line,PlaneZone,ComponentProperty,ComponentSilkscreen,TearDrop*
G04 Layer Configs: 1,2,3,4,5,6,7,8,9,10,11,13,14,56*
G04 Copper Areas: 0*
%FSLAX45Y45*%
%MOMM*%
%ADD10C,0.1*%
%ADD11C,0.0254*%
%ADD12C,0.5629*%
G75*


G04 PolygonModel Start*
G54D10*
G01X-3626376Y342354D02*
G01X-3603511Y312014D01*
G02X-3570549Y245237I-159724J-120367D01*
G01X-3533446Y111834D01*
G02X-3528854Y91123I-192686J-53591D01*
G01X-3505200Y-50800D01*
G01X-3314700Y-139700D01*
G01X-3314700Y-472369D01*
G01X-2727575Y-505735D01*
G03X-2530301Y-845849I2841682J1420973D01*
G02X-2454627Y-961783I-6243943J-4158271D01*
G02X-2392970Y-1061468I-3261432J-2086168D01*
G02X-2341929Y-1147762I-9236832J-5521632D01*
G02X-2343327Y-1158627I-7736J-4527D01*
G02X-2354658Y-1160829I-7298J7298D01*
G01X-2354658Y-1160829D01*
G01X-2454662Y-1117921D01*
G02X-2569932Y-1066083I1866150J4303741D01*
G02X-2704364Y-1002077I3799449J8153242D01*
G03X-2973460Y-881277I-2102300J-4322960D01*
G03X-3305355Y-751105I-3885777J-9419279D01*
G03X-3628168Y-637236I-3478581J-9347122D01*
G03X-3859198Y-572301I-792097J-2374693D01*
G03X-3913141Y-563755I-88864J-386390D01*
G03X-3947543Y-569107I-6384J-72207D01*
G03X-3971041Y-588902I19887J-47452D01*
G03X-3988648Y-626552I135080J-86111D01*
G03X-3993897Y-749032I223481J-70930D01*
G03X-3933043Y-967879I2237244J504223D01*
G03X-3826784Y-1245482I3148885J1046171D01*
G03X-3673014Y-1576586I6860781J2984979D01*
G02X-3593188Y-1741640I-9443271J-4668967D01*
G02X-3528627Y-1883301I-4971745J-2351389D01*
G01X-3475425Y-2005959D01*
G02X-3478230Y-2020530I-12162J-5214D01*
G02X-3530943Y-2028639I-31885J31885D01*
G02X-3658298Y-1953390I638400J1225861D01*
G02X-3794422Y-1849604I739051J1110487D01*
G02X-3906008Y-1735835I658564J757537D01*
G02X-4100952Y-1475593I2339968J1955968D01*
G02X-4205785Y-1262497I747669J500153D01*
G02X-4235530Y-1067131I541808J182438D01*
G02X-4199052Y-865552I657384J-14870D01*
G03X-4179943Y-797910I-552548J192620D01*
G03X-4176827Y-747277I-161771J35367D01*
G03X-4189209Y-700349I-146537J-13567D01*
G03X-4219451Y-645232I-366792J-165399D01*
G03X-4345975Y-556072I-175891J-115249D01*
G03X-4502453Y-575308I-52631J-217923D01*
G03X-4604745Y-691864I99612J-190586D01*
G03X-4598969Y-843592I187719J-68829D01*
G03X-4577717Y-882376I273057J124413D01*
G03X-4550473Y-918728I280158J181574D01*
G03X-4521633Y-947716I216439J186495D01*
G03X-4495937Y-963167I56552J64957D01*
G02X-4469843Y-983798I-19996J-52110D01*
G02X-4451483Y-1022108I-115616J-78963D01*
G02X-4440497Y-1078994I-267476J-81162D01*
G02X-4437100Y-1157073I-895626J-78077D01*
G02X-4449046Y-1274887I-586917J1D01*
G02X-4490024Y-1326276I-70942J14536D01*
G02X-4559477Y-1326400I-34863J76702D01*
G02X-4672172Y-1263919I318390J707145D01*
G02X-4823457Y-1153311I1243429J1859480D01*
G02X-4911092Y-1062531I303861J381021D01*
G02X-4952175Y-975660I197996J146788D01*
G02X-4956194Y-880813I228136J57174D01*
G03X-4949891Y-813160I-493678J80113D01*
G03X-4957651Y-766320I-126258J3146D01*
G03X-4981535Y-728402I-101394J-37387D01*
G03X-5026518Y-690095I-224773J-218381D01*
G03X-5179570Y-634588I-179570J-256371D01*
G03X-5334334Y-666173I-23705J-278799D01*
G03X-5448188Y-776877I132775J-250453D01*
G03X-5490100Y-935859I280571J-158982D01*
G03X-5475982Y-1027267I302978J0D01*
G03X-5434545Y-1088205I122563J38784D01*
G03X-5360787Y-1122599I105196J129312D01*
G03X-5247274Y-1133400I113514J591068D01*
G02X-5161988Y-1141511I1J-452453D01*
G02X-5093337Y-1165949I-45252J-235761D01*
G02X-5022124Y-1215475I-181990J-337645D01*
G02X-4923574Y-1307874I-1384775J-1575728D01*
G02X-4767692Y-1480110I-1649835J-1649834D01*
G02X-4756287Y-1566957I-64300J-52616D01*
G02X-4830205Y-1625517I-93731J42382D01*
G02X-5085270Y-1665478I-647448J3298570D01*
G01X-5085270Y-1665478D01*
G02X-5204176Y-1675996I-242206J2060789D01*
G02X-5275258Y-1671527I-17354J291521D01*
G02X-5329208Y-1651045I30014J160354D01*
G02X-5384202Y-1609526I167519J279065D01*
G03X-5425440Y-1575423I-296353J-316376D01*
G03X-5478327Y-1539824I-510491J-701316D01*
G03X-5533868Y-1508099I-459614J-740153D01*
G03X-5583304Y-1485889I-209491J-400182D01*
G03X-5644785Y-1466724I-190208J-501969D01*
G03X-5688243Y-1464137I-28731J-116311D01*
G03X-5726173Y-1477288I11809J-95334D01*
G03X-5768554Y-1508836I143209J-236625D01*
G03X-5819436Y-1587594I121619J-134387D01*
G03X-5839203Y-1702326I393276J-126825D01*
G03X-5826485Y-1831812I512698J-15012D01*
G03X-5781599Y-1954337I505751J115797D01*
G03X-5709940Y-2046254I281510J145574D01*
G03X-5623871Y-2079976I89186J100933D01*
G03X-5522301Y-2052962I4354J188081D01*
G03X-5404170Y-1963074I-357742J592712D01*
G02X-5329792Y-1906852I290295J-306735D01*
G02X-5254436Y-1877763I123307J-207278D01*
G02X-5141618Y-1864755I132420J-652754D01*
G02X-4897170Y-1860222I330327J-11219009D01*
G01X-4897170Y-1860222D01*
G02X-4698230Y-1862169I43651J-5704745D01*
G02X-4552488Y-1872405I-46368J-1702802D01*
G02X-4440296Y-1891778I-110807J-976243D01*
G02X-4348965Y-1922445I-115276J-494640D01*
G02X-4128279Y-2039339I-745653J-1674502D01*
G02X-3892226Y-2201097I-1658994J-2674083D01*
G02X-3633632Y-2412298I-2604026J-3452261D01*
G02X-3343815Y-2680628I-5576997J-6314276D01*
G03X-3048393Y-2958718I9309403J9593648D01*
G03X-2863022Y-3106039I1166530J1277536D01*
G03X-2737276Y-3169854I300619J436565D01*
G03X-2654905Y-3155014I28058J80284D01*
G03X-2607922Y-3065118I-83873J101061D01*
G03X-2606247Y-2876358I-1234578J105340D01*
G03X-2638308Y-2652440I-1509187J-101836D01*
G03X-2703697Y-2431924I-1578474J-348105D01*
G01X-2703697Y-2431924D01*
G01X-2818769Y-2122792D01*
G01X-2818769Y-2122792D01*
G02X-2894075Y-1912353I10950120J4037216D01*
G01X-2894075Y-1912353D01*
G01X-2949435Y-1751289D01*
G01X-2949435Y-1751289D01*
G02X-2945451Y-1735398I14287J4863D01*
G02X-2937086Y-1734317I4936J-5283D01*
G01X-2864270Y-1773909D01*
G02X-2780508Y-1821337I-1721206J-3137463D01*
G02X-2682922Y-1879421I-3481766J-5960628D01*
G03X-2563754Y-1945229I870246J1435081D01*
G03X-2412952Y-2016547I1679157J3355481D01*
G03X-2256371Y-2082268I1563109J3504741D01*
G03X-2118698Y-2131065I772798J1961730D01*
G02X-1947204Y-2193302I-652102J-2064263D01*
G02X-1797892Y-2264803I-559410J-1359833D01*
G02X-1701800Y-2400300I-1058578J-852543D01*
G02X-1524000Y-2755900I-6867490J-3655995D01*
G01X-1524000Y-2755900D01*
G03X-1193800Y-2971800I416983J277283D01*
G01X-1193800Y-2971800D01*
G03X-927100Y-3111500I997523J1579935D01*
G01X-927100Y-3111500D01*
G03X-711200Y-3124200I114300J101600D01*
G01X-356461Y-2959100D01*
G01X-171095Y-2799172D01*
G01X-171095Y-2799172D01*
G03X-101600Y-2501900I-4430223J1192434D01*
G01X-101600Y-2501900D01*
G03X-12700Y-2298700I-1920490J961261D01*
G02X97648Y-2173312I1029792J-795018D01*
G02X246202Y-2078988I834444J-1150062D01*
G02X447896Y-1975438I1859000J-3372724D01*
G03X599782Y-1897564I-1271187J2666370D01*
G03X757376Y-1805985I-1849687J3364475D01*
G01X757376Y-1805985D01*
G03X898207Y-1714874I-1820351J2968116D01*
G03X994059Y-1640475I-553908J812563D01*
G02X1110151Y-1540092I5743473J-6524944D01*
G02X1151290Y-1515578I93392J-109954D01*
G02X1171297Y-1524917I5535J-14243D01*
G02X1178415Y-1568836I-127503J-43203D01*
G02X1173026Y-1623226I-292869J1558D01*
G02X1149575Y-1736176I-4530398J881701D01*
G01X1149575Y-1736176D01*
G02X1118097Y-1869666I-4662111J1028890D01*
G01X1118097Y-1869666D01*
G02X1080916Y-2010626I-5909185J1483319D01*
G03X1015025Y-2307265I2856257J-790080D01*
G03X984874Y-2591480I2289215J-386561D01*
G03X988583Y-2825320I1949491J-86027D01*
G03X1040529Y-2925847I144485J10976D01*
G03X1123194Y-2950534I70323J84734D01*
G03X1218044Y-2913593I-22266J197414D01*
G03X1343564Y-2797915I-441697J605213D01*
G03X1535764Y-2564412I-4905499J4233667D01*
G01X1535764Y-2564412D01*
G02X1948325Y-2077392I6701355J-5258542D01*
G02X2313153Y-1734827I2414973J-2206369D01*
G02X2649463Y-1515290I1272890J-1582582D01*
G02X2972900Y-1408505I491721J-946143D01*
G02X3244410Y-1373285I732869J-4585441D01*
G02X3441554Y-1368728I128330J-1285269D01*
G02X3580596Y-1391775I-33904J-635472D01*
G02X3664449Y-1445400I-46713J-165419D01*
G03X3742478Y-1502891I163066J139622D01*
G03X3839350Y-1521609I91006J210949D01*
G03X3933518Y-1497914I-5656J221443D01*
G03X4004189Y-1436722I-86443J171237D01*
G03X4052242Y-1326083I-247107J173080D01*
G03X4064754Y-1182962I-580909J122891D01*
G03X4043007Y-1046889I-554960J-18919D01*
G03X3987895Y-958801I-182960J-53183D01*
G03X3941839Y-923500I-238848J-263924D01*
G03X3903952Y-910018I-47672J-73989D01*
G03X3860754Y-913842I-12152J-108626D01*
G03X3794797Y-937200I189938J-641137D01*
G03X3745860Y-962441I126329J-304988D01*
G03X3694798Y-998644I291374J-465069D01*
G03X3649264Y-1039513I331306J-414925D01*
G03X3617402Y-1078844I178451J-177133D01*
G02X3572222Y-1129980I-199419J130664D01*
G02X3520110Y-1157354I-87295J102895D01*
G02X3438554Y-1169576I-93663J346793D01*
G02X3271001Y-1172400I-167546J4968400D01*
G01X3271001Y-1172400D01*
G02X3159988Y-1170626I4J3474236D01*
G02X3062468Y-1165219I66626J2084015D01*
G02X2981750Y-1157672I221211J2801221D01*
G01X2981750Y-1157672D01*
G02X2961455Y-1147955I3636J33648D01*
G02X2952277Y-1101669I30003J30003D01*
G02X3005825Y-990713I1020581J-424143D01*
G02X3085288Y-866448I1016377J-562401D01*
G02X3179917Y-753150I939901J-688857D01*
G02X3242078Y-694955I522743J-496077D01*
G02X3300380Y-656047I213984J-257512D01*
G02X3358852Y-633921I119579J-227682D01*
G02X3421250Y-626400I62399J-255086D01*
G03X3548866Y-601939I0J345127D01*
G03X3620683Y-532711I-48710J122396D01*
G03X3631076Y-421604I-161225J71120D01*
G03X3576691Y-274028I-618396J-144084D01*
G03X3508476Y-186367I-269581J-139405D01*
G03X3417534Y-136529I-154766J-174519D01*
G03X3314292Y-131154I-63357J-222716D01*
G03X3211048Y-170013I51141J-292460D01*
G03X3158332Y-210191I165376J-271655D01*
G03X3128085Y-253274I89503J-94996D01*
G03X3112834Y-312355I179665J-77887D01*
G03X3107777Y-408232I1099085J-106038D01*
G02X3101918Y-497899I-802002J7382D01*
G02X3085598Y-568100I-334597J40787D01*
G02X3056265Y-628047I-264244J92146D01*
G02X3010942Y-685920I-344006J222725D01*
G02X2913699Y-775395I-662190J622098D01*
G02X2791887Y-862517I-928449J1169418D01*
G02X2674986Y-932099I-1087487J1694038D01*
G02X2636070Y-926570I-15777J28668D01*
G02X2626950Y-911135I25450J25450D01*
G02X2615533Y-867960I913251J264583D01*
G02X2604467Y-814997I905978J216932D01*
G02X2595265Y-756155I1344827J240460D01*
G02X2589018Y-677300I722509J96907D01*
G02X2595842Y-621789I190769J4725D01*
G02X2617386Y-576768I136639J-37724D01*
G02X2657044Y-532390I228462J-164248D01*
G03X2731711Y-415761I-176891J195463D01*
G03X2729823Y-286091I-197744J61970D01*
G03X2651937Y-186466I-184019J-63608D01*
G03X2524400Y-148650I-127537J-196152D01*
G03X2405370Y-178912I0J-249224D01*
G03X2328303Y-260773I85964J-158137D01*
G03X2309411Y-380978I198231J-92743D01*
G03X2352486Y-516101I387019J48949D01*
G02X2369056Y-557870I-174527J-93404D01*
G02X2383293Y-620553I-765095J-206732D01*
G02X2393476Y-691213I-885656J-163699D01*
G02X2397556Y-759940I-775180J-80506D01*
G02X2349698Y-1004001I-599986J-9070D01*
G02X2187880Y-1313630I-2031688J864703D01*
G02X1985012Y-1587223I-1868521J1173483D01*
G02X1806750Y-1700671I-280097J243342D01*
G02X1754086Y-1713908I-234368J821116D01*
G02X1735218Y-1709844I-4963J22791D01*
G02X1730135Y-1694463I8393J11303D01*
G02X1744767Y-1654650I348120J-105348D01*
G03X1763949Y-1607029I-852196J370941D01*
G01X1810210Y-1481478D01*
G01X1810210Y-1481478D01*
G01X1864606Y-1331389D01*
G01X1864606Y-1331389D01*
G01X1923082Y-1167288D01*
G01X1923082Y-1167288D01*
G03X2024338Y-859714I-6960590J2461951D01*
G01X2024338Y-859714D01*
G03X2085192Y-619450I-2468259J752994D01*
G03X2111059Y-432610I-1481002J300244D01*
G03X2099470Y-297230I-423886J31900D01*
G03X2080727Y-240545I-394630J-99044D01*
G03X2058580Y-221274I-30427J-12606D01*
G03X2022203Y-222042I-16828J-64784D01*
G03X1928576Y-252839I672532J-2202318D01*
G03X1722709Y-337978I700151J-1984446D01*
G03X1394823Y-499688I6013409J-12606125D01*
G01X1394823Y-499688D01*
G03X1069349Y-538959I470679J-5269363D01*
G01X850900Y-457200D01*
G03X816869Y-425606I-88349J-61040D01*
G03X833912Y-279674I-2201548J331068D01*
G03X841449Y-131885I-2283136J190526D01*
G03X839618Y69709I-3634158J67796D01*
G03X821516Y191886I-560770J-20656D01*
G03X775906Y316410I-685124J-180327D01*
G03X664379Y540865I-6931955J-3304415D01*
G02X597003Y676559I4052301J2096639D01*
G02X546760Y790690I1904712J906630D01*
G02X511908Y881677I2335116J946615D01*
G02X520981Y894600I9074J3276D01*
G02X549594Y890372I0J-98941D01*
G01X549594Y890372D01*
G01X692553Y846740D01*
G01X692553Y846740D01*
G02X859225Y794109I-3788637J-12288071D01*
G02X1049414Y731674I-6789530J-21002955D01*
G01X1049414Y731674D01*
G03X1281947Y657180I3299229J9898279D01*
G03X1439287Y615169I639867J2080815D01*
G03X1548140Y595739I261540J1150615D01*
G03X1598609Y606840I9851J75492D01*
G03X1629630Y639896I-48050J76175D01*
G03X1689146Y753820I-3167549J1727304D01*
G03X1755176Y894352I-2850316J1425018D01*
G01X1755176Y894352D01*
G03X1822023Y1053710I-4468348J1968052D01*
G01X1822023Y1053710D01*
G02X1896315Y1232901I6652010J-2652911D01*
G01X1896315Y1232901D01*
G02X1985012Y1433709I10768719J-4636577D01*
G02X2073911Y1625150I10181653J-4611646D01*
G02X2147950Y1773294I3876242J-1844680D01*
G02X2406247Y2191848I3107494J-1628717D01*
G02X2707759Y2545360I2272520J-1632904D01*
G02X2999381Y2786307I1466421J-1477886D01*
G02X3212704Y2829789I158304J-231612D01*
G03X3310587Y2834567I39435J197173D01*
G03X3413437Y2884642I-105560J347469D01*
G03X3491900Y2961599I-192636J274886D01*
G03X3518900Y3044367I-113366J82769D01*
G03X3514819Y3081928I-174883J1D01*
G03X3501421Y3132623I-611252J-134419D01*
G03X3482176Y3186826I-671839J-208022D01*
G03X3459398Y3236537I-533302J-214292D01*
G03X3372276Y3330129I-211106J-109168D01*
G03X3265560Y3342908I-67303J-110067D01*
G03X3165330Y3267364I58242J-181537D01*
G03X3100625Y3121432I387278J-259029D01*
G02X3047035Y3014543I-266309J66638D01*
G02X2946894Y2924997I-333038J271676D01*
G02X2815501Y2865116I-270658J419789D01*
G02X2671259Y2844600I-144242J496816D01*
G02X2594294Y2848719I-2J721111D01*
G02X2561981Y2865761I5277J49161D01*
G02X2547107Y2902097I47658J40721D01*
G02X2543900Y2993653I1305478J91559D01*
G02X2557782Y3131133I687702J-1D01*
G02X2602451Y3310029I2081049J-424600D01*
G02X2657794Y3480437I3315789J-982661D01*
G02X2696212Y3507600I38418J-13587D01*
G03X2751869Y3528758I0J83783D01*
G03X2820699Y3601798I-377070J424281D01*
G03X2877281Y3688787I-450934J355209D01*
G03X2894900Y3759833I-134433J71046D01*
G03X2875929Y3850428I-225803J0D01*
G03X2822661Y3919082I-162756J-71290D01*
G03X2735622Y3961439I-142399J-182010D01*
G03X2619114Y3975600I-116508J-472194D01*
G03X2445021Y3933264I0J-379122D01*
G03X2337275Y3818458I108397J-209695D01*
G03X2325404Y3660986I217765J-95601D01*
G03X2411614Y3502944I371425J100074D01*
G02X2442290Y3456229I-134620J-121829D01*
G02X2450478Y3409844I-86059J-39107D01*
G02X2437021Y3343762I-272193J21019D01*
G01X2437021Y3343762D01*
G02X2388829Y3207885I-4241056J1427711D01*
G02X2314629Y3037527I-1617986J603378D01*
G02X2234693Y2912463I-638385J319954D01*
G02X2157123Y2840479I-277093J220810D01*
G02X2089806Y2832643I-41142J60375D01*
G02X2022114Y2883366I55473J144560D01*
G02X1970336Y2976530I295819J225380D01*
G02X1945971Y3083793I368075J140007D01*
G02X1959032Y3176447I210553J17568D01*
G03X1987953Y3281309I-540399J205460D01*
G03X1996146Y3388197I-537332J94946D01*
G03X1984018Y3480316I-426894J-9345D01*
G03X1951100Y3538800I-121003J-29601D01*
G03X1885304Y3575729I-98606J-98607D01*
G03X1793683Y3583165I-69367J-286551D01*
G03X1701485Y3561788I23546J-311065D01*
G03X1633908Y3514791I67687J-169409D01*
G03X1607543Y3478783I160048J-144842D01*
G03X1581327Y3428166I487063J-284361D01*
G03X1559133Y3372244I553036J-251850D01*
G03X1544896Y3319330I396566J-135074D01*
G03X1537531Y3246928I372158J-74431D01*
G03X1548956Y3193159I128996J-690D01*
G03X1584468Y3139314I185676J83826D01*
G03X1661386Y3061303I1111914J1019407D01*
G02X1766155Y2947098I-735752J-780124D01*
G02X1832781Y2837136I-403310J-319529D01*
G02X1868951Y2716254I-448801J-200143D01*
G02X1880900Y2569061I-900615J-147191D01*
G02X1867767Y2459449I-463989J0D01*
G02X1824778Y2417234I-55464J13484D01*
G02X1753363Y2429792I-20621J92073D01*
G02X1637947Y2514648I588845J921823D01*
G03X1567739Y2569746I-842235J-1000940D01*
G03X1525903Y2588642I-65902J-90146D01*
G03X1487745Y2585444I-13924J-63092D01*
G03X1437318Y2558927I107412J-265476D01*
G03X1366801Y2491768I152180J-230390D01*
G03X1317694Y2399406I294253J-215682D01*
G03X1299532Y2304693I293312J-105345D01*
G03X1319504Y2230899I129930J-4435D01*
G03X1382135Y2153748I353551J223014D01*
G03X1448408Y2116141I105679J109038D01*
G03X1523275Y2116027I37648J140103D01*
G03X1611808Y2152350I-94768J357036D01*
G02X1711914Y2199975I366210J-640738D01*
G02X1795329Y2217562I95826J-247886D01*
G02X1862933Y2205793I7373J-157701D01*
G02X1916183Y2166579I-52361J-126863D01*
G02X1938247Y2082915I-79020J-65581D01*
G02X1896126Y1920437I-1079061J193040D01*
G02X1809933Y1714908I-1579187J541426D01*
G02X1680651Y1479600I-3118988J1560455D01*
G01X1680651Y1479600D01*
G02X1496084Y1181766I-10819337J6498619D01*
G01X1496084Y1181766D01*
G02X1421487Y1124937I-114872J73412D01*
G02X1331201Y1133263I-35069J113406D01*
G01X1331201Y1133263D01*
G02X1053490Y1285661I4077298J7759179D01*
G01X1053490Y1285661D01*
G02X614166Y1548982I6364012J11115861D01*
G02X292141Y1771192I2359331J3763564D01*
G02X70338Y1959134I1599672J2112739D01*
G02X-31612Y2107251I296256J313060D01*
G02X-50046Y2176409I250795J103884D01*
G02X-51884Y2253883I368263J47498D01*
G02X-36435Y2357994I789292J-63927D01*
G02X1811Y2519919I4487393J-974415D01*
G02X34776Y2644809I7817963J-1996766D01*
G01X34776Y2644809D01*
G02X69366Y2767703I7429079J-2024657D01*
G01X69366Y2767703D01*
G02X101040Y2873595I6631973J-1926079D01*
G02X122328Y2934889I870471J-267985D01*
G03X157928Y3078891I-543625J210795D01*
G03X162783Y3248260I-978058J112786D01*
G03X138959Y3411518I-943500J-54315D01*
G03X87711Y3536219I-417932J-98873D01*
G03X36369Y3601451I-297821J-181587D01*
G03X-72849Y3705638I-2331165J-2334382D01*
G03X-206778Y3821892I-2479937J-2721711D01*
G03X-350893Y3935861I-2702366J-3269059D01*
G01X-350893Y3935861D01*
G01X-499383Y4048840D01*
G01X-499383Y4048840D01*
G01X-646445Y4162120D01*
G01X-646445Y4162120D01*
G01X-773773Y4261404D01*
G01X-773773Y4261404D01*
G02X-849100Y4322009I2418639J3083278D01*
G03X-985627Y4416837I-639762J-775391D01*
G03X-1101253Y4455552I-152722J-264094D01*
G03X-1223757Y4446139I-37863J-309067D01*
G03X-1382528Y4387358I290513J-1028516D01*
G03X-1483743Y4332186I371835J-802567D01*
G03X-1573963Y4265684I422991J-668305D01*
G03X-1659499Y4182460I590779J-692761D01*
G03X-1746791Y4076718I1173612J-1057734D01*
G02X-1830382Y3977146I-1004435J758359D01*
G02X-1929360Y3879534I-1202611J1120448D01*
G02X-2035946Y3790888I-1098226J1212086D01*
G02X-2142397Y3718275I-741007J971979D01*
G03X-2385309Y3531238I723157J-1190448D01*
G03X-2475235Y3349758I208087J-216131D01*
G03X-2449617Y3098742I580833J-67536D01*
G03X-2271190Y2610600I7892121J2608073D01*
G01X-2271190Y2610600D01*
G02X-2164831Y2338446I-14815534J-5946813D01*
G02X-2125338Y2207489I-907402J-345077D01*
G02X-2117825Y2113072I-324183J-73306D01*
G02X-2135839Y2012043I-454531J28927D01*
G02X-2164143Y1942286I-375958J111926D01*
G02X-2214408Y1855056I-1083191J566072D01*
G02X-2276018Y1765821I-1137058J719165D01*
G02X-2340575Y1688337I-805451J605450D01*
G02X-2526927Y1513341I-1304663J1202599D01*
G01X-2526927Y1513341D01*
G02X-2946400Y1485900I-777327J8662700D01*
G02X-3517900Y1384300I-3187807J16273273D01*
G01X-3517900Y1384300D01*
G02X-3568700Y1066800I-1902056J141515D01*
G02X-3594100Y901700I-566632J2670D01*
G02X-3696311Y1071712I1607512J1082163D01*
G02X-3871441Y1303964I5267633J4154228D01*
G02X-3987655Y1484533I1658522J1195107D01*
G02X-4079490Y1692170I959477J548488D01*
G02X-4070078Y1831774I179044J58049D01*
G02X-3976663Y1888175I89802J-43174D01*
G02X-3812114Y1849655I-15921J-438731D01*
G03X-3714114Y1808055I986178J2186953D01*
G03X-3667659Y1799193I46174J115856D01*
G03X-3629946Y1810606I-154J68523D01*
G03X-3579010Y1850181I-237756J358575D01*
G03X-3525928Y1924157I-144626J159810D01*
G03X-3504109Y2017959I-245314J106503D01*
G03X-3516511Y2118592I-299094J14220D01*
G03X-3561812Y2211922I-313424J-94471D01*
G03X-3628870Y2276306I-196752J-137810D01*
G03X-3702546Y2293230I-60420J-94195D01*
G03X-3781660Y2259907I18404J-154267D01*
G03X-3864548Y2175806I325546J-403747D01*
G02X-3912378Y2120896I-545928J427256D01*
G02X-3953824Y2088144I-143223J138640D01*
G02X-3991611Y2074771I-52622J88616D01*
G02X-4027885Y2078813I-10397J71477D01*
G02X-4061558Y2104535I26912J70133D01*
G02X-4079748Y2146840I82701J60622D01*
G02X-4085295Y2219971I347938J63167D01*
G02X-4078880Y2359698I3948659J-111291D01*
G02X-4065874Y2505272I2858411J-182007D01*
G02X-4046386Y2586547I344746J-39690D01*
G02X-4011806Y2645164I181221J-67397D01*
G02X-3950869Y2703902I342362J-294202D01*
G03X-3850936Y2851633I-186380J233742D01*
G03X-3850491Y3032988I-304329J91424D01*
G03X-3948259Y3178675I-280976J-82909D01*
G03X-4107464Y3234600I-159205J-198648D01*
G03X-4219880Y3210069I0J-269838D01*
G03X-4283941Y3142552I52013J-113500D01*
G03X-4295859Y3029160I196951J-78023D01*
G03X-4252731Y2867906I880504J149101D01*
G02X-4221642Y2773966I-1313153J-486688D01*
G02X-4209970Y2708150I-295619J-86370D01*
G02X-4214294Y2652176I-195313J-13066D01*
G02X-4234316Y2592610I-297398J66816D01*
G02X-4320710Y2487620I-239730J109228D01*
G02X-4422232Y2479170I-57839J80803D01*
G02X-4539389Y2581232I132108J269920D01*
G02X-4671501Y2806584I1736955J1169686D01*
G02X-4731566Y2931381I3210136J1621893D01*
G02X-4752791Y2998323I261741J119826D01*
G02X-4750219Y3047421I102884J19228D01*
G02X-4725737Y3096788I155197J-46213D01*
G03X-4685296Y3185109I-195437J142907D01*
G03X-4673171Y3299987I-461391J106775D01*
G03X-4688986Y3410587I-448315J-7673D01*
G03X-4732386Y3485314I-162590J-44462D01*
G03X-4801430Y3524240I-104292J-104293D01*
G03X-4922553Y3543881I-182212J-740357D01*
G03X-5045930Y3543783I-61085J-759954D01*
G03X-5123511Y3516753I13385J-163264D01*
G03X-5143234Y3499672I58098J-87010D01*
G03X-5167803Y3469972I350545J-315000D01*
G03X-5192654Y3434431I431170J-327937D01*
G03X-5214033Y3397735I419520J-268990D01*
G03X-5235648Y3346756I292291J-153999D01*
G03X-5240403Y3306164I97491J-31995D01*
G03X-5229041Y3264838I116455J9791D01*
G03X-5198309Y3210709I439903J213971D01*
G03X-5167484Y3170695I276910J181440D01*
G03X-5127135Y3130394I398381J358506D01*
G03X-5084018Y3095693I343105J382179D01*
G03X-5044952Y3073031I134645J187109D01*
G02X-4968373Y3013780I-87679J-192434D01*
G02X-4897472Y2905616I-497809J-403632D01*
G02X-4839612Y2765060I-761716J-395746D01*
G02X-4802355Y2606089I-1088940J-339058D01*
G02X-4795365Y2485395I-593659J-94930D01*
G02X-4826023Y2418976I-96217J4127D01*
G02X-4895809Y2391288I-70474J75835D01*
G02X-5022100Y2401878I-4667J702646D01*
G02X-5155348Y2433535I200044J1138279D01*
G02X-5243341Y2475953I90279J299750D01*
G02X-5306075Y2539064I139588J201491D01*
G02X-5357980Y2634566I440344J301177D01*
G03X-5386951Y2689505I-320599J-133954D01*
G03X-5427395Y2743208I-399330J-258655D01*
G03X-5472488Y2787970I-329013J-286356D01*
G03X-5515259Y2815275I-117817J-137404D01*
G03X-5573705Y2837236I-190205J-417451D01*
G03X-5611563Y2838007I-20316J-67755D01*
G03X-5645320Y2819120I18691J-73020D01*
G03X-5689682Y2770627I379631J-391822D01*
G03X-5761433Y2610046I265403J-214909D01*
G03X-5734595Y2450266I249595J-40220D01*
G03X-5617713Y2343505I210301J112874D01*
G03X-5449374Y2322900I119949J282011D01*
G02X-5296823Y2319608I67239J-420485D01*
G02X-5140154Y2263859I-119239J-583104D01*
G02X-4961386Y2146414I-500462J-956555D01*
G02X-4736808Y1950090I-2477463J-3060625D01*
G02X-4506303Y1712364I-2550205J-2703348D01*
G02X-4303723Y1460557I-2523697J-2237724D01*
G02X-4109392Y1168060I-3291014J-2397300D01*
G02X-3903067Y805528I-6899674J-4166741D01*
G01X-3903067Y805528D01*
G03X-3711036Y454696I18989370J10166008D01*
G01X-3711036Y454696D01*
G03X-3626376Y342354I453711J253844D01*

G04 Rect Start*
G54D11*
G01X-1422400Y4013200D02*
G02X-1320800Y4114800I101600J0D01*
G01X-977900Y4114800D01*
G02X-876300Y4013200I0J-101600D01*
G02X-977900Y3911600I-101600J0D01*
G01X-1320800Y3911600D01*
G02X-1422400Y4013200I0J101600D01*
G04 Rect End*

M02*

