G04 Layer: TopSilkscreenLayer*
G04 EasyEDA Pro v2.2.47.7, 2026-05-29 08:57:24*
G04 Gerber Generator version 0.3*
G04 Scale: 100 percent, Rotated: No, Reflected: No*
G04 Dimensions in millimeters*
G04 Leading zeros omitted, absolute positions, 4 integers and 5 decimals*
G04 Generated by one-click*
G04 Object Configs: Pad,Via,Track,Text,Image,Dimension,BoardOutline,BoardCutout,CopperFilled,SolidRegion,FPCStiffener,Line,PlaneZone,ComponentProperty,ComponentSilkscreen,TearDrop*
G04 Layer Configs: 1,2,3,4,5,6,7,8,9,10,11,13,14,56*
G04 Copper Areas: 0*
%FSLAX45Y45*%
%MOMM*%
%ADD10C,0.1524*%
%ADD11C,0.254*%
%ADD12C,0.6433*%
G75*


G04 Image Start*
G36*
G01X-1017674Y2013558D02*
G01X-1034020Y2012459D01*
G01X-1060174Y2011100D01*
G01X-1120656Y2011379D01*
G01X-1131009Y2012448D01*
G01X-1154983Y2013558D01*
G01X-1170785Y2014661D01*
G01X-1181682Y2016239D01*
G01X-1202204Y2017959D01*
G01X-1208381Y2019482D01*
G01X-1222548Y2020746D01*
G01X-1231266Y2022770D01*
G01X-1241074Y2024009D01*
G01X-1249247Y2026113D01*
G01X-1259576Y2027269D01*
G01X-1265594Y2029303D01*
G01X-1275779Y2031016D01*
G01X-1277865Y2032132D01*
G01X-1290113Y2034760D01*
G01X-1299376Y2037096D01*
G01X-1304280Y2038688D01*
G01X-1314633Y2041258D01*
G01X-1319537Y2042951D01*
G01X-1326620Y2045220D01*
G01X-1335883Y2047819D01*
G01X-1342966Y2050190D01*
G01X-1348960Y2052740D01*
G01X-1354205Y2053913D01*
G01X-1356588Y2055405D01*
G01X-1362582Y2057308D01*
G01X-1363804Y2058272D01*
G01X-1369442Y2059947D01*
G01X-1374459Y2062616D01*
G01X-1375963Y2062616D01*
G01X-1382439Y2065886D01*
G01X-1383751Y2065886D01*
G01X-1392005Y2069815D01*
G01X-1397454Y2072309D01*
G01X-1406172Y2076361D01*
G01X-1414890Y2080765D01*
G01X-1419249Y2082874D01*
G01X-1421974Y2084461D01*
G01X-1427423Y2087193D01*
G01X-1433961Y2090980D01*
G01X-1438547Y2093174D01*
G01X-1439215Y2094254D01*
G01X-1444314Y2096981D01*
G01X-1449266Y2099958D01*
G01X-1453032Y2102335D01*
G01X-1456301Y2104621D01*
G01X-1469378Y2113310D01*
G01X-1472103Y2115205D01*
G01X-1477207Y2119037D01*
G01X-1481180Y2121763D01*
G01X-1489539Y2128622D01*
G01X-1493353Y2131736D01*
G01X-1500981Y2138128D01*
G01X-1506965Y2143569D01*
G01X-1522231Y2158865D01*
G01X-1530845Y2168370D01*
G01X-1532518Y2170759D01*
G01X-1534219Y2172578D01*
G01X-1538033Y2177683D01*
G01X-1541641Y2182274D01*
G01X-1544571Y2185722D01*
G01X-1547087Y2189360D01*
G01X-1550838Y2195179D01*
G01X-1550848Y2195902D01*
G01X-1554652Y2200689D01*
G01X-1554652Y2202087D01*
G01X-1557104Y2205173D01*
G01X-1558652Y2207895D01*
G01X-1562472Y2214982D01*
G01X-1567548Y2224818D01*
G01X-1568346Y2227999D01*
G01X-1570302Y2230791D01*
G01X-1571675Y2235152D01*
G01X-1573604Y2238423D01*
G01X-1574856Y2244405D01*
G01X-1576441Y2246825D01*
G01X-1579246Y2256958D01*
G01X-1581819Y2267860D01*
G01X-1583420Y2272221D01*
G01X-1585160Y2286585D01*
G01X-1586190Y2289293D01*
G01X-1587344Y2305475D01*
G01X-1562939Y2305475D01*
G01X-1561177Y2288030D01*
G01X-1560229Y2282579D01*
G01X-1557824Y2270041D01*
G01X-1554652Y2259902D01*
G01X-1554652Y2257574D01*
G01X-1552517Y2253142D01*
G01X-1550363Y2246600D01*
G01X-1547296Y2238350D01*
G01X-1545554Y2235697D01*
G01X-1544157Y2231336D01*
G01X-1542949Y2229821D01*
G01X-1540118Y2224249D01*
G01X-1536628Y2217708D01*
G01X-1534182Y2213693D01*
G01X-1532312Y2211625D01*
G01X-1532312Y2210926D01*
G01X-1526590Y2202636D01*
G01X-1524411Y2199585D01*
G01X-1519911Y2193176D01*
G01X-1508594Y2180093D01*
G01X-1505885Y2176835D01*
G01X-1490518Y2161479D01*
G01X-1480821Y2152905D01*
G01X-1478541Y2150655D01*
G01X-1474827Y2147628D01*
G01X-1467744Y2141914D01*
G01X-1463391Y2138662D01*
G01X-1460115Y2136251D01*
G01X-1454226Y2132121D01*
G01X-1450206Y2129395D01*
G01X-1446493Y2127017D01*
G01X-1443224Y2124719D01*
G01X-1437775Y2121320D01*
G01X-1432317Y2117675D01*
G01X-1431500Y2117675D01*
G01X-1426987Y2114404D01*
G01X-1425649Y2114404D01*
G01X-1424380Y2112874D01*
G01X-1418704Y2109976D01*
G01X-1412166Y2106334D01*
G01X-1401813Y2101257D01*
G01X-1399089Y2099772D01*
G01X-1388736Y2094701D01*
G01X-1384377Y2092688D01*
G01X-1376158Y2088860D01*
G01X-1372935Y2088083D01*
G01X-1368576Y2085632D01*
G01X-1364217Y2084256D01*
G01X-1362037Y2082909D01*
G01X-1356043Y2081006D01*
G01X-1354797Y2080023D01*
G01X-1346805Y2077807D01*
G01X-1345614Y2076818D01*
G01X-1335883Y2073454D01*
G01X-1327165Y2070856D01*
G01X-1320081Y2068530D01*
G01X-1314633Y2066443D01*
G01X-1308390Y2065290D01*
G01X-1303593Y2063167D01*
G01X-1295365Y2061592D01*
G01X-1292157Y2059933D01*
G01X-1284664Y2058745D01*
G01X-1276491Y2056143D01*
G01X-1268318Y2054556D01*
G01X-1249792Y2050537D01*
G01X-1235080Y2047972D01*
G01X-1231457Y2046859D01*
G01X-1220369Y2045620D01*
G01X-1210016Y2043576D01*
G01X-1198029Y2042427D01*
G01X-1190400Y2041458D01*
G01X-1177323Y2039753D01*
G01X-1156618Y2038018D01*
G01X-1156618Y2038018D01*
G01X-1147900Y2037061D01*
G01X-1119021Y2035906D01*
G01X-1053091Y2035911D01*
G01X-1024757Y2037028D01*
G01X-1016039Y2038058D01*
G01X-994789Y2039732D01*
G01X-982257Y2041470D01*
G01X-976263Y2042401D01*
G01X-963437Y2043594D01*
G01X-958394Y2045113D01*
G01X-952288Y2045781D01*
G01X-941474Y2047404D01*
G01X-940698Y2047885D01*
G01X-923763Y2050619D01*
G01X-921147Y2051614D01*
G01X-909788Y2053439D01*
G01X-903566Y2055512D01*
G01X-895621Y2056744D01*
G01X-890527Y2058751D01*
G01X-884724Y2059489D01*
G01X-879275Y2061531D01*
G01X-871253Y2063195D01*
G01X-868377Y2064669D01*
G01X-860204Y2066503D01*
G01X-856935Y2068034D01*
G01X-849306Y2069863D01*
G01X-846137Y2071455D01*
G01X-838433Y2073591D01*
G01X-837319Y2074491D01*
G01X-830236Y2076742D01*
G01X-819883Y2080503D01*
G01X-812789Y2083134D01*
G01X-810075Y2084859D01*
G01X-806261Y2085653D01*
G01X-800386Y2088782D01*
G01X-798781Y2088782D01*
G01X-794819Y2090868D01*
G01X-786373Y2094779D01*
G01X-777927Y2098652D01*
G01X-775203Y2100139D01*
G01X-763760Y2105938D01*
G01X-756132Y2110171D01*
G01X-750683Y2113262D01*
G01X-746324Y2115435D01*
G01X-742571Y2118220D01*
G01X-741281Y2118220D01*
G01X-739859Y2119935D01*
G01X-735427Y2122185D01*
G01X-732536Y2124489D01*
G01X-726852Y2127760D01*
G01X-723439Y2130598D01*
G01X-720858Y2131956D01*
G01X-714199Y2137027D01*
G01X-710907Y2139449D01*
G01X-707079Y2142056D01*
G01X-700010Y2147690D01*
G01X-696622Y2150655D01*
G01X-689711Y2156652D01*
G01X-677670Y2167766D01*
G01X-665253Y2180956D01*
G01X-653150Y2195471D01*
G01X-648791Y2201706D01*
G01X-646296Y2205169D01*
G01X-643659Y2208985D01*
G01X-641309Y2213278D01*
G01X-639674Y2214913D01*
G01X-637543Y2219343D01*
G01X-633915Y2225885D01*
G01X-628277Y2237333D01*
G01X-626297Y2241149D01*
G01X-625558Y2244641D01*
G01X-623460Y2247310D01*
G01X-621953Y2254505D01*
G01X-620657Y2256067D01*
G01X-617446Y2268405D01*
G01X-616459Y2272767D01*
G01X-615151Y2279853D01*
G01X-613724Y2284298D01*
G01X-612592Y2298933D01*
G01X-611876Y2319103D01*
G01X-613169Y2343089D01*
G01X-614714Y2352357D01*
G01X-617396Y2367845D01*
G01X-618412Y2369801D01*
G01X-620285Y2380134D01*
G01X-621668Y2382885D01*
G01X-623510Y2391062D01*
G01X-625097Y2394332D01*
G01X-627203Y2401419D01*
G01X-631168Y2412322D01*
G01X-632780Y2417228D01*
G01X-635306Y2422135D01*
G01X-636697Y2426496D01*
G01X-638156Y2428742D01*
G01X-639670Y2433776D01*
G01X-641980Y2437022D01*
G01X-641980Y2437934D01*
G01X-645847Y2446121D01*
G01X-647599Y2449391D01*
G01X-649647Y2453753D01*
G01X-650720Y2455388D01*
G01X-652342Y2459204D01*
G01X-653916Y2461930D01*
G01X-657218Y2468471D01*
G01X-660520Y2473923D01*
G01X-663323Y2479374D01*
G01X-665907Y2484142D01*
G01X-667414Y2485916D01*
G01X-670469Y2491367D01*
G01X-673085Y2496273D01*
G01X-676798Y2502270D01*
G01X-679155Y2506631D01*
G01X-681077Y2508812D01*
G01X-682342Y2512768D01*
G01X-684419Y2514649D01*
G01X-685150Y2518079D01*
G01X-687646Y2524075D01*
G01X-688390Y2534978D01*
G01X-687232Y2543700D01*
G01X-684404Y2550787D01*
G01X-679684Y2560055D01*
G01X-675342Y2568777D01*
G01X-671291Y2577499D01*
G01X-668776Y2582950D01*
G01X-667565Y2586856D01*
G01X-665410Y2591086D01*
G01X-665410Y2593126D01*
G01X-662228Y2601078D01*
G01X-661505Y2606391D01*
G01X-659444Y2612585D01*
G01X-657521Y2629287D01*
G01X-657509Y2658180D01*
G01X-658961Y2671263D01*
G01X-662141Y2682594D01*
G01X-662151Y2685982D01*
G01X-664746Y2691556D01*
G01X-665551Y2695249D01*
G01X-668679Y2701126D01*
G01X-668679Y2703007D01*
G01X-670709Y2705607D01*
G01X-671555Y2708332D01*
G01X-676580Y2717356D01*
G01X-679304Y2722055D01*
G01X-682029Y2725436D01*
G01X-685843Y2730662D01*
G01X-688022Y2733392D01*
G01X-698920Y2744857D01*
G01X-707463Y2752451D01*
G01X-710362Y2754388D01*
G01X-715266Y2758193D01*
G01X-719625Y2760520D01*
G01X-721324Y2762009D01*
G01X-726164Y2764734D01*
G01X-731613Y2767453D01*
G01X-733247Y2768515D01*
G01X-742103Y2772386D01*
G01X-743600Y2772390D01*
G01X-750139Y2775653D01*
G01X-752526Y2775657D01*
G01X-760125Y2778400D01*
G01X-770299Y2780035D01*
G01X-778472Y2781896D01*
G01X-808441Y2781871D01*
G01X-816614Y2780048D01*
G01X-827485Y2778341D01*
G01X-836774Y2775566D01*
G01X-846582Y2772228D01*
G01X-854210Y2769039D01*
G01X-862384Y2765174D01*
G01X-864018Y2764218D01*
G01X-870012Y2760904D01*
G01X-874508Y2757940D01*
G01X-877640Y2755831D01*
G01X-885085Y2750853D01*
G01X-887737Y2749114D01*
G01X-903249Y2735600D01*
G01X-907608Y2731126D01*
G01X-916500Y2721416D01*
G01X-920686Y2716128D01*
G01X-926679Y2708665D01*
G01X-928859Y2705655D01*
G01X-933763Y2698373D01*
G01X-935665Y2695249D01*
G01X-938853Y2690343D01*
G01X-944660Y2680774D01*
G01X-947929Y2675509D01*
G01X-950219Y2672059D01*
G01X-956618Y2665266D01*
G01X-960462Y2662491D01*
G01X-967786Y2658490D01*
G01X-974222Y2656822D01*
G01X-977353Y2655188D01*
G01X-987706Y2655189D01*
G01X-996424Y2657257D01*
G01X-1006776Y2658528D01*
G01X-1014405Y2660533D01*
G01X-1031841Y2662342D01*
G01X-1040014Y2663853D01*
G01X-1060719Y2665112D01*
G01X-1114117Y2665202D01*
G01X-1135368Y2663859D01*
G01X-1143541Y2662313D01*
G01X-1160432Y2660580D01*
G01X-1166971Y2659079D01*
G01X-1178958Y2657332D01*
G01X-1187375Y2655181D01*
G01X-1195849Y2655207D01*
G01X-1199663Y2656210D01*
G01X-1208519Y2658827D01*
G01X-1211819Y2661178D01*
G01X-1212870Y2661178D01*
G01X-1218734Y2665730D01*
G01X-1222375Y2669082D01*
G01X-1226953Y2675079D01*
G01X-1231197Y2682166D01*
G01X-1233991Y2686747D01*
G01X-1236715Y2691349D01*
G01X-1240603Y2697430D01*
G01X-1242709Y2700581D01*
G01X-1245165Y2703971D01*
G01X-1248045Y2708332D01*
G01X-1250882Y2711814D01*
G01X-1253218Y2714874D01*
G01X-1266248Y2730138D01*
G01X-1277581Y2741072D01*
G01X-1288479Y2750126D01*
G01X-1291203Y2752275D01*
G01X-1298388Y2756850D01*
G01X-1302986Y2759575D01*
G01X-1307004Y2762183D01*
G01X-1311363Y2764237D01*
G01X-1314088Y2765769D01*
G01X-1320081Y2768448D01*
G01X-1327306Y2771845D01*
G01X-1335338Y2774630D01*
G01X-1339697Y2775788D01*
G01X-1347325Y2778370D01*
G01X-1354954Y2779469D01*
G01X-1365169Y2781647D01*
G01X-1388191Y2782119D01*
G01X-1399163Y2781258D01*
G01X-1402903Y2780066D01*
G01X-1413933Y2778461D01*
G01X-1423608Y2775569D01*
G01X-1427967Y2774113D01*
G01X-1434139Y2771928D01*
G01X-1438320Y2769721D01*
G01X-1448673Y2764666D01*
G01X-1454666Y2760991D01*
G01X-1459570Y2758171D01*
G01X-1462847Y2755759D01*
G01X-1471013Y2749242D01*
G01X-1481946Y2738315D01*
G01X-1488503Y2730683D01*
G01X-1491718Y2726470D01*
G01X-1493898Y2723471D01*
G01X-1498226Y2717055D01*
G01X-1501162Y2711603D01*
G01X-1506235Y2701246D01*
G01X-1508361Y2696884D01*
G01X-1511141Y2688707D01*
G01X-1512812Y2682166D01*
G01X-1514808Y2676088D01*
G01X-1516046Y2666357D01*
G01X-1517110Y2659270D01*
G01X-1518109Y2652183D01*
G01X-1518145Y2630787D01*
G01X-1516666Y2626562D01*
G01X-1514766Y2611298D01*
G01X-1512837Y2604756D01*
G01X-1510659Y2596034D01*
G01X-1509471Y2592763D01*
G01X-1507906Y2587857D01*
G01X-1505051Y2580770D01*
G01X-1502888Y2576738D01*
G01X-1502888Y2575424D01*
G01X-1494617Y2558695D01*
G01X-1493787Y2558182D01*
G01X-1491842Y2552968D01*
G01X-1490291Y2551174D01*
G01X-1488252Y2544791D01*
G01X-1486590Y2540430D01*
G01X-1486542Y2526066D01*
G01X-1489811Y2517897D01*
G01X-1489811Y2516731D01*
G01X-1494536Y2508266D01*
G01X-1496732Y2504450D01*
G01X-1499619Y2500210D01*
G01X-1499619Y2498860D01*
G01X-1501369Y2497407D01*
G01X-1503995Y2491912D01*
G01X-1507739Y2485916D01*
G01X-1510526Y2481010D01*
G01X-1511491Y2479374D01*
G01X-1515286Y2472832D01*
G01X-1516108Y2470107D01*
G01X-1518016Y2467381D01*
G01X-1523745Y2456478D01*
G01X-1528402Y2447211D01*
G01X-1531354Y2440669D01*
G01X-1534986Y2433037D01*
G01X-1541105Y2418864D01*
G01X-1542776Y2413412D01*
G01X-1543811Y2412142D01*
G01X-1550406Y2393242D01*
G01X-1552360Y2386155D01*
G01X-1553955Y2381794D01*
G01X-1555201Y2374593D01*
G01X-1557303Y2368480D01*
G01X-1557983Y2363260D01*
G01X-1560619Y2350176D01*
G01X-1562386Y2332187D01*
G01X-1562939Y2305475D01*
G01X-1587344Y2305475D01*
G01X-1587500Y2307655D01*
G01X-1586776Y2338183D01*
G01X-1585117Y2346905D01*
G01X-1584068Y2355082D01*
G01X-1582916Y2364278D01*
G01X-1581820Y2366327D01*
G01X-1579661Y2378957D01*
G01X-1578164Y2381853D01*
G01X-1576427Y2391062D01*
G01X-1574412Y2396513D01*
G01X-1572030Y2403600D01*
G01X-1570048Y2410687D01*
G01X-1567844Y2416138D01*
G01X-1565417Y2422135D01*
G01X-1563344Y2428106D01*
G01X-1560645Y2433524D01*
G01X-1560645Y2435024D01*
G01X-1558042Y2439579D01*
G01X-1556693Y2443940D01*
G01X-1555337Y2445576D01*
G01X-1553502Y2451216D01*
G01X-1551983Y2452477D01*
G01X-1550674Y2456478D01*
G01X-1547450Y2463020D01*
G01X-1545874Y2465746D01*
G01X-1544273Y2469562D01*
G01X-1543181Y2471197D01*
G01X-1540414Y2476900D01*
G01X-1539481Y2477477D01*
G01X-1537579Y2482645D01*
G01X-1535633Y2484840D01*
G01X-1533934Y2488641D01*
G01X-1529621Y2495728D01*
G01X-1526808Y2501180D01*
G01X-1523866Y2506145D01*
G01X-1521499Y2509902D01*
G01X-1518417Y2515153D01*
G01X-1515420Y2519047D01*
G01X-1515420Y2520345D01*
G01X-1512145Y2525292D01*
G01X-1510882Y2534230D01*
G01X-1512053Y2540430D01*
G01X-1513328Y2543155D01*
G01X-1517003Y2549697D01*
G01X-1520305Y2556239D01*
G01X-1521319Y2557874D01*
G01X-1525125Y2566051D01*
G01X-1525887Y2568777D01*
G01X-1527475Y2571295D01*
G01X-1530022Y2578589D01*
G01X-1531839Y2584041D01*
G01X-1534491Y2590877D01*
G01X-1534491Y2592522D01*
G01X-1537611Y2602030D01*
G01X-1538403Y2608572D01*
G01X-1540916Y2618930D01*
G01X-1542129Y2632558D01*
G01X-1542119Y2650798D01*
G01X-1540967Y2667447D01*
G01X-1540028Y2672353D01*
G01X-1537666Y2684346D01*
G01X-1535110Y2693068D01*
G01X-1533292Y2698520D01*
G01X-1531112Y2705062D01*
G01X-1528420Y2711058D01*
G01X-1524411Y2719217D01*
G01X-1517375Y2732318D01*
G01X-1516391Y2733001D01*
G01X-1514058Y2736769D01*
G01X-1511879Y2740349D01*
G01X-1508391Y2744857D01*
G01X-1506209Y2747582D01*
G01X-1497676Y2757395D01*
G01X-1492263Y2762740D01*
G01X-1480648Y2772659D01*
G01X-1472647Y2778454D01*
G01X-1468900Y2780836D01*
G01X-1465564Y2783028D01*
G01X-1461903Y2785197D01*
G01X-1457391Y2788175D01*
G01X-1456384Y2788195D01*
G01X-1447038Y2792701D01*
G01X-1442679Y2794736D01*
G01X-1432871Y2798416D01*
G01X-1428512Y2799179D01*
G01X-1425939Y2800838D01*
G01X-1414890Y2802916D01*
G01X-1408921Y2804552D01*
G01X-1394185Y2805677D01*
G01X-1383287Y2806521D01*
G01X-1380018Y2806203D01*
G01X-1357678Y2805061D01*
G01X-1350595Y2803942D01*
G01X-1347915Y2802833D01*
G01X-1336701Y2800772D01*
G01X-1334498Y2799593D01*
G01X-1326396Y2797520D01*
G01X-1323896Y2795963D01*
G01X-1318447Y2794666D01*
G01X-1315102Y2792709D01*
G01X-1309540Y2790861D01*
G01X-1308283Y2789345D01*
G01X-1303002Y2787590D01*
G01X-1301741Y2786070D01*
G01X-1297878Y2784795D01*
G01X-1292293Y2781462D01*
G01X-1287934Y2778752D01*
G01X-1283423Y2775676D01*
G01X-1280850Y2774543D01*
G01X-1276933Y2771568D01*
G01X-1270631Y2766662D01*
G01X-1268318Y2765071D01*
G01X-1257965Y2756135D01*
G01X-1244300Y2742131D01*
G01X-1235059Y2731228D01*
G01X-1233446Y2728905D01*
G01X-1227997Y2721608D01*
G01X-1224728Y2717422D01*
G01X-1221458Y2711770D01*
G01X-1219155Y2708878D01*
G01X-1216770Y2704516D01*
G01X-1214338Y2700502D01*
G01X-1212579Y2698520D01*
G01X-1210168Y2693341D01*
G01X-1209374Y2693341D01*
G01X-1208013Y2690343D01*
G01X-1204044Y2685128D01*
G01X-1197028Y2680556D01*
G01X-1189418Y2680125D01*
G01X-1179503Y2681435D01*
G01X-1174177Y2682969D01*
G01X-1160432Y2684632D01*
G01X-1148445Y2686790D01*
G01X-1132643Y2687838D01*
G01X-1107579Y2690133D01*
G01X-1059630Y2689693D01*
G01X-1035655Y2687365D01*
G01X-1023123Y2686263D01*
G01X-1015494Y2684633D01*
G01X-1003133Y2683458D01*
G01X-994823Y2681331D01*
G01X-982257Y2680211D01*
G01X-977176Y2680892D01*
G01X-970737Y2685579D01*
G01X-966455Y2691433D01*
G01X-964058Y2695249D01*
G01X-961226Y2700155D01*
G01X-957737Y2705722D01*
G01X-955316Y2709423D01*
G01X-953715Y2711603D01*
G01X-950973Y2715419D01*
G01X-949164Y2718690D01*
G01X-947187Y2720871D01*
G01X-941658Y2729048D01*
G01X-936885Y2734499D01*
G01X-928707Y2744336D01*
G01X-915193Y2757395D01*
G01X-901457Y2768843D01*
G01X-898345Y2770726D01*
G01X-893442Y2774545D01*
G01X-890172Y2776356D01*
G01X-887313Y2778655D01*
G01X-883648Y2780836D01*
G01X-878185Y2783950D01*
G01X-874916Y2785519D01*
G01X-872191Y2787018D01*
G01X-862479Y2792011D01*
G01X-861252Y2792011D01*
G01X-856935Y2794277D01*
G01X-851570Y2795925D01*
G01X-849306Y2797387D01*
G01X-840096Y2799722D01*
G01X-838178Y2800750D01*
G01X-828056Y2802917D01*
G01X-822361Y2804481D01*
G01X-806806Y2805692D01*
G01X-793768Y2806700D01*
G01X-771389Y2805091D01*
G01X-762202Y2803937D01*
G01X-760375Y2802959D01*
G01X-749049Y2800618D01*
G01X-746905Y2799478D01*
G01X-739786Y2797583D01*
G01X-732702Y2794676D01*
G01X-725074Y2791349D01*
G01X-716104Y2786832D01*
G01X-710875Y2784107D01*
G01X-707638Y2781997D01*
G01X-700555Y2777253D01*
G01X-695651Y2773482D01*
G01X-691837Y2770879D01*
G01X-685298Y2765199D01*
G01X-672221Y2751849D01*
G01X-668952Y2747850D01*
G01X-665682Y2744202D01*
G01X-661868Y2738580D01*
G01X-659144Y2734844D01*
G01X-655875Y2729270D01*
G01X-652333Y2723633D01*
G01X-652333Y2722380D01*
G01X-650130Y2719579D01*
G01X-648542Y2715075D01*
G01X-646490Y2712148D01*
G01X-645117Y2707787D01*
G01X-643216Y2704516D01*
G01X-641928Y2699191D01*
G01X-639927Y2695249D01*
G01X-638586Y2688707D01*
G01X-637184Y2685972D01*
G01X-635394Y2676169D01*
G01X-633272Y2665812D01*
G01X-632043Y2649457D01*
G01X-632761Y2629832D01*
G01X-633881Y2617294D01*
G01X-635433Y2612388D01*
G01X-637004Y2602030D01*
G01X-638648Y2597438D01*
G01X-639961Y2590582D01*
G01X-641880Y2586734D01*
G01X-643770Y2580225D01*
G01X-645161Y2578044D01*
G01X-646439Y2573138D01*
G01X-648394Y2569867D01*
G01X-649209Y2567141D01*
G01X-652243Y2560600D01*
G01X-653975Y2556784D01*
G01X-657509Y2550467D01*
G01X-662149Y2541645D01*
G01X-663775Y2535366D01*
G01X-663736Y2531162D01*
G01X-662237Y2524883D01*
G01X-658871Y2519800D01*
G01X-658871Y2518435D01*
G01X-656296Y2515353D01*
G01X-655527Y2512894D01*
G01X-652908Y2509781D01*
G01X-651737Y2507176D01*
G01X-647493Y2500089D01*
G01X-644121Y2494093D01*
G01X-640945Y2488641D01*
G01X-638577Y2483735D01*
G01X-637147Y2482092D01*
G01X-628262Y2464655D01*
G01X-626790Y2461930D01*
G01X-622365Y2452496D01*
G01X-622365Y2451433D01*
G01X-620906Y2450222D01*
G01X-619546Y2445576D01*
G01X-617738Y2442850D01*
G01X-615392Y2436853D01*
G01X-612499Y2429766D01*
G01X-609832Y2424111D01*
G01X-609832Y2422664D01*
G01X-607512Y2418332D01*
G01X-605529Y2411777D01*
G01X-601070Y2399239D01*
G01X-598388Y2389971D01*
G01X-596616Y2382885D01*
G01X-594634Y2376343D01*
G01X-592890Y2367076D01*
G01X-590830Y2358353D01*
G01X-589648Y2346836D01*
G01X-588510Y2340364D01*
G01X-587540Y2332732D01*
G01X-587500Y2299478D01*
G01X-589143Y2289121D01*
G01X-590716Y2275704D01*
G01X-593327Y2265680D01*
G01X-594665Y2258638D01*
G01X-596281Y2255512D01*
G01X-597240Y2249617D01*
G01X-598910Y2246055D01*
G01X-601536Y2238423D01*
G01X-604464Y2230791D01*
G01X-606445Y2227520D01*
G01X-607192Y2223989D01*
G01X-608333Y2223283D01*
G01X-611512Y2216617D01*
G01X-617733Y2205169D01*
G01X-620128Y2201353D01*
G01X-625361Y2193286D01*
G01X-627317Y2190052D01*
G01X-628631Y2188676D01*
G01X-632990Y2182435D01*
G01X-636259Y2178370D01*
G01X-638983Y2174715D01*
G01X-643117Y2169735D01*
G01X-646067Y2166197D01*
G01X-652060Y2159459D01*
G01X-669497Y2141851D01*
G01X-681865Y2131204D01*
G01X-687027Y2127215D01*
G01X-691292Y2123944D01*
G01X-692381Y2122565D01*
G01X-695210Y2120673D01*
G01X-701099Y2116612D01*
G01X-705458Y2113353D01*
G01X-709273Y2111241D01*
G01X-713632Y2107931D01*
G01X-715481Y2106285D01*
G01X-719080Y2104438D01*
G01X-721972Y2102138D01*
G01X-727610Y2098867D01*
G01X-731068Y2096444D01*
G01X-736517Y2093644D01*
G01X-741577Y2090690D01*
G01X-748410Y2086874D01*
G01X-758857Y2081396D01*
G01X-761630Y2079536D01*
G01X-765395Y2078258D01*
G01X-768120Y2076395D01*
G01X-772138Y2075092D01*
G01X-774658Y2073123D01*
G01X-777382Y2072339D01*
G01X-783376Y2069557D01*
G01X-789915Y2066591D01*
G01X-795908Y2064133D01*
G01X-803537Y2061079D01*
G01X-810620Y2058173D01*
G01X-813889Y2056717D01*
G01X-818686Y2055442D01*
G01X-822591Y2053348D01*
G01X-823993Y2053348D01*
G01X-833754Y2049532D01*
G01X-836229Y2049508D01*
G01X-841133Y2047225D01*
G01X-848217Y2045245D01*
G01X-853121Y2043576D01*
G01X-860204Y2041275D01*
G01X-871102Y2038666D01*
G01X-873789Y2037455D01*
G01X-883197Y2035485D01*
G01X-885276Y2034372D01*
G01X-895621Y2032489D01*
G01X-900525Y2030598D01*
G01X-905974Y2029847D01*
G01X-916871Y2027221D01*
G01X-928144Y2025530D01*
G01X-930029Y2024520D01*
G01X-943026Y2022784D01*
G01X-952288Y2020724D01*
G01X-965910Y2019484D01*
G01X-972563Y2017967D01*
G01X-994865Y2015743D01*
G01X-1000462Y2014681D01*
G01X-1017674Y2013558D01*
G37*
G36*
G01X-1065024Y2197268D02*
G01X-1088350Y2196004D01*
G01X-1110083Y2197338D01*
G01X-1115757Y2198817D01*
G01X-1125287Y2200481D01*
G01X-1137547Y2204418D01*
G01X-1141906Y2206393D01*
G01X-1150624Y2210377D01*
G01X-1152259Y2211461D01*
G01X-1157252Y2213929D01*
G01X-1160715Y2216617D01*
G01X-1168605Y2223040D01*
G01X-1170512Y2224239D01*
G01X-1170512Y2226702D01*
G01X-1165257Y2226702D01*
G01X-1147900Y2225015D01*
G01X-1144631Y2224002D01*
G01X-1127194Y2222415D01*
G01X-1116842Y2221706D01*
G01X-1107579Y2220077D01*
G01X-1067258Y2220099D01*
G01X-1060719Y2221210D01*
G01X-1035780Y2223452D01*
G01X-1022578Y2225536D01*
G01X-1007866Y2226806D01*
G01X-1007400Y2227259D01*
G01X-1005142Y2226555D01*
G01X-1004341Y2225339D01*
G01X-1004390Y2224249D01*
G01X-1010961Y2219343D01*
G01X-1012770Y2217346D01*
G01X-1016584Y2215200D01*
G01X-1022578Y2211502D01*
G01X-1032527Y2206532D01*
G01X-1033492Y2206532D01*
G01X-1037447Y2204411D01*
G01X-1044373Y2202622D01*
G01X-1049277Y2200636D01*
G01X-1059085Y2198803D01*
G01X-1065024Y2197268D01*
G37*
G36*
G01X-1048732Y2272975D02*
G01X-1105399Y2272390D01*
G01X-1126650Y2273594D01*
G01X-1143541Y2274665D01*
G01X-1167515Y2276309D01*
G01X-1176234Y2277905D01*
G01X-1195004Y2279619D01*
G01X-1199118Y2281067D01*
G01X-1207836Y2281837D01*
G01X-1215465Y2282940D01*
G01X-1220914Y2284414D01*
G01X-1227997Y2285107D01*
G01X-1236487Y2286653D01*
G01X-1238350Y2287590D01*
G01X-1248158Y2288974D01*
G01X-1254151Y2290949D01*
G01X-1262324Y2292180D01*
G01X-1268318Y2294263D01*
G01X-1275401Y2295435D01*
G01X-1284119Y2297985D01*
G01X-1292293Y2300357D01*
G01X-1301556Y2302937D01*
G01X-1312453Y2306400D01*
G01X-1321171Y2309002D01*
G01X-1323158Y2310167D01*
G01X-1331524Y2312776D01*
G01X-1340242Y2315833D01*
G01X-1341423Y2316602D01*
G01X-1348960Y2319475D01*
G01X-1355799Y2322094D01*
G01X-1360087Y2324282D01*
G01X-1361409Y2324282D01*
G01X-1370755Y2328788D01*
G01X-1375659Y2330955D01*
G01X-1382198Y2334025D01*
G01X-1392005Y2338520D01*
G01X-1393640Y2339469D01*
G01X-1404538Y2345105D01*
G01X-1406172Y2346555D01*
G01X-1411076Y2348821D01*
G01X-1415435Y2351315D01*
G01X-1426878Y2358188D01*
G01X-1430380Y2360534D01*
G01X-1435325Y2363618D01*
G01X-1438646Y2362889D01*
G01X-1444764Y2357263D01*
G01X-1448853Y2353447D01*
G01X-1451397Y2351577D01*
G01X-1456190Y2347675D01*
G01X-1460946Y2344886D01*
G01X-1462709Y2345563D01*
G01X-1462152Y2356718D01*
G01X-1460490Y2360534D01*
G01X-1459291Y2367076D01*
G01X-1457335Y2369801D01*
G01X-1455426Y2374894D01*
G01X-1453786Y2376256D01*
G01X-1452381Y2379614D01*
G01X-1442570Y2389426D01*
G01X-1438865Y2392454D01*
G01X-1434666Y2395194D01*
G01X-1425788Y2399436D01*
G01X-1422519Y2400241D01*
G01X-1418160Y2402162D01*
G01X-1408897Y2402906D01*
G01X-1407090Y2400874D01*
G01X-1408897Y2397513D01*
G01X-1411265Y2393787D01*
G01X-1414890Y2389007D01*
G01X-1418003Y2385335D01*
G01X-1418869Y2381491D01*
G01X-1416525Y2379850D01*
G01X-1412476Y2377219D01*
G01X-1402076Y2371437D01*
G01X-1396822Y2368711D01*
G01X-1393640Y2366515D01*
G01X-1377839Y2358503D01*
G01X-1375114Y2357066D01*
G01X-1366396Y2353100D01*
G01X-1360947Y2350516D01*
G01X-1354914Y2347757D01*
G01X-1350068Y2346046D01*
G01X-1347870Y2344618D01*
G01X-1343511Y2343230D01*
G01X-1340242Y2341328D01*
G01X-1334793Y2340009D01*
G01X-1331524Y2337993D01*
G01X-1326075Y2336659D01*
G01X-1322196Y2334723D01*
G01X-1315311Y2332939D01*
G01X-1312998Y2331492D01*
G01X-1307004Y2330131D01*
G01X-1303156Y2328197D01*
G01X-1297177Y2327092D01*
G01X-1291458Y2324836D01*
G01X-1283575Y2323059D01*
G01X-1280810Y2321649D01*
G01X-1272132Y2319906D01*
G01X-1268318Y2318375D01*
G01X-1258782Y2316594D01*
G01X-1255241Y2315142D01*
G01X-1245433Y2313795D01*
G01X-1241074Y2312402D01*
G01X-1235625Y2311249D01*
G01X-1229632Y2310517D01*
G01X-1224728Y2309015D01*
G01X-1206202Y2306334D01*
G01X-1202933Y2305258D01*
G01X-1186318Y2303515D01*
G01X-1178250Y2301971D01*
G01X-1163156Y2300790D01*
G01X-1152804Y2299732D01*
G01X-1144631Y2298723D01*
G01X-1119021Y2297367D01*
G01X-1056905Y2297459D01*
G01X-1029661Y2298691D01*
G01X-1017674Y2300260D01*
G01X-1001872Y2301392D01*
G01X-995334Y2301952D01*
G01X-987739Y2303560D01*
G01X-971359Y2305291D01*
G01X-965366Y2306767D01*
G01X-952288Y2308521D01*
G01X-944660Y2310611D01*
G01X-935252Y2311759D01*
G01X-929099Y2313877D01*
G01X-920396Y2315069D01*
G01X-915782Y2316712D01*
G01X-907064Y2318339D01*
G01X-900793Y2320466D01*
G01X-898761Y2320466D01*
G01X-890717Y2323256D01*
G01X-883089Y2324834D01*
G01X-878081Y2326965D01*
G01X-871102Y2328571D01*
G01X-861294Y2331881D01*
G01X-859494Y2332947D01*
G01X-852576Y2334740D01*
G01X-849851Y2336285D01*
G01X-842223Y2338899D01*
G01X-835684Y2341217D01*
G01X-831870Y2343243D01*
G01X-828056Y2344014D01*
G01X-823697Y2346486D01*
G01X-819338Y2347861D01*
G01X-817703Y2349179D01*
G01X-813889Y2350579D01*
G01X-807896Y2353320D01*
G01X-801357Y2356391D01*
G01X-797543Y2358021D01*
G01X-794819Y2359665D01*
G01X-789915Y2361901D01*
G01X-784466Y2365113D01*
G01X-779017Y2367922D01*
G01X-772479Y2371683D01*
G01X-766986Y2374320D01*
G01X-765534Y2376070D01*
G01X-764291Y2376070D01*
G01X-758627Y2379886D01*
G01X-757556Y2379886D01*
G01X-755860Y2382309D01*
G01X-755860Y2384730D01*
G01X-762205Y2392152D01*
G01X-766023Y2398148D01*
G01X-767847Y2401108D01*
G01X-767847Y2401657D01*
G01X-765016Y2403141D01*
G01X-755544Y2401838D01*
G01X-752318Y2400171D01*
G01X-747542Y2398885D01*
G01X-739514Y2394680D01*
G01X-736348Y2392424D01*
G01X-735518Y2392424D01*
G01X-732702Y2389731D01*
G01X-727735Y2385065D01*
G01X-721260Y2377259D01*
G01X-718259Y2372378D01*
G01X-716614Y2367715D01*
G01X-715515Y2366390D01*
G01X-712823Y2353447D01*
G01X-712814Y2347966D01*
G01X-714511Y2345543D01*
G01X-716196Y2345543D01*
G01X-722457Y2350721D01*
G01X-726572Y2353992D01*
G01X-735256Y2362169D01*
G01X-737606Y2363494D01*
G01X-739925Y2363532D01*
G01X-741352Y2361812D01*
G01X-746324Y2359099D01*
G01X-751349Y2356173D01*
G01X-753281Y2354537D01*
G01X-757767Y2352160D01*
G01X-762899Y2349529D01*
G01X-764305Y2348362D01*
G01X-775748Y2342494D01*
G01X-791004Y2334738D01*
G01X-798633Y2331238D01*
G01X-805171Y2328163D01*
G01X-813641Y2324282D01*
G01X-815089Y2324282D01*
G01X-819883Y2321733D01*
G01X-825591Y2319838D01*
G01X-826169Y2318902D01*
G01X-832415Y2317110D01*
G01X-834650Y2315677D01*
G01X-841678Y2313725D01*
G01X-847127Y2311209D01*
G01X-849306Y2311188D01*
G01X-854766Y2308645D01*
G01X-860749Y2307237D01*
G01X-863955Y2305611D01*
G01X-873281Y2302935D01*
G01X-884179Y2299955D01*
G01X-886358Y2298817D01*
G01X-893366Y2297477D01*
G01X-898345Y2295535D01*
G01X-903719Y2294748D01*
G01X-910734Y2292581D01*
G01X-922529Y2290556D01*
G01X-924670Y2289410D01*
G01X-935904Y2287722D01*
G01X-940485Y2286166D01*
G01X-955950Y2283932D01*
G01X-956823Y2283392D01*
G01X-965366Y2281856D01*
G01X-972994Y2281167D01*
G01X-979961Y2279560D01*
G01X-998058Y2277918D01*
G01X-1005687Y2276383D01*
G01X-1019853Y2275261D01*
G01X-1032930Y2274582D01*
G01X-1048732Y2272975D01*
G37*
G36*
G01X-1029338Y2489187D02*
G01X-1033080Y2485059D01*
G01X-1039306Y2482869D01*
G01X-1044076Y2484692D01*
G01X-1047471Y2489986D01*
G01X-1048010Y2496273D01*
G01X-1046352Y2503360D01*
G01X-1043790Y2510447D01*
G01X-1040162Y2516108D01*
G01X-1033577Y2520532D01*
G01X-1029550Y2520532D01*
G01X-1025966Y2518079D01*
G01X-1022786Y2512083D01*
G01X-1022746Y2506954D01*
G01X-1024343Y2501725D01*
G01X-1025724Y2495728D01*
G01X-1027629Y2493003D01*
G01X-1029338Y2489187D01*
G37*
G36*
G01X-1127194Y2490277D02*
G01X-1130320Y2485054D01*
G01X-1134507Y2482918D01*
G01X-1136457Y2482928D01*
G01X-1141906Y2485510D01*
G01X-1145393Y2489187D01*
G01X-1148290Y2494638D01*
G01X-1151635Y2504450D01*
G01X-1151516Y2512763D01*
G01X-1148075Y2518358D01*
G01X-1145750Y2519987D01*
G01X-1140097Y2519987D01*
G01X-1134568Y2515614D01*
G01X-1132759Y2512628D01*
G01X-1130745Y2509686D01*
G01X-1127332Y2500635D01*
G01X-1127194Y2490277D01*
G37*
G36*
G01X-1367486Y2537829D02*
G01X-1391461Y2537355D01*
G01X-1400179Y2538980D01*
G01X-1411310Y2541189D01*
G01X-1413515Y2542369D01*
G01X-1420884Y2544646D01*
G01X-1430692Y2549310D01*
G01X-1434506Y2551068D01*
G01X-1438320Y2553735D01*
G01X-1442134Y2556542D01*
G01X-1448128Y2560879D01*
G01X-1454586Y2566596D01*
G01X-1459634Y2571503D01*
G01X-1465054Y2578044D01*
G01X-1468288Y2582240D01*
G01X-1471267Y2586766D01*
G01X-1474282Y2592369D01*
G01X-1478829Y2601485D01*
G01X-1482119Y2609858D01*
G01X-1482877Y2614023D01*
G01X-1484857Y2619114D01*
G01X-1486673Y2631468D01*
G01X-1486079Y2658180D01*
G01X-1484423Y2664721D01*
G01X-1482636Y2671808D01*
G01X-1481196Y2676169D01*
G01X-1478289Y2683801D01*
G01X-1476872Y2685437D01*
G01X-1475858Y2688707D01*
G01X-1371845Y2688707D01*
G01X-1371845Y2673939D01*
G01X-1368031Y2666409D01*
G01X-1364536Y2662221D01*
G01X-1358807Y2657915D01*
G01X-1354954Y2656651D01*
G01X-1354954Y2656651D01*
G01X-1352774Y2655273D01*
G01X-1344601Y2654575D01*
G01X-1339697Y2655633D01*
G01X-1332614Y2658604D01*
G01X-1327801Y2662541D01*
G01X-1322543Y2668855D01*
G01X-1321844Y2671808D01*
G01X-1319769Y2676470D01*
G01X-1319717Y2685437D01*
G01X-1323132Y2695249D01*
G01X-1325778Y2699065D01*
G01X-1330979Y2703489D01*
G01X-1336973Y2706856D01*
G01X-1341877Y2707573D01*
G01X-1344601Y2707922D01*
G01X-1354111Y2706995D01*
G01X-1357678Y2705276D01*
G01X-1361492Y2703178D01*
G01X-1367192Y2697695D01*
G01X-1369278Y2693614D01*
G01X-1371845Y2688707D01*
G01X-1475858Y2688707D01*
G01X-1475520Y2689798D01*
G01X-1472375Y2694799D01*
G01X-1472375Y2695933D01*
G01X-1470661Y2697357D01*
G01X-1468412Y2701791D01*
G01X-1465875Y2705062D01*
G01X-1462840Y2708737D01*
G01X-1460115Y2711693D01*
G01X-1455135Y2717055D01*
G01X-1448673Y2722739D01*
G01X-1444859Y2725889D01*
G01X-1442134Y2727306D01*
G01X-1439410Y2729378D01*
G01X-1435123Y2732149D01*
G01X-1425788Y2736824D01*
G01X-1419853Y2739678D01*
G01X-1417720Y2739678D01*
G01X-1412128Y2742324D01*
G01X-1402358Y2744152D01*
G01X-1400214Y2745295D01*
G01X-1391461Y2746146D01*
G01X-1368031Y2745697D01*
G01X-1359313Y2743608D01*
G01X-1352774Y2742308D01*
G01X-1347163Y2739789D01*
G01X-1343666Y2739020D01*
G01X-1336428Y2735783D01*
G01X-1334793Y2734780D01*
G01X-1328800Y2731440D01*
G01X-1323986Y2728593D01*
G01X-1321989Y2726595D01*
G01X-1320944Y2726595D01*
G01X-1312998Y2720002D01*
G01X-1303358Y2710513D01*
G01X-1297197Y2702345D01*
G01X-1294788Y2699065D01*
G01X-1292442Y2694704D01*
G01X-1290537Y2692523D01*
G01X-1289336Y2688932D01*
G01X-1287268Y2685982D01*
G01X-1285866Y2681663D01*
G01X-1283418Y2676714D01*
G01X-1282633Y2672898D01*
G01X-1281063Y2669082D01*
G01X-1278946Y2658180D01*
G01X-1278942Y2654909D01*
G01X-1277196Y2646732D01*
G01X-1277762Y2633091D01*
G01X-1279456Y2625471D01*
G01X-1281118Y2614795D01*
G01X-1282664Y2611805D01*
G01X-1283432Y2607482D01*
G01X-1286686Y2599850D01*
G01X-1291521Y2590037D01*
G01X-1294472Y2585572D01*
G01X-1298831Y2579261D01*
G01X-1301360Y2575495D01*
G01X-1315722Y2560931D01*
G01X-1319537Y2558204D01*
G01X-1327165Y2553073D01*
G01X-1330098Y2551074D01*
G01X-1335883Y2548361D01*
G01X-1337518Y2547358D01*
G01X-1344601Y2544007D01*
G01X-1350050Y2542722D01*
G01X-1354087Y2540705D01*
G01X-1361492Y2539621D01*
G01X-1367486Y2537829D01*
G37*
G36*
G01X-779017Y2537704D02*
G01X-804626Y2537704D01*
G01X-814979Y2540047D01*
G01X-820428Y2540805D01*
G01X-824849Y2542814D01*
G01X-830236Y2544120D01*
G01X-834050Y2546135D01*
G01X-838954Y2548320D01*
G01X-840588Y2549376D01*
G01X-845492Y2551569D01*
G01X-854755Y2558189D01*
G01X-858569Y2560729D01*
G01X-868619Y2570213D01*
G01X-877138Y2580225D01*
G01X-879187Y2583467D01*
G01X-880174Y2584586D01*
G01X-882786Y2588947D01*
G01X-884995Y2593853D01*
G01X-886108Y2595489D01*
G01X-887723Y2599305D01*
G01X-890421Y2604756D01*
G01X-891587Y2609662D01*
G01X-893606Y2614569D01*
G01X-894839Y2622746D01*
G01X-896698Y2629832D01*
G01X-896711Y2652728D01*
G01X-894845Y2659815D01*
G01X-893666Y2669492D01*
G01X-891587Y2673570D01*
G01X-891220Y2675079D01*
G01X-854755Y2675079D01*
G01X-852475Y2670173D01*
G01X-851062Y2666583D01*
G01X-842360Y2658495D01*
G01X-836774Y2656693D01*
G01X-836774Y2656693D01*
G01X-834595Y2655351D01*
G01X-826966Y2654745D01*
G01X-822062Y2655619D01*
G01X-814653Y2658742D01*
G01X-807036Y2665649D01*
G01X-803207Y2673258D01*
G01X-802203Y2682064D01*
G01X-803245Y2689253D01*
G01X-805989Y2694616D01*
G01X-805989Y2695896D01*
G01X-812293Y2702336D01*
G01X-819338Y2706532D01*
G01X-826422Y2707479D01*
G01X-834050Y2707395D01*
G01X-838561Y2706502D01*
G01X-844642Y2703068D01*
G01X-850664Y2697138D01*
G01X-854732Y2689253D01*
G01X-854755Y2675079D01*
G01X-891220Y2675079D01*
G01X-890293Y2678895D01*
G01X-887109Y2685982D01*
G01X-885648Y2688707D01*
G01X-880380Y2699065D01*
G01X-877640Y2702419D01*
G01X-874371Y2706674D01*
G01X-866976Y2715123D01*
G01X-862928Y2718886D01*
G01X-857221Y2723824D01*
G01X-850969Y2728502D01*
G01X-846037Y2731466D01*
G01X-841133Y2733830D01*
G01X-838409Y2735711D01*
G01X-834050Y2737117D01*
G01X-831746Y2738616D01*
G01X-823697Y2741414D01*
G01X-817159Y2743007D01*
G01X-810620Y2744729D01*
G01X-799722Y2746097D01*
G01X-785556Y2746190D01*
G01X-775582Y2745224D01*
G01X-765395Y2742852D01*
G01X-760491Y2741363D01*
G01X-752318Y2738549D01*
G01X-747959Y2736490D01*
G01X-744145Y2734751D01*
G01X-738151Y2730976D01*
G01X-734882Y2729377D01*
G01X-729433Y2725507D01*
G01X-726442Y2723051D01*
G01X-722831Y2719780D01*
G01X-717991Y2715326D01*
G01X-711452Y2707923D01*
G01X-708728Y2704847D01*
G01X-705176Y2699610D01*
G01X-702477Y2695496D01*
G01X-698016Y2686527D01*
G01X-695858Y2682382D01*
G01X-693125Y2674534D01*
G01X-688752Y2658180D01*
G01X-688004Y2639645D01*
G01X-688687Y2627107D01*
G01X-691124Y2616749D01*
G01X-693120Y2609662D01*
G01X-695422Y2603121D01*
G01X-698762Y2596034D01*
G01X-699944Y2593853D01*
G01X-702042Y2589492D01*
G01X-703461Y2587857D01*
G01X-706003Y2583353D01*
G01X-709167Y2578589D01*
G01X-718762Y2567397D01*
G01X-723874Y2562970D01*
G01X-731068Y2557298D01*
G01X-734186Y2555148D01*
G01X-739786Y2551688D01*
G01X-749594Y2546832D01*
G01X-757222Y2543525D01*
G01X-761036Y2542750D01*
G01X-764850Y2540824D01*
G01X-773023Y2539584D01*
G01X-779017Y2537704D01*
G37*
G04 Image End*

G04 Text Start*
G54D10*
G01X-450342Y-1759204D02*
G01X-453390Y-1752854D01*
G01X-459740Y-1746758D01*
G01X-465836Y-1743710D01*
G01X-478282Y-1743710D01*
G01X-484378Y-1746758D01*
G01X-490728Y-1752854D01*
G01X-493776Y-1759204D01*
G01X-496824Y-1768348D01*
G01X-496824Y-1783842D01*
G01X-493776Y-1793240D01*
G01X-490728Y-1799336D01*
G01X-484378Y-1805686D01*
G01X-478282Y-1808734D01*
G01X-465836Y-1808734D01*
G01X-459740Y-1805686D01*
G01X-453390Y-1799336D01*
G01X-450342Y-1793240D01*
G01X-420116Y-1756156D02*
G01X-414020Y-1752854D01*
G01X-404876Y-1743710D01*
G01X-404876Y-1808734D01*
G01X-272235Y210929D02*
G01X-275283Y217279D01*
G01X-281633Y223375D01*
G01X-287729Y226423D01*
G01X-300175Y226423D01*
G01X-306271Y223375D01*
G01X-312621Y217279D01*
G01X-315669Y210929D01*
G01X-318717Y201785D01*
G01X-318717Y186291D01*
G01X-315669Y176893D01*
G01X-312621Y170797D01*
G01X-306271Y164447D01*
G01X-300175Y161399D01*
G01X-287729Y161399D01*
G01X-281633Y164447D01*
G01X-275283Y170797D01*
G01X-272235Y176893D01*
G01X-238961Y210929D02*
G01X-238961Y213977D01*
G01X-235913Y220327D01*
G01X-232865Y223375D01*
G01X-226769Y226423D01*
G01X-214323Y226423D01*
G01X-207973Y223375D01*
G01X-204925Y220327D01*
G01X-201877Y213977D01*
G01X-201877Y207881D01*
G01X-204925Y201785D01*
G01X-211275Y192387D01*
G01X-242009Y161399D01*
G01X-198829Y161399D01*
G01X-107135Y-1478171D02*
G01X-110183Y-1471821D01*
G01X-116533Y-1465725D01*
G01X-122629Y-1462677D01*
G01X-135075Y-1462677D01*
G01X-141171Y-1465725D01*
G01X-147521Y-1471821D01*
G01X-150569Y-1478171D01*
G01X-153617Y-1487315D01*
G01X-153617Y-1502809D01*
G01X-150569Y-1512207D01*
G01X-147521Y-1518303D01*
G01X-141171Y-1524653D01*
G01X-135075Y-1527701D01*
G01X-122629Y-1527701D01*
G01X-116533Y-1524653D01*
G01X-110183Y-1518303D01*
G01X-107135Y-1512207D01*
G01X-70813Y-1462677D02*
G01X-36777Y-1462677D01*
G01X-55319Y-1487315D01*
G01X-46175Y-1487315D01*
G01X-39825Y-1490363D01*
G01X-36777Y-1493665D01*
G01X-33729Y-1502809D01*
G01X-33729Y-1509159D01*
G01X-36777Y-1518303D01*
G01X-42873Y-1524653D01*
G01X-52271Y-1527701D01*
G01X-61669Y-1527701D01*
G01X-70813Y-1524653D01*
G01X-73861Y-1521351D01*
G01X-76909Y-1515255D01*
G01X-2104189Y1178451D02*
G01X-2107237Y1184801D01*
G01X-2113587Y1190897D01*
G01X-2119683Y1193945D01*
G01X-2132129Y1193945D01*
G01X-2138225Y1190897D01*
G01X-2144575Y1184801D01*
G01X-2147623Y1178451D01*
G01X-2150671Y1169307D01*
G01X-2150671Y1153813D01*
G01X-2147623Y1144415D01*
G01X-2144575Y1138319D01*
G01X-2138225Y1131969D01*
G01X-2132129Y1128921D01*
G01X-2119683Y1128921D01*
G01X-2113587Y1131969D01*
G01X-2107237Y1138319D01*
G01X-2104189Y1144415D01*
G01X-2043229Y1193945D02*
G01X-2073963Y1150765D01*
G01X-2027735Y1150765D01*
G01X-2043229Y1193945D02*
G01X-2043229Y1128921D01*
G01X-1875589Y-447149D02*
G01X-1878637Y-440799D01*
G01X-1884987Y-434703D01*
G01X-1891083Y-431655D01*
G01X-1903529Y-431655D01*
G01X-1909625Y-434703D01*
G01X-1915975Y-440799D01*
G01X-1919023Y-447149D01*
G01X-1922071Y-456293D01*
G01X-1922071Y-471787D01*
G01X-1919023Y-481185D01*
G01X-1915975Y-487281D01*
G01X-1909625Y-493631D01*
G01X-1903529Y-496679D01*
G01X-1891083Y-496679D01*
G01X-1884987Y-493631D01*
G01X-1878637Y-487281D01*
G01X-1875589Y-481185D01*
G01X-1808279Y-431655D02*
G01X-1839267Y-431655D01*
G01X-1842315Y-459341D01*
G01X-1839267Y-456293D01*
G01X-1830123Y-453245D01*
G01X-1820725Y-453245D01*
G01X-1811327Y-456293D01*
G01X-1805231Y-462643D01*
G01X-1802183Y-471787D01*
G01X-1802183Y-478137D01*
G01X-1805231Y-487281D01*
G01X-1811327Y-493631D01*
G01X-1820725Y-496679D01*
G01X-1830123Y-496679D01*
G01X-1839267Y-493631D01*
G01X-1842315Y-490329D01*
G01X-1845363Y-484233D01*
G01X-1800499Y1082441D02*
G01X-1803547Y1088791D01*
G01X-1809897Y1094887D01*
G01X-1815993Y1097935D01*
G01X-1828439Y1097935D01*
G01X-1834535Y1094887D01*
G01X-1840885Y1088791D01*
G01X-1843933Y1082441D01*
G01X-1846981Y1073297D01*
G01X-1846981Y1057803D01*
G01X-1843933Y1048405D01*
G01X-1840885Y1042309D01*
G01X-1834535Y1035959D01*
G01X-1828439Y1032911D01*
G01X-1815993Y1032911D01*
G01X-1809897Y1035959D01*
G01X-1803547Y1042309D01*
G01X-1800499Y1048405D01*
G01X-1733189Y1088791D02*
G01X-1736237Y1094887D01*
G01X-1745635Y1097935D01*
G01X-1751731Y1097935D01*
G01X-1761129Y1094887D01*
G01X-1767225Y1085489D01*
G01X-1770273Y1070249D01*
G01X-1770273Y1054755D01*
G01X-1767225Y1042309D01*
G01X-1761129Y1035959D01*
G01X-1751731Y1032911D01*
G01X-1748683Y1032911D01*
G01X-1739539Y1035959D01*
G01X-1733189Y1042309D01*
G01X-1730141Y1051453D01*
G01X-1730141Y1054755D01*
G01X-1733189Y1063899D01*
G01X-1739539Y1070249D01*
G01X-1748683Y1073297D01*
G01X-1751731Y1073297D01*
G01X-1761129Y1070249D01*
G01X-1767225Y1063899D01*
G01X-1770273Y1054755D01*
G01X-1802023Y906165D02*
G01X-1805071Y912515D01*
G01X-1811421Y918611D01*
G01X-1817517Y921659D01*
G01X-1829963Y921659D01*
G01X-1836059Y918611D01*
G01X-1842409Y912515D01*
G01X-1845457Y906165D01*
G01X-1848505Y897021D01*
G01X-1848505Y881527D01*
G01X-1845457Y872129D01*
G01X-1842409Y866033D01*
G01X-1836059Y859683D01*
G01X-1829963Y856635D01*
G01X-1817517Y856635D01*
G01X-1811421Y859683D01*
G01X-1805071Y866033D01*
G01X-1802023Y872129D01*
G01X-1728617Y921659D02*
G01X-1759605Y856635D01*
G01X-1771797Y921659D02*
G01X-1728617Y921659D01*
G01X-1802023Y741065D02*
G01X-1805071Y747415D01*
G01X-1811421Y753511D01*
G01X-1817517Y756559D01*
G01X-1829963Y756559D01*
G01X-1836059Y753511D01*
G01X-1842409Y747415D01*
G01X-1845457Y741065D01*
G01X-1848505Y731921D01*
G01X-1848505Y716427D01*
G01X-1845457Y707029D01*
G01X-1842409Y700933D01*
G01X-1836059Y694583D01*
G01X-1829963Y691535D01*
G01X-1817517Y691535D01*
G01X-1811421Y694583D01*
G01X-1805071Y700933D01*
G01X-1802023Y707029D01*
G01X-1756557Y756559D02*
G01X-1765701Y753511D01*
G01X-1768749Y747415D01*
G01X-1768749Y741065D01*
G01X-1765701Y734969D01*
G01X-1759605Y731921D01*
G01X-1747159Y728873D01*
G01X-1737761Y725571D01*
G01X-1731665Y719475D01*
G01X-1728617Y713379D01*
G01X-1728617Y703981D01*
G01X-1731665Y697885D01*
G01X-1734713Y694583D01*
G01X-1744111Y691535D01*
G01X-1756557Y691535D01*
G01X-1765701Y694583D01*
G01X-1768749Y697885D01*
G01X-1771797Y703981D01*
G01X-1771797Y713379D01*
G01X-1768749Y719475D01*
G01X-1762653Y725571D01*
G01X-1753255Y728873D01*
G01X-1741063Y731921D01*
G01X-1734713Y734969D01*
G01X-1731665Y741065D01*
G01X-1731665Y747415D01*
G01X-1734713Y753511D01*
G01X-1744111Y756559D01*
G01X-1756557Y756559D01*
G01X-314198Y891540D02*
G01X-317246Y897890D01*
G01X-323596Y903986D01*
G01X-329692Y907034D01*
G01X-342138Y907034D01*
G01X-348234Y903986D01*
G01X-354584Y897890D01*
G01X-357632Y891540D01*
G01X-360680Y882396D01*
G01X-360680Y866902D01*
G01X-357632Y857504D01*
G01X-354584Y851408D01*
G01X-348234Y845058D01*
G01X-342138Y842010D01*
G01X-329692Y842010D01*
G01X-323596Y845058D01*
G01X-317246Y851408D01*
G01X-314198Y857504D01*
G01X-283972Y894588D02*
G01X-277876Y897890D01*
G01X-268732Y907034D01*
G01X-268732Y842010D01*
G01X-219964Y907034D02*
G01X-229362Y903986D01*
G01X-235458Y894588D01*
G01X-238506Y879348D01*
G01X-238506Y869950D01*
G01X-235458Y854456D01*
G01X-229362Y845058D01*
G01X-219964Y842010D01*
G01X-213868Y842010D01*
G01X-204470Y845058D01*
G01X-198374Y854456D01*
G01X-195326Y869950D01*
G01X-195326Y879348D01*
G01X-198374Y894588D01*
G01X-204470Y903986D01*
G01X-213868Y907034D01*
G01X-219964Y907034D01*
G01X-301498Y1094740D02*
G01X-304546Y1101090D01*
G01X-310896Y1107186D01*
G01X-316992Y1110234D01*
G01X-329438Y1110234D01*
G01X-335534Y1107186D01*
G01X-341884Y1101090D01*
G01X-344932Y1094740D01*
G01X-347980Y1085596D01*
G01X-347980Y1070102D01*
G01X-344932Y1060704D01*
G01X-341884Y1054608D01*
G01X-335534Y1048258D01*
G01X-329438Y1045210D01*
G01X-316992Y1045210D01*
G01X-310896Y1048258D01*
G01X-304546Y1054608D01*
G01X-301498Y1060704D01*
G01X-271272Y1097788D02*
G01X-265176Y1101090D01*
G01X-256032Y1110234D01*
G01X-256032Y1045210D01*
G01X-225806Y1097788D02*
G01X-219710Y1101090D01*
G01X-210566Y1110234D01*
G01X-210566Y1045210D01*
G01X-673100Y-1742186D02*
G01X-673100Y-1807210D01*
G01X-673100Y-1742186D02*
G01X-645160Y-1742186D01*
G01X-636016Y-1745234D01*
G01X-632968Y-1748282D01*
G01X-629666Y-1754632D01*
G01X-629666Y-1760728D01*
G01X-632968Y-1766824D01*
G01X-636016Y-1769872D01*
G01X-645160Y-1773174D01*
G01X-673100Y-1773174D01*
G01X-651510Y-1773174D02*
G01X-629666Y-1807210D01*
G01X-599440Y-1754632D02*
G01X-593344Y-1751330D01*
G01X-584200Y-1742186D01*
G01X-584200Y-1807210D01*
G01X-1017270Y-1756156D02*
G01X-1017270Y-1821180D01*
G01X-1017270Y-1756156D02*
G01X-989330Y-1756156D01*
G01X-980186Y-1759204D01*
G01X-977138Y-1762252D01*
G01X-973836Y-1768602D01*
G01X-973836Y-1774698D01*
G01X-977138Y-1780794D01*
G01X-980186Y-1783842D01*
G01X-989330Y-1787144D01*
G01X-1017270Y-1787144D01*
G01X-995680Y-1787144D02*
G01X-973836Y-1821180D01*
G01X-940562Y-1771650D02*
G01X-940562Y-1768602D01*
G01X-937514Y-1762252D01*
G01X-934466Y-1759204D01*
G01X-928370Y-1756156D01*
G01X-915924Y-1756156D01*
G01X-909574Y-1759204D01*
G01X-906526Y-1762252D01*
G01X-903478Y-1768602D01*
G01X-903478Y-1774698D01*
G01X-906526Y-1780794D01*
G01X-912876Y-1790192D01*
G01X-943610Y-1821180D01*
G01X-900430Y-1821180D01*
G01X-106680Y1135634D02*
G01X-106680Y1070610D01*
G01X-106680Y1135634D02*
G01X-78740Y1135634D01*
G01X-69596Y1132586D01*
G01X-66548Y1129538D01*
G01X-63246Y1123188D01*
G01X-63246Y1117092D01*
G01X-66548Y1110996D01*
G01X-69596Y1107948D01*
G01X-78740Y1104646D01*
G01X-106680Y1104646D01*
G01X-85090Y1104646D02*
G01X-63246Y1070610D01*
G01X-26924Y1135634D02*
G01X7112Y1135634D01*
G01X-11430Y1110996D01*
G01X-2286Y1110996D01*
G01X4064Y1107948D01*
G01X7112Y1104646D01*
G01X10160Y1095502D01*
G01X10160Y1089152D01*
G01X7112Y1080008D01*
G01X1016Y1073658D01*
G01X-8382Y1070610D01*
G01X-17780Y1070610D01*
G01X-26924Y1073658D01*
G01X-29972Y1076960D01*
G01X-33020Y1083056D01*
G01X-106680Y221234D02*
G01X-106680Y156210D01*
G01X-106680Y221234D02*
G01X-78740Y221234D01*
G01X-69596Y218186D01*
G01X-66548Y215138D01*
G01X-63246Y208788D01*
G01X-63246Y202692D01*
G01X-66548Y196596D01*
G01X-69596Y193548D01*
G01X-78740Y190246D01*
G01X-106680Y190246D01*
G01X-85090Y190246D02*
G01X-63246Y156210D01*
G01X-2286Y221234D02*
G01X-33020Y178054D01*
G01X13208Y178054D01*
G01X-2286Y221234D02*
G01X-2286Y156210D01*
G01X134620Y-1467866D02*
G01X134620Y-1532890D01*
G01X134620Y-1467866D02*
G01X162560Y-1467866D01*
G01X171704Y-1470914D01*
G01X174752Y-1473962D01*
G01X178054Y-1480312D01*
G01X178054Y-1486408D01*
G01X174752Y-1492504D01*
G01X171704Y-1495552D01*
G01X162560Y-1498854D01*
G01X134620Y-1498854D01*
G01X156210Y-1498854D02*
G01X178054Y-1532890D01*
G01X245364Y-1477010D02*
G01X242316Y-1470914D01*
G01X232918Y-1467866D01*
G01X226822Y-1467866D01*
G01X217424Y-1470914D01*
G01X211328Y-1480312D01*
G01X208280Y-1495552D01*
G01X208280Y-1511046D01*
G01X211328Y-1523492D01*
G01X217424Y-1529842D01*
G01X226822Y-1532890D01*
G01X229870Y-1532890D01*
G01X239014Y-1529842D01*
G01X245364Y-1523492D01*
G01X248412Y-1514348D01*
G01X248412Y-1511046D01*
G01X245364Y-1501902D01*
G01X239014Y-1495552D01*
G01X229870Y-1492504D01*
G01X226822Y-1492504D01*
G01X217424Y-1495552D01*
G01X211328Y-1501902D01*
G01X208280Y-1511046D01*
G01X147320Y-286766D02*
G01X147320Y-351790D01*
G01X147320Y-286766D02*
G01X175260Y-286766D01*
G01X184404Y-289814D01*
G01X187452Y-292862D01*
G01X190754Y-299212D01*
G01X190754Y-305308D01*
G01X187452Y-311404D01*
G01X184404Y-314452D01*
G01X175260Y-317754D01*
G01X147320Y-317754D01*
G01X168910Y-317754D02*
G01X190754Y-351790D01*
G01X264160Y-286766D02*
G01X233172Y-351790D01*
G01X220980Y-286766D02*
G01X264160Y-286766D01*
G01X-1059180Y360934D02*
G01X-1059180Y314452D01*
G01X-1056132Y305308D01*
G01X-1049782Y298958D01*
G01X-1040638Y295910D01*
G01X-1034288Y295910D01*
G01X-1025144Y298958D01*
G01X-1019048Y305308D01*
G01X-1015746Y314452D01*
G01X-1015746Y360934D01*
G01X-985520Y348488D02*
G01X-979424Y351790D01*
G01X-970280Y360934D01*
G01X-970280Y295910D01*
G01X-1427480Y-2115566D02*
G01X-1427480Y-2162048D01*
G01X-1424432Y-2171192D01*
G01X-1418082Y-2177542D01*
G01X-1408938Y-2180590D01*
G01X-1402588Y-2180590D01*
G01X-1393444Y-2177542D01*
G01X-1387348Y-2171192D01*
G01X-1384046Y-2162048D01*
G01X-1384046Y-2115566D01*
G01X-1310640Y-2124710D02*
G01X-1316736Y-2118614D01*
G01X-1326134Y-2115566D01*
G01X-1338580Y-2115566D01*
G01X-1347724Y-2118614D01*
G01X-1353820Y-2124710D01*
G01X-1353820Y-2131060D01*
G01X-1350772Y-2137156D01*
G01X-1347724Y-2140204D01*
G01X-1341628Y-2143252D01*
G01X-1323086Y-2149602D01*
G01X-1316736Y-2152650D01*
G01X-1313688Y-2155698D01*
G01X-1310640Y-2162048D01*
G01X-1310640Y-2171192D01*
G01X-1316736Y-2177542D01*
G01X-1326134Y-2180590D01*
G01X-1338580Y-2180590D01*
G01X-1347724Y-2177542D01*
G01X-1353820Y-2171192D01*
G01X-1280414Y-2115566D02*
G01X-1280414Y-2180590D01*
G01X-1280414Y-2115566D02*
G01X-1252728Y-2115566D01*
G01X-1243330Y-2118614D01*
G01X-1240282Y-2121662D01*
G01X-1237234Y-2128012D01*
G01X-1237234Y-2134108D01*
G01X-1240282Y-2140204D01*
G01X-1243330Y-2143252D01*
G01X-1252728Y-2146554D01*
G01X-1280414Y-2146554D02*
G01X-1252728Y-2146554D01*
G01X-1243330Y-2149602D01*
G01X-1240282Y-2152650D01*
G01X-1237234Y-2158746D01*
G01X-1237234Y-2168144D01*
G01X-1240282Y-2174240D01*
G01X-1243330Y-2177542D01*
G01X-1252728Y-2180590D01*
G01X-1280414Y-2180590D01*
G01X-1207008Y-2128012D02*
G01X-1200912Y-2124710D01*
G01X-1191768Y-2115566D01*
G01X-1191768Y-2180590D01*
G01X261620Y81534D02*
G01X261620Y35052D01*
G01X264668Y25908D01*
G01X271018Y19558D01*
G01X280162Y16510D01*
G01X286512Y16510D01*
G01X295656Y19558D01*
G01X301752Y25908D01*
G01X305054Y35052D01*
G01X305054Y81534D01*
G01X378460Y72390D02*
G01X372364Y78486D01*
G01X362966Y81534D01*
G01X350520Y81534D01*
G01X341376Y78486D01*
G01X335280Y72390D01*
G01X335280Y66040D01*
G01X338328Y59944D01*
G01X341376Y56896D01*
G01X347472Y53848D01*
G01X366014Y47498D01*
G01X372364Y44450D01*
G01X375412Y41402D01*
G01X378460Y35052D01*
G01X378460Y25908D01*
G01X372364Y19558D01*
G01X362966Y16510D01*
G01X350520Y16510D01*
G01X341376Y19558D01*
G01X335280Y25908D01*
G01X408686Y81534D02*
G01X408686Y16510D01*
G01X408686Y81534D02*
G01X436372Y81534D01*
G01X445770Y78486D01*
G01X448818Y75438D01*
G01X451866Y69088D01*
G01X451866Y62992D01*
G01X448818Y56896D01*
G01X445770Y53848D01*
G01X436372Y50546D01*
G01X408686Y50546D02*
G01X436372Y50546D01*
G01X445770Y47498D01*
G01X448818Y44450D01*
G01X451866Y38354D01*
G01X451866Y28956D01*
G01X448818Y22860D01*
G01X445770Y19558D01*
G01X436372Y16510D01*
G01X408686Y16510D01*
G01X485140Y66040D02*
G01X485140Y69088D01*
G01X488188Y75438D01*
G01X491236Y78486D01*
G01X497332Y81534D01*
G01X509778Y81534D01*
G01X516128Y78486D01*
G01X519176Y75438D01*
G01X522224Y69088D01*
G01X522224Y62992D01*
G01X519176Y56896D01*
G01X512826Y47498D01*
G01X482092Y16510D01*
G01X525272Y16510D01*
G01X464820Y-1620266D02*
G01X464820Y-1666748D01*
G01X467868Y-1675892D01*
G01X474218Y-1682242D01*
G01X483362Y-1685290D01*
G01X489712Y-1685290D01*
G01X498856Y-1682242D01*
G01X504952Y-1675892D01*
G01X508254Y-1666748D01*
G01X508254Y-1620266D01*
G01X581660Y-1629410D02*
G01X575564Y-1623314D01*
G01X566166Y-1620266D01*
G01X553720Y-1620266D01*
G01X544576Y-1623314D01*
G01X538480Y-1629410D01*
G01X538480Y-1635760D01*
G01X541528Y-1641856D01*
G01X544576Y-1644904D01*
G01X550672Y-1647952D01*
G01X569214Y-1654302D01*
G01X575564Y-1657350D01*
G01X578612Y-1660398D01*
G01X581660Y-1666748D01*
G01X581660Y-1675892D01*
G01X575564Y-1682242D01*
G01X566166Y-1685290D01*
G01X553720Y-1685290D01*
G01X544576Y-1682242D01*
G01X538480Y-1675892D01*
G01X611886Y-1620266D02*
G01X611886Y-1685290D01*
G01X611886Y-1620266D02*
G01X639572Y-1620266D01*
G01X648970Y-1623314D01*
G01X652018Y-1626362D01*
G01X655066Y-1632712D01*
G01X655066Y-1638808D01*
G01X652018Y-1644904D01*
G01X648970Y-1647952D01*
G01X639572Y-1651254D01*
G01X611886Y-1651254D02*
G01X639572Y-1651254D01*
G01X648970Y-1654302D01*
G01X652018Y-1657350D01*
G01X655066Y-1663446D01*
G01X655066Y-1672844D01*
G01X652018Y-1678940D01*
G01X648970Y-1682242D01*
G01X639572Y-1685290D01*
G01X611886Y-1685290D01*
G01X691388Y-1620266D02*
G01X725424Y-1620266D01*
G01X706882Y-1644904D01*
G01X716026Y-1644904D01*
G01X722376Y-1647952D01*
G01X725424Y-1651254D01*
G01X728472Y-1660398D01*
G01X728472Y-1666748D01*
G01X725424Y-1675892D01*
G01X719328Y-1682242D01*
G01X709930Y-1685290D01*
G01X700532Y-1685290D01*
G01X691388Y-1682242D01*
G01X688340Y-1678940D01*
G01X685292Y-1672844D01*
G01X-2710180Y-121666D02*
G01X-2710180Y-168148D01*
G01X-2707132Y-177292D01*
G01X-2700782Y-183642D01*
G01X-2691638Y-186690D01*
G01X-2685288Y-186690D01*
G01X-2676144Y-183642D01*
G01X-2670048Y-177292D01*
G01X-2666746Y-168148D01*
G01X-2666746Y-121666D01*
G01X-2593340Y-130810D02*
G01X-2599436Y-124714D01*
G01X-2608834Y-121666D01*
G01X-2621280Y-121666D01*
G01X-2630424Y-124714D01*
G01X-2636520Y-130810D01*
G01X-2636520Y-137160D01*
G01X-2633472Y-143256D01*
G01X-2630424Y-146304D01*
G01X-2624328Y-149352D01*
G01X-2605786Y-155702D01*
G01X-2599436Y-158750D01*
G01X-2596388Y-161798D01*
G01X-2593340Y-168148D01*
G01X-2593340Y-177292D01*
G01X-2599436Y-183642D01*
G01X-2608834Y-186690D01*
G01X-2621280Y-186690D01*
G01X-2630424Y-183642D01*
G01X-2636520Y-177292D01*
G01X-2563114Y-121666D02*
G01X-2563114Y-186690D01*
G01X-2563114Y-121666D02*
G01X-2535428Y-121666D01*
G01X-2526030Y-124714D01*
G01X-2522982Y-127762D01*
G01X-2519934Y-134112D01*
G01X-2519934Y-140208D01*
G01X-2522982Y-146304D01*
G01X-2526030Y-149352D01*
G01X-2535428Y-152654D01*
G01X-2563114Y-152654D02*
G01X-2535428Y-152654D01*
G01X-2526030Y-155702D01*
G01X-2522982Y-158750D01*
G01X-2519934Y-164846D01*
G01X-2519934Y-174244D01*
G01X-2522982Y-180340D01*
G01X-2526030Y-183642D01*
G01X-2535428Y-186690D01*
G01X-2563114Y-186690D01*
G01X-2458974Y-121666D02*
G01X-2489708Y-164846D01*
G01X-2443480Y-164846D01*
G01X-2458974Y-121666D02*
G01X-2458974Y-186690D01*
G01X-2545080Y-1721866D02*
G01X-2545080Y-1768348D01*
G01X-2542032Y-1777492D01*
G01X-2535682Y-1783842D01*
G01X-2526538Y-1786890D01*
G01X-2520188Y-1786890D01*
G01X-2511044Y-1783842D01*
G01X-2504948Y-1777492D01*
G01X-2501646Y-1768348D01*
G01X-2501646Y-1721866D01*
G01X-2428240Y-1731010D02*
G01X-2434336Y-1724914D01*
G01X-2443734Y-1721866D01*
G01X-2456180Y-1721866D01*
G01X-2465324Y-1724914D01*
G01X-2471420Y-1731010D01*
G01X-2471420Y-1737360D01*
G01X-2468372Y-1743456D01*
G01X-2465324Y-1746504D01*
G01X-2459228Y-1749552D01*
G01X-2440686Y-1755902D01*
G01X-2434336Y-1758950D01*
G01X-2431288Y-1761998D01*
G01X-2428240Y-1768348D01*
G01X-2428240Y-1777492D01*
G01X-2434336Y-1783842D01*
G01X-2443734Y-1786890D01*
G01X-2456180Y-1786890D01*
G01X-2465324Y-1783842D01*
G01X-2471420Y-1777492D01*
G01X-2398014Y-1721866D02*
G01X-2398014Y-1786890D01*
G01X-2398014Y-1721866D02*
G01X-2370328Y-1721866D01*
G01X-2360930Y-1724914D01*
G01X-2357882Y-1727962D01*
G01X-2354834Y-1734312D01*
G01X-2354834Y-1740408D01*
G01X-2357882Y-1746504D01*
G01X-2360930Y-1749552D01*
G01X-2370328Y-1752854D01*
G01X-2398014Y-1752854D02*
G01X-2370328Y-1752854D01*
G01X-2360930Y-1755902D01*
G01X-2357882Y-1758950D01*
G01X-2354834Y-1765046D01*
G01X-2354834Y-1774444D01*
G01X-2357882Y-1780540D01*
G01X-2360930Y-1783842D01*
G01X-2370328Y-1786890D01*
G01X-2398014Y-1786890D01*
G01X-2287524Y-1721866D02*
G01X-2318512Y-1721866D01*
G01X-2321560Y-1749552D01*
G01X-2318512Y-1746504D01*
G01X-2309368Y-1743456D01*
G01X-2299970Y-1743456D01*
G01X-2290572Y-1746504D01*
G01X-2284476Y-1752854D01*
G01X-2281428Y-1761998D01*
G01X-2281428Y-1768348D01*
G01X-2284476Y-1777492D01*
G01X-2290572Y-1783842D01*
G01X-2299970Y-1786890D01*
G01X-2309368Y-1786890D01*
G01X-2318512Y-1783842D01*
G01X-2321560Y-1780540D01*
G01X-2324608Y-1774444D01*
G04 Text End*

G04 PolygonModel Start*
G54D11*
G01X-411643Y-2047319D02*
G01X-411643Y-2127316D01*
G01X-411597Y-1991274D02*
G01X-411597Y-1911276D01*
G01X-553611Y-2047319D02*
G01X-553611Y-2127316D01*
G01X-553563Y-1991274D02*
G01X-553563Y-1911276D01*
G01X-442625Y-2158291D02*
G01X-522630Y-2158291D01*
G01X-522577Y-1880298D02*
G01X-442575Y-1880298D01*
G01X-553563Y-1911281D02*
G02X-522577Y-1880298I30983J0D01*
G01X-442580Y-1880298D02*
G02X-411597Y-1911281I0J-30983D01*
G01X-411643Y-2127311D02*
G02X-442625Y-2158291I-30983J3D01*
G01X-522623Y-2158291D02*
G02X-553611Y-2127311I-5J30983D01*
G01X-314881Y413857D02*
G01X-234884Y413857D01*
G01X-370926Y413903D02*
G01X-450924Y413903D01*
G01X-314881Y271889D02*
G01X-234884Y271889D01*
G01X-370926Y271937D02*
G01X-450924Y271937D01*
G01X-203909Y382875D02*
G01X-203909Y302870D01*
G01X-481901Y302923D02*
G01X-481901Y382925D01*
G01X-450919Y271937D02*
G02X-481901Y302923I0J30983D01*
G01X-481901Y382920D02*
G02X-450919Y413903I30983J0D01*
G01X-234889Y413857D02*
G02X-203909Y382875I-3J-30983D01*
G01X-203909Y302877D02*
G02X-234889Y271889I-30983J-5D01*
G01X-149781Y-1275243D02*
G01X-69784Y-1275243D01*
G01X-205826Y-1275197D02*
G01X-285824Y-1275197D01*
G01X-149781Y-1417211D02*
G01X-69784Y-1417211D01*
G01X-205826Y-1417163D02*
G01X-285824Y-1417163D01*
G01X-38809Y-1306225D02*
G01X-38809Y-1386230D01*
G01X-316801Y-1386177D02*
G01X-316801Y-1306175D01*
G01X-285819Y-1417163D02*
G02X-316801Y-1386177I0J30983D01*
G01X-316801Y-1306180D02*
G02X-285819Y-1275197I30983J0D01*
G01X-69789Y-1275243D02*
G02X-38809Y-1306225I-3J-30983D01*
G01X-38809Y-1386223D02*
G02X-69789Y-1417211I-30983J-5D01*
G01X-2034619Y932343D02*
G01X-2114616Y932343D01*
G01X-1978574Y932297D02*
G01X-1898576Y932297D01*
G01X-2034619Y1074311D02*
G01X-2114616Y1074311D01*
G01X-1978574Y1074263D02*
G01X-1898576Y1074263D01*
G01X-2145591Y963325D02*
G01X-2145591Y1043330D01*
G01X-1867598Y1043277D02*
G01X-1867598Y963275D01*
G01X-1898581Y1074263D02*
G02X-1867598Y1043277I0J-30983D01*
G01X-1867598Y963280D02*
G02X-1898581Y932297I-30983J0D01*
G01X-2114611Y932343D02*
G02X-2145591Y963325I3J30983D01*
G01X-2145591Y1043323D02*
G02X-2114611Y1074311I30983J5D01*
G01X-1806019Y-693257D02*
G01X-1886016Y-693257D01*
G01X-1749974Y-693303D02*
G01X-1669976Y-693303D01*
G01X-1806019Y-551289D02*
G01X-1886016Y-551289D01*
G01X-1749974Y-551337D02*
G01X-1669976Y-551337D01*
G01X-1916991Y-662275D02*
G01X-1916991Y-582270D01*
G01X-1638998Y-582323D02*
G01X-1638998Y-662325D01*
G01X-1669981Y-551337D02*
G02X-1638998Y-582323I0J-30983D01*
G01X-1638998Y-662320D02*
G02X-1669981Y-693303I-30983J0D01*
G01X-1886011Y-693257D02*
G02X-1916991Y-662275I3J30983D01*
G01X-1916991Y-582277D02*
G02X-1886011Y-551289I30983J5D01*
G01X-1512893Y1129269D02*
G01X-1432895Y1129269D01*
G01X-1568938Y1129314D02*
G01X-1648935Y1129314D01*
G01X-1512893Y987301D02*
G01X-1432895Y987301D01*
G01X-1568938Y987349D02*
G01X-1648935Y987349D01*
G01X-1401920Y1098286D02*
G01X-1401920Y1018281D01*
G01X-1679913Y1018334D02*
G01X-1679913Y1098337D01*
G01X-1648930Y987349D02*
G02X-1679913Y1018334I0J30983D01*
G01X-1679913Y1098332D02*
G02X-1648930Y1129314I30983J0D01*
G01X-1432900Y1129269D02*
G02X-1401920Y1098286I-3J-30983D01*
G01X-1401920Y1018289D02*
G02X-1432900Y987301I-30983J-5D01*
G01X-1512893Y951469D02*
G01X-1432895Y951469D01*
G01X-1568938Y951514D02*
G01X-1648935Y951514D01*
G01X-1512893Y809501D02*
G01X-1432895Y809501D01*
G01X-1568938Y809549D02*
G01X-1648935Y809549D01*
G01X-1401920Y920486D02*
G01X-1401920Y840481D01*
G01X-1679913Y840534D02*
G01X-1679913Y920537D01*
G01X-1648930Y809549D02*
G02X-1679913Y840534I0J30983D01*
G01X-1679913Y920532D02*
G02X-1648930Y951514I30983J0D01*
G01X-1432900Y951469D02*
G02X-1401920Y920486I-3J-30983D01*
G01X-1401920Y840489D02*
G02X-1432900Y809501I-30983J-5D01*
G01X-1512893Y786369D02*
G01X-1432895Y786369D01*
G01X-1568938Y786414D02*
G01X-1648935Y786414D01*
G01X-1512893Y644401D02*
G01X-1432895Y644401D01*
G01X-1568938Y644449D02*
G01X-1648935Y644449D01*
G01X-1401920Y755386D02*
G01X-1401920Y675381D01*
G01X-1679913Y675434D02*
G01X-1679913Y755437D01*
G01X-1648930Y644449D02*
G02X-1679913Y675434I0J30983D01*
G01X-1679913Y755432D02*
G02X-1648930Y786414I30983J0D01*
G01X-1432900Y786369D02*
G02X-1401920Y755386I-3J-30983D01*
G01X-1401920Y675389D02*
G02X-1432900Y644401I-30983J-5D01*
G01X-1512893Y608569D02*
G01X-1432895Y608569D01*
G01X-1568938Y608614D02*
G01X-1648935Y608614D01*
G01X-1512893Y466601D02*
G01X-1432895Y466601D01*
G01X-1568938Y466649D02*
G01X-1648935Y466649D01*
G01X-1401920Y577586D02*
G01X-1401920Y497581D01*
G01X-1679913Y497634D02*
G01X-1679913Y577637D01*
G01X-1648930Y466649D02*
G02X-1679913Y497634I0J30983D01*
G01X-1679913Y577632D02*
G02X-1648930Y608614I30983J0D01*
G01X-1432900Y608569D02*
G02X-1401920Y577586I-3J-30983D01*
G01X-1401920Y497589D02*
G02X-1432900Y466601I-30983J-5D01*
G01X-565630Y796854D02*
G01X-645627Y796854D01*
G01X-509585Y796808D02*
G01X-429588Y796808D01*
G01X-565630Y938822D02*
G01X-645627Y938822D01*
G01X-509585Y938774D02*
G01X-429588Y938774D01*
G01X-676603Y827837D02*
G01X-676603Y907842D01*
G01X-398610Y907788D02*
G01X-398610Y827786D01*
G01X-429593Y938774D02*
G02X-398610Y907788I0J-30983D01*
G01X-398610Y827791D02*
G02X-429593Y796808I-30983J0D01*
G01X-645622Y796854D02*
G02X-676603Y827837I3J30983D01*
G01X-676603Y907834D02*
G02X-645622Y938822I30983J5D01*
G01X-565630Y974654D02*
G01X-645627Y974654D01*
G01X-509585Y974608D02*
G01X-429588Y974608D01*
G01X-565630Y1116622D02*
G01X-645627Y1116622D01*
G01X-509585Y1116574D02*
G01X-429588Y1116574D01*
G01X-676603Y1005637D02*
G01X-676603Y1085642D01*
G01X-398610Y1085588D02*
G01X-398610Y1005586D01*
G01X-429593Y1116574D02*
G02X-398610Y1085588I0J-30983D01*
G01X-398610Y1005591D02*
G02X-429593Y974608I-30983J0D01*
G01X-645622Y974654D02*
G02X-676603Y1005637I3J30983D01*
G01X-676603Y1085634D02*
G02X-645622Y1116622I30983J5D01*
G54D10*
G01X-713760Y-2061921D02*
G01X-713760Y-2157809D01*
G01X-713760Y-2157809D02*
G01X-581640Y-2157809D01*
G01X-581640Y-2157809D02*
G01X-581640Y-2061921D01*
G01X-713760Y-1976679D02*
G01X-713760Y-1880791D01*
G01X-713760Y-1880791D02*
G01X-581640Y-1880791D01*
G01X-581640Y-1880791D02*
G01X-581640Y-1976679D01*
G01X-1018560Y-2061921D02*
G01X-1018560Y-2157809D01*
G01X-1018560Y-2157809D02*
G01X-886440Y-2157809D01*
G01X-886440Y-2157809D02*
G01X-886440Y-2061921D01*
G01X-1018560Y-1976679D02*
G01X-1018560Y-1880791D01*
G01X-1018560Y-1880791D02*
G01X-886440Y-1880791D01*
G01X-886440Y-1880791D02*
G01X-886440Y-1976679D01*
G01X-116860Y846379D02*
G01X-116860Y750491D01*
G01X-116860Y750491D02*
G01X15260Y750491D01*
G01X15260Y750491D02*
G01X15260Y846379D01*
G01X-116860Y931621D02*
G01X-116860Y1027509D01*
G01X-116860Y1027509D02*
G01X15260Y1027509D01*
G01X15260Y1027509D02*
G01X15260Y931621D01*
G01X15260Y461721D02*
G01X15260Y557609D01*
G01X15260Y557609D02*
G01X-116860Y557609D01*
G01X-116860Y557609D02*
G01X-116860Y461721D01*
G01X15260Y376479D02*
G01X15260Y280591D01*
G01X15260Y280591D02*
G01X-116860Y280591D01*
G01X-116860Y280591D02*
G01X-116860Y376479D01*
G01X269260Y-1214679D02*
G01X269260Y-1118791D01*
G01X269260Y-1118791D02*
G01X137140Y-1118791D01*
G01X137140Y-1118791D02*
G01X137140Y-1214679D01*
G01X269260Y-1299921D02*
G01X269260Y-1395809D01*
G01X269260Y-1395809D02*
G01X137140Y-1395809D01*
G01X137140Y-1395809D02*
G01X137140Y-1299921D01*
G01X137140Y-601421D02*
G01X137140Y-697309D01*
G01X137140Y-697309D02*
G01X269260Y-697309D01*
G01X269260Y-697309D02*
G01X269260Y-601421D01*
G01X137140Y-516179D02*
G01X137140Y-420291D01*
G01X137140Y-420291D02*
G01X269260Y-420291D01*
G01X269260Y-420291D02*
G01X269260Y-516179D01*
G54D11*
G01X-902912Y452311D02*
G01X-982911Y452311D01*
G01X-1162911Y452311D02*
G01X-1082911Y452311D01*
G01X-902912Y902312D02*
G01X-902912Y898423D01*
G01X-902912Y452311D02*
G01X-902912Y456197D01*
G01X-1162911Y898423D02*
G01X-1162911Y902312D01*
G01X-1162911Y452311D02*
G01X-1162911Y456199D01*
G01X-1162911Y902312D02*
G01X-902912Y902312D01*
G01X-982911Y452311D02*
G03X-1082949Y452267I-50019J-377D01*
G01X-342892Y-2717795D02*
G01X-342892Y-2518400D01*
G01X-342892Y-3060697D02*
G01X-342892Y-2913400D01*
G01X-1250091Y-2717482D02*
G01X-1250091Y-2518710D01*
G01X-1250091Y-3075597D02*
G01X-1250091Y-2913713D01*
G01X-350093Y-3075597D02*
G01X-1250091Y-3075597D01*
G01X533395Y1066808D02*
G01X334000Y1066808D01*
G01X876297Y1066808D02*
G01X729000Y1066808D01*
G01X533083Y159609D02*
G01X334310Y159609D01*
G01X891197Y159609D02*
G01X729313Y159609D01*
G01X891197Y1059607D02*
G01X891197Y159609D01*
G01X800095Y-609592D02*
G01X600700Y-609592D01*
G01X1142997Y-609592D02*
G01X995700Y-609592D01*
G01X799783Y-1516791D02*
G01X601010Y-1516791D01*
G01X1157897Y-1516791D02*
G01X996013Y-1516791D01*
G01X1157897Y-616793D02*
G01X1157897Y-1516791D01*
G01X-3031424Y-25400D02*
G01X-2463800Y-25400D01*
G01X-2463800Y-25400D02*
G01X-2463800Y205887D01*
G01X-3384768Y1295400D02*
G01X-3467100Y1295400D01*
G01X-3467100Y1295400D02*
G01X-3467100Y-25400D01*
G01X-3467100Y-25400D02*
G01X-3384768Y-25400D01*
G01X-2463803Y1064113D02*
G01X-2463803Y1295400D01*
G01X-2463803Y1295400D02*
G01X-3031424Y1295400D01*
G01X-2463803Y455887D02*
G01X-2463803Y364114D01*
G01X-2463803Y655886D02*
G01X-2463803Y614114D01*
G01X-2463803Y905886D02*
G01X-2463803Y814113D01*
G01X-3055643Y377193D02*
G01X-3055643Y174191D01*
G01X-2934627Y391190D02*
G01X-2934627Y165176D01*
G01X-3045734Y1065299D02*
G01X-3045734Y862305D01*
G01X-2924736Y1079297D02*
G01X-2924736Y853288D01*
G01X-2698209Y784479D02*
G01X-3272262Y820036D01*
G01X-3272262Y820036D02*
G01X-3272262Y1109602D01*
G01X-3272262Y1109602D02*
G01X-2698209Y1157859D01*
G01X-2698209Y1157859D02*
G01X-2698209Y1107059D01*
G01X-2698209Y1107059D02*
G01X-3211726Y1056538D01*
G01X-3211726Y1056538D02*
G01X-3211726Y881510D01*
G01X-3211726Y881510D02*
G01X-2698209Y822579D01*
G01X-2698209Y822579D02*
G01X-2698209Y784479D01*
G01X-2705103Y101600D02*
G01X-3278762Y136401D01*
G01X-3278762Y136401D02*
G01X-3278266Y424924D01*
G01X-3278266Y424924D02*
G01X-2704762Y474421D01*
G01X-2704762Y474421D02*
G01X-2705153Y423548D01*
G01X-2705153Y423548D02*
G01X-3159178Y372516D01*
G01X-3159178Y372516D02*
G01X-3227001Y365001D01*
G01X-3227001Y365001D02*
G01X-3225922Y190017D01*
G01X-3225922Y190017D02*
G01X-2748102Y142621D01*
G01X-2748102Y142621D02*
G01X-2705103Y139626D01*
G01X-2705103Y139626D02*
G01X-2705103Y101600D01*
G01X-2828224Y-1638300D02*
G01X-2260600Y-1638300D01*
G01X-2260600Y-1638300D02*
G01X-2260600Y-1407013D01*
G01X-3181568Y-317500D02*
G01X-3263900Y-317500D01*
G01X-3263900Y-317500D02*
G01X-3263900Y-1638300D01*
G01X-3263900Y-1638300D02*
G01X-3181568Y-1638300D01*
G01X-2260603Y-548787D02*
G01X-2260603Y-317500D01*
G01X-2260603Y-317500D02*
G01X-2828224Y-317500D01*
G01X-2260603Y-1157013D02*
G01X-2260603Y-1248786D01*
G01X-2260603Y-957014D02*
G01X-2260603Y-998786D01*
G01X-2260603Y-707014D02*
G01X-2260603Y-798787D01*
G01X-2852443Y-1235707D02*
G01X-2852443Y-1438709D01*
G01X-2731427Y-1221710D02*
G01X-2731427Y-1447724D01*
G01X-2842534Y-547601D02*
G01X-2842534Y-750595D01*
G01X-2721536Y-533603D02*
G01X-2721536Y-759612D01*
G01X-2495009Y-828421D02*
G01X-3069062Y-792864D01*
G01X-3069062Y-792864D02*
G01X-3069062Y-503298D01*
G01X-3069062Y-503298D02*
G01X-2495009Y-455041D01*
G01X-2495009Y-455041D02*
G01X-2495009Y-505841D01*
G01X-2495009Y-505841D02*
G01X-3008526Y-556362D01*
G01X-3008526Y-556362D02*
G01X-3008526Y-731390D01*
G01X-3008526Y-731390D02*
G01X-2495009Y-790321D01*
G01X-2495009Y-790321D02*
G01X-2495009Y-828421D01*
G01X-2501903Y-1511300D02*
G01X-3075562Y-1476499D01*
G01X-3075562Y-1476499D02*
G01X-3075066Y-1187976D01*
G01X-3075066Y-1187976D02*
G01X-2501562Y-1138479D01*
G01X-2501562Y-1138479D02*
G01X-2501953Y-1189352D01*
G01X-2501953Y-1189352D02*
G01X-2955978Y-1240384D01*
G01X-2955978Y-1240384D02*
G01X-3023801Y-1247899D01*
G01X-3023801Y-1247899D02*
G01X-3022722Y-1422883D01*
G01X-3022722Y-1422883D02*
G01X-2544902Y-1470279D01*
G01X-2544902Y-1470279D02*
G01X-2501903Y-1473274D01*
G01X-2501903Y-1473274D02*
G01X-2501903Y-1511300D01*

G04 Circle Start*
G01X-859429Y445308D02*
G03X-834385Y445308I12522J0D01*
G03X-859429Y445308I-12522J0D01*
G04 Circle End*

M02*

